%TF.GenerationSoftware,KiCad,Pcbnew,8.0.1*%
%TF.CreationDate,2024-03-30T18:05:25+05:00*%
%TF.ProjectId,pcb,7063622e-6b69-4636-9164-5f7063625858,rev?*%
%TF.SameCoordinates,Original*%
%TF.FileFunction,Legend,Bot*%
%TF.FilePolarity,Positive*%
%FSLAX46Y46*%
G04 Gerber Fmt 4.6, Leading zero omitted, Abs format (unit mm)*
G04 Created by KiCad (PCBNEW 8.0.1) date 2024-03-30 18:05:25*
%MOMM*%
%LPD*%
G01*
G04 APERTURE LIST*
G04 Aperture macros list*
%AMRoundRect*
0 Rectangle with rounded corners*
0 $1 Rounding radius*
0 $2 $3 $4 $5 $6 $7 $8 $9 X,Y pos of 4 corners*
0 Add a 4 corners polygon primitive as box body*
4,1,4,$2,$3,$4,$5,$6,$7,$8,$9,$2,$3,0*
0 Add four circle primitives for the rounded corners*
1,1,$1+$1,$2,$3*
1,1,$1+$1,$4,$5*
1,1,$1+$1,$6,$7*
1,1,$1+$1,$8,$9*
0 Add four rect primitives between the rounded corners*
20,1,$1+$1,$2,$3,$4,$5,0*
20,1,$1+$1,$4,$5,$6,$7,0*
20,1,$1+$1,$6,$7,$8,$9,0*
20,1,$1+$1,$8,$9,$2,$3,0*%
G04 Aperture macros list end*
%ADD10C,0.150000*%
%ADD11C,0.100000*%
%ADD12C,0.120000*%
%ADD13C,1.900000*%
%ADD14C,3.050000*%
%ADD15C,3.450000*%
%ADD16RoundRect,0.250000X-1.025000X-1.000000X1.025000X-1.000000X1.025000X1.000000X-1.025000X1.000000X0*%
%ADD17RoundRect,0.250000X1.025000X1.000000X-1.025000X1.000000X-1.025000X-1.000000X1.025000X-1.000000X0*%
%ADD18O,2.219000X1.000000*%
%ADD19O,1.762000X1.000000*%
%ADD20C,0.800000*%
%ADD21R,1.350000X1.350000*%
%ADD22O,1.350000X1.350000*%
%ADD23C,0.900000*%
G04 APERTURE END LIST*
D10*
X127800000Y-42800000D02*
G75*
G02*
X129700000Y-44700000I0J-1900000D01*
G01*
X146400000Y-104400000D02*
G75*
G02*
X148300000Y-106300000I0J-1900000D01*
G01*
X44200000Y-108200000D02*
G75*
G02*
X42300000Y-106300000I0J1900000D01*
G01*
X137400000Y-108200000D02*
G75*
G02*
X135500000Y-106300000I0J1900000D01*
G01*
X221000000Y-104400000D02*
G75*
G02*
X222900000Y-106300000I0J-1900000D01*
G01*
X42300000Y-106300000D02*
G75*
G02*
X44200000Y-104400000I1900000J0D01*
G01*
X55100000Y-106300000D02*
G75*
G02*
X53200000Y-108200000I-1900000J0D01*
G01*
X212000000Y-108200000D02*
G75*
G02*
X210100000Y-106300000I0J1900000D01*
G01*
X53200000Y-46600000D02*
X44200000Y-46600000D01*
X55100000Y-44700000D02*
G75*
G02*
X53200000Y-46600000I-1900000J0D01*
G01*
X146400000Y-108200000D02*
X137400000Y-108200000D01*
X53200000Y-108200000D02*
X44200000Y-108200000D01*
X118800000Y-104400000D02*
X127800000Y-104400000D01*
X135500000Y-44700000D02*
G75*
G02*
X137400000Y-42800000I1900000J0D01*
G01*
X137400000Y-46600000D02*
G75*
G02*
X135500000Y-44700000I0J1900000D01*
G01*
X118800000Y-46600000D02*
G75*
G02*
X116900000Y-44700000I0J1900000D01*
G01*
X127800000Y-104400000D02*
G75*
G02*
X129700000Y-106300000I0J-1900000D01*
G01*
X53200000Y-42800000D02*
G75*
G02*
X55100000Y-44700000I0J-1900000D01*
G01*
X53200000Y-104400000D02*
G75*
G02*
X55100000Y-106300000I0J-1900000D01*
G01*
X146400000Y-46600000D02*
X137400000Y-46600000D01*
X221000000Y-108200000D02*
X212000000Y-108200000D01*
X212000000Y-42800000D02*
X221000000Y-42800000D01*
X146400000Y-42800000D02*
G75*
G02*
X148300000Y-44700000I0J-1900000D01*
G01*
X118800000Y-42800000D02*
X127800000Y-42800000D01*
X44200000Y-46600000D02*
G75*
G02*
X42300000Y-44700000I0J1900000D01*
G01*
X129700000Y-44700000D02*
G75*
G02*
X127800000Y-46600000I-1900000J0D01*
G01*
X210100000Y-106300000D02*
G75*
G02*
X212000000Y-104400000I1900000J0D01*
G01*
X148300000Y-44700000D02*
G75*
G02*
X146400000Y-46600000I-1900000J0D01*
G01*
X212000000Y-46600000D02*
G75*
G02*
X210100000Y-44700000I0J1900000D01*
G01*
X148300000Y-106300000D02*
G75*
G02*
X146400000Y-108200000I-1900000J0D01*
G01*
X221000000Y-42800000D02*
G75*
G02*
X222900000Y-44700000I0J-1900000D01*
G01*
X137400000Y-42800000D02*
X146400000Y-42800000D01*
X116900000Y-106300000D02*
G75*
G02*
X118800000Y-104400000I1900000J0D01*
G01*
X118800000Y-108200000D02*
G75*
G02*
X116900000Y-106300000I0J1900000D01*
G01*
X222900000Y-44700000D02*
G75*
G02*
X221000000Y-46600000I-1900000J0D01*
G01*
X135500000Y-106300000D02*
G75*
G02*
X137400000Y-104400000I1900000J0D01*
G01*
X221000000Y-46600000D02*
X212000000Y-46600000D01*
X127800000Y-108200000D02*
X118800000Y-108200000D01*
X210100000Y-44700000D02*
G75*
G02*
X212000000Y-42800000I1900000J0D01*
G01*
X44200000Y-104400000D02*
X53200000Y-104400000D01*
X212000000Y-104400000D02*
X221000000Y-104400000D01*
X42300000Y-44700000D02*
G75*
G02*
X44200000Y-42800000I1900000J0D01*
G01*
X222900000Y-106300000D02*
G75*
G02*
X221000000Y-108200000I-1900000J0D01*
G01*
X137400000Y-104400000D02*
X146400000Y-104400000D01*
X116900000Y-44700000D02*
G75*
G02*
X118800000Y-42800000I1900000J0D01*
G01*
X129700000Y-106300000D02*
G75*
G02*
X127800000Y-108200000I-1900000J0D01*
G01*
X127800000Y-46600000D02*
X118800000Y-46600000D01*
X44200000Y-42800000D02*
X53200000Y-42800000D01*
D11*
X99581830Y-90858800D02*
X99467544Y-90896895D01*
X99467544Y-90896895D02*
X99277068Y-90896895D01*
X99277068Y-90896895D02*
X99200877Y-90858800D01*
X99200877Y-90858800D02*
X99162782Y-90820704D01*
X99162782Y-90820704D02*
X99124687Y-90744514D01*
X99124687Y-90744514D02*
X99124687Y-90668323D01*
X99124687Y-90668323D02*
X99162782Y-90592133D01*
X99162782Y-90592133D02*
X99200877Y-90554038D01*
X99200877Y-90554038D02*
X99277068Y-90515942D01*
X99277068Y-90515942D02*
X99429449Y-90477847D01*
X99429449Y-90477847D02*
X99505639Y-90439752D01*
X99505639Y-90439752D02*
X99543734Y-90401657D01*
X99543734Y-90401657D02*
X99581830Y-90325466D01*
X99581830Y-90325466D02*
X99581830Y-90249276D01*
X99581830Y-90249276D02*
X99543734Y-90173085D01*
X99543734Y-90173085D02*
X99505639Y-90134990D01*
X99505639Y-90134990D02*
X99429449Y-90096895D01*
X99429449Y-90096895D02*
X99238972Y-90096895D01*
X99238972Y-90096895D02*
X99124687Y-90134990D01*
X98858020Y-90096895D02*
X98667544Y-90896895D01*
X98667544Y-90896895D02*
X98515163Y-90325466D01*
X98515163Y-90325466D02*
X98362782Y-90896895D01*
X98362782Y-90896895D02*
X98172306Y-90096895D01*
X97867543Y-90896895D02*
X97867543Y-90096895D01*
X97867543Y-90096895D02*
X97677067Y-90096895D01*
X97677067Y-90096895D02*
X97562781Y-90134990D01*
X97562781Y-90134990D02*
X97486591Y-90211180D01*
X97486591Y-90211180D02*
X97448496Y-90287371D01*
X97448496Y-90287371D02*
X97410400Y-90439752D01*
X97410400Y-90439752D02*
X97410400Y-90554038D01*
X97410400Y-90554038D02*
X97448496Y-90706419D01*
X97448496Y-90706419D02*
X97486591Y-90782609D01*
X97486591Y-90782609D02*
X97562781Y-90858800D01*
X97562781Y-90858800D02*
X97677067Y-90896895D01*
X97677067Y-90896895D02*
X97867543Y-90896895D01*
X97067543Y-90896895D02*
X97067543Y-90096895D01*
X96534210Y-90096895D02*
X96381829Y-90096895D01*
X96381829Y-90096895D02*
X96305639Y-90134990D01*
X96305639Y-90134990D02*
X96229448Y-90211180D01*
X96229448Y-90211180D02*
X96191353Y-90363561D01*
X96191353Y-90363561D02*
X96191353Y-90630228D01*
X96191353Y-90630228D02*
X96229448Y-90782609D01*
X96229448Y-90782609D02*
X96305639Y-90858800D01*
X96305639Y-90858800D02*
X96381829Y-90896895D01*
X96381829Y-90896895D02*
X96534210Y-90896895D01*
X96534210Y-90896895D02*
X96610401Y-90858800D01*
X96610401Y-90858800D02*
X96686591Y-90782609D01*
X96686591Y-90782609D02*
X96724687Y-90630228D01*
X96724687Y-90630228D02*
X96724687Y-90363561D01*
X96724687Y-90363561D02*
X96686591Y-90211180D01*
X96686591Y-90211180D02*
X96610401Y-90134990D01*
X96610401Y-90134990D02*
X96534210Y-90096895D01*
X98219925Y-88196895D02*
X97724687Y-88196895D01*
X97724687Y-88196895D02*
X97991353Y-88501657D01*
X97991353Y-88501657D02*
X97877068Y-88501657D01*
X97877068Y-88501657D02*
X97800877Y-88539752D01*
X97800877Y-88539752D02*
X97762782Y-88577847D01*
X97762782Y-88577847D02*
X97724687Y-88654038D01*
X97724687Y-88654038D02*
X97724687Y-88844514D01*
X97724687Y-88844514D02*
X97762782Y-88920704D01*
X97762782Y-88920704D02*
X97800877Y-88958800D01*
X97800877Y-88958800D02*
X97877068Y-88996895D01*
X97877068Y-88996895D02*
X98105639Y-88996895D01*
X98105639Y-88996895D02*
X98181830Y-88958800D01*
X98181830Y-88958800D02*
X98219925Y-88920704D01*
X97496115Y-88196895D02*
X97229448Y-88996895D01*
X97229448Y-88996895D02*
X96962782Y-88196895D01*
X96772306Y-88196895D02*
X96277068Y-88196895D01*
X96277068Y-88196895D02*
X96543734Y-88501657D01*
X96543734Y-88501657D02*
X96429449Y-88501657D01*
X96429449Y-88501657D02*
X96353258Y-88539752D01*
X96353258Y-88539752D02*
X96315163Y-88577847D01*
X96315163Y-88577847D02*
X96277068Y-88654038D01*
X96277068Y-88654038D02*
X96277068Y-88844514D01*
X96277068Y-88844514D02*
X96315163Y-88920704D01*
X96315163Y-88920704D02*
X96353258Y-88958800D01*
X96353258Y-88958800D02*
X96429449Y-88996895D01*
X96429449Y-88996895D02*
X96658020Y-88996895D01*
X96658020Y-88996895D02*
X96734211Y-88958800D01*
X96734211Y-88958800D02*
X96772306Y-88920704D01*
X174781830Y-90858800D02*
X174667544Y-90896895D01*
X174667544Y-90896895D02*
X174477068Y-90896895D01*
X174477068Y-90896895D02*
X174400877Y-90858800D01*
X174400877Y-90858800D02*
X174362782Y-90820704D01*
X174362782Y-90820704D02*
X174324687Y-90744514D01*
X174324687Y-90744514D02*
X174324687Y-90668323D01*
X174324687Y-90668323D02*
X174362782Y-90592133D01*
X174362782Y-90592133D02*
X174400877Y-90554038D01*
X174400877Y-90554038D02*
X174477068Y-90515942D01*
X174477068Y-90515942D02*
X174629449Y-90477847D01*
X174629449Y-90477847D02*
X174705639Y-90439752D01*
X174705639Y-90439752D02*
X174743734Y-90401657D01*
X174743734Y-90401657D02*
X174781830Y-90325466D01*
X174781830Y-90325466D02*
X174781830Y-90249276D01*
X174781830Y-90249276D02*
X174743734Y-90173085D01*
X174743734Y-90173085D02*
X174705639Y-90134990D01*
X174705639Y-90134990D02*
X174629449Y-90096895D01*
X174629449Y-90096895D02*
X174438972Y-90096895D01*
X174438972Y-90096895D02*
X174324687Y-90134990D01*
X174058020Y-90096895D02*
X173867544Y-90896895D01*
X173867544Y-90896895D02*
X173715163Y-90325466D01*
X173715163Y-90325466D02*
X173562782Y-90896895D01*
X173562782Y-90896895D02*
X173372306Y-90096895D01*
X173067543Y-90896895D02*
X173067543Y-90096895D01*
X173067543Y-90096895D02*
X172877067Y-90096895D01*
X172877067Y-90096895D02*
X172762781Y-90134990D01*
X172762781Y-90134990D02*
X172686591Y-90211180D01*
X172686591Y-90211180D02*
X172648496Y-90287371D01*
X172648496Y-90287371D02*
X172610400Y-90439752D01*
X172610400Y-90439752D02*
X172610400Y-90554038D01*
X172610400Y-90554038D02*
X172648496Y-90706419D01*
X172648496Y-90706419D02*
X172686591Y-90782609D01*
X172686591Y-90782609D02*
X172762781Y-90858800D01*
X172762781Y-90858800D02*
X172877067Y-90896895D01*
X172877067Y-90896895D02*
X173067543Y-90896895D01*
X172267543Y-90896895D02*
X172267543Y-90096895D01*
X171734210Y-90096895D02*
X171581829Y-90096895D01*
X171581829Y-90096895D02*
X171505639Y-90134990D01*
X171505639Y-90134990D02*
X171429448Y-90211180D01*
X171429448Y-90211180D02*
X171391353Y-90363561D01*
X171391353Y-90363561D02*
X171391353Y-90630228D01*
X171391353Y-90630228D02*
X171429448Y-90782609D01*
X171429448Y-90782609D02*
X171505639Y-90858800D01*
X171505639Y-90858800D02*
X171581829Y-90896895D01*
X171581829Y-90896895D02*
X171734210Y-90896895D01*
X171734210Y-90896895D02*
X171810401Y-90858800D01*
X171810401Y-90858800D02*
X171886591Y-90782609D01*
X171886591Y-90782609D02*
X171924687Y-90630228D01*
X171924687Y-90630228D02*
X171924687Y-90363561D01*
X171924687Y-90363561D02*
X171886591Y-90211180D01*
X171886591Y-90211180D02*
X171810401Y-90134990D01*
X171810401Y-90134990D02*
X171734210Y-90096895D01*
X99881830Y-92758800D02*
X99767544Y-92796895D01*
X99767544Y-92796895D02*
X99577068Y-92796895D01*
X99577068Y-92796895D02*
X99500877Y-92758800D01*
X99500877Y-92758800D02*
X99462782Y-92720704D01*
X99462782Y-92720704D02*
X99424687Y-92644514D01*
X99424687Y-92644514D02*
X99424687Y-92568323D01*
X99424687Y-92568323D02*
X99462782Y-92492133D01*
X99462782Y-92492133D02*
X99500877Y-92454038D01*
X99500877Y-92454038D02*
X99577068Y-92415942D01*
X99577068Y-92415942D02*
X99729449Y-92377847D01*
X99729449Y-92377847D02*
X99805639Y-92339752D01*
X99805639Y-92339752D02*
X99843734Y-92301657D01*
X99843734Y-92301657D02*
X99881830Y-92225466D01*
X99881830Y-92225466D02*
X99881830Y-92149276D01*
X99881830Y-92149276D02*
X99843734Y-92073085D01*
X99843734Y-92073085D02*
X99805639Y-92034990D01*
X99805639Y-92034990D02*
X99729449Y-91996895D01*
X99729449Y-91996895D02*
X99538972Y-91996895D01*
X99538972Y-91996895D02*
X99424687Y-92034990D01*
X99158020Y-91996895D02*
X98967544Y-92796895D01*
X98967544Y-92796895D02*
X98815163Y-92225466D01*
X98815163Y-92225466D02*
X98662782Y-92796895D01*
X98662782Y-92796895D02*
X98472306Y-91996895D01*
X97710400Y-92720704D02*
X97748496Y-92758800D01*
X97748496Y-92758800D02*
X97862781Y-92796895D01*
X97862781Y-92796895D02*
X97938972Y-92796895D01*
X97938972Y-92796895D02*
X98053258Y-92758800D01*
X98053258Y-92758800D02*
X98129448Y-92682609D01*
X98129448Y-92682609D02*
X98167543Y-92606419D01*
X98167543Y-92606419D02*
X98205639Y-92454038D01*
X98205639Y-92454038D02*
X98205639Y-92339752D01*
X98205639Y-92339752D02*
X98167543Y-92187371D01*
X98167543Y-92187371D02*
X98129448Y-92111180D01*
X98129448Y-92111180D02*
X98053258Y-92034990D01*
X98053258Y-92034990D02*
X97938972Y-91996895D01*
X97938972Y-91996895D02*
X97862781Y-91996895D01*
X97862781Y-91996895D02*
X97748496Y-92034990D01*
X97748496Y-92034990D02*
X97710400Y-92073085D01*
X96986591Y-92796895D02*
X97367543Y-92796895D01*
X97367543Y-92796895D02*
X97367543Y-91996895D01*
X96719924Y-92796895D02*
X96719924Y-91996895D01*
X96262781Y-92796895D02*
X96605639Y-92339752D01*
X96262781Y-91996895D02*
X96719924Y-92454038D01*
X97824687Y-86184990D02*
X97900877Y-86146895D01*
X97900877Y-86146895D02*
X98015163Y-86146895D01*
X98015163Y-86146895D02*
X98129449Y-86184990D01*
X98129449Y-86184990D02*
X98205639Y-86261180D01*
X98205639Y-86261180D02*
X98243734Y-86337371D01*
X98243734Y-86337371D02*
X98281830Y-86489752D01*
X98281830Y-86489752D02*
X98281830Y-86604038D01*
X98281830Y-86604038D02*
X98243734Y-86756419D01*
X98243734Y-86756419D02*
X98205639Y-86832609D01*
X98205639Y-86832609D02*
X98129449Y-86908800D01*
X98129449Y-86908800D02*
X98015163Y-86946895D01*
X98015163Y-86946895D02*
X97938972Y-86946895D01*
X97938972Y-86946895D02*
X97824687Y-86908800D01*
X97824687Y-86908800D02*
X97786591Y-86870704D01*
X97786591Y-86870704D02*
X97786591Y-86604038D01*
X97786591Y-86604038D02*
X97938972Y-86604038D01*
X97443734Y-86946895D02*
X97443734Y-86146895D01*
X97443734Y-86146895D02*
X96986591Y-86946895D01*
X96986591Y-86946895D02*
X96986591Y-86146895D01*
X96605639Y-86946895D02*
X96605639Y-86146895D01*
X96605639Y-86146895D02*
X96415163Y-86146895D01*
X96415163Y-86146895D02*
X96300877Y-86184990D01*
X96300877Y-86184990D02*
X96224687Y-86261180D01*
X96224687Y-86261180D02*
X96186592Y-86337371D01*
X96186592Y-86337371D02*
X96148496Y-86489752D01*
X96148496Y-86489752D02*
X96148496Y-86604038D01*
X96148496Y-86604038D02*
X96186592Y-86756419D01*
X96186592Y-86756419D02*
X96224687Y-86832609D01*
X96224687Y-86832609D02*
X96300877Y-86908800D01*
X96300877Y-86908800D02*
X96415163Y-86946895D01*
X96415163Y-86946895D02*
X96605639Y-86946895D01*
X173024687Y-86184990D02*
X173100877Y-86146895D01*
X173100877Y-86146895D02*
X173215163Y-86146895D01*
X173215163Y-86146895D02*
X173329449Y-86184990D01*
X173329449Y-86184990D02*
X173405639Y-86261180D01*
X173405639Y-86261180D02*
X173443734Y-86337371D01*
X173443734Y-86337371D02*
X173481830Y-86489752D01*
X173481830Y-86489752D02*
X173481830Y-86604038D01*
X173481830Y-86604038D02*
X173443734Y-86756419D01*
X173443734Y-86756419D02*
X173405639Y-86832609D01*
X173405639Y-86832609D02*
X173329449Y-86908800D01*
X173329449Y-86908800D02*
X173215163Y-86946895D01*
X173215163Y-86946895D02*
X173138972Y-86946895D01*
X173138972Y-86946895D02*
X173024687Y-86908800D01*
X173024687Y-86908800D02*
X172986591Y-86870704D01*
X172986591Y-86870704D02*
X172986591Y-86604038D01*
X172986591Y-86604038D02*
X173138972Y-86604038D01*
X172643734Y-86946895D02*
X172643734Y-86146895D01*
X172643734Y-86146895D02*
X172186591Y-86946895D01*
X172186591Y-86946895D02*
X172186591Y-86146895D01*
X171805639Y-86946895D02*
X171805639Y-86146895D01*
X171805639Y-86146895D02*
X171615163Y-86146895D01*
X171615163Y-86146895D02*
X171500877Y-86184990D01*
X171500877Y-86184990D02*
X171424687Y-86261180D01*
X171424687Y-86261180D02*
X171386592Y-86337371D01*
X171386592Y-86337371D02*
X171348496Y-86489752D01*
X171348496Y-86489752D02*
X171348496Y-86604038D01*
X171348496Y-86604038D02*
X171386592Y-86756419D01*
X171386592Y-86756419D02*
X171424687Y-86832609D01*
X171424687Y-86832609D02*
X171500877Y-86908800D01*
X171500877Y-86908800D02*
X171615163Y-86946895D01*
X171615163Y-86946895D02*
X171805639Y-86946895D01*
X173419925Y-88196895D02*
X172924687Y-88196895D01*
X172924687Y-88196895D02*
X173191353Y-88501657D01*
X173191353Y-88501657D02*
X173077068Y-88501657D01*
X173077068Y-88501657D02*
X173000877Y-88539752D01*
X173000877Y-88539752D02*
X172962782Y-88577847D01*
X172962782Y-88577847D02*
X172924687Y-88654038D01*
X172924687Y-88654038D02*
X172924687Y-88844514D01*
X172924687Y-88844514D02*
X172962782Y-88920704D01*
X172962782Y-88920704D02*
X173000877Y-88958800D01*
X173000877Y-88958800D02*
X173077068Y-88996895D01*
X173077068Y-88996895D02*
X173305639Y-88996895D01*
X173305639Y-88996895D02*
X173381830Y-88958800D01*
X173381830Y-88958800D02*
X173419925Y-88920704D01*
X172696115Y-88196895D02*
X172429448Y-88996895D01*
X172429448Y-88996895D02*
X172162782Y-88196895D01*
X171972306Y-88196895D02*
X171477068Y-88196895D01*
X171477068Y-88196895D02*
X171743734Y-88501657D01*
X171743734Y-88501657D02*
X171629449Y-88501657D01*
X171629449Y-88501657D02*
X171553258Y-88539752D01*
X171553258Y-88539752D02*
X171515163Y-88577847D01*
X171515163Y-88577847D02*
X171477068Y-88654038D01*
X171477068Y-88654038D02*
X171477068Y-88844514D01*
X171477068Y-88844514D02*
X171515163Y-88920704D01*
X171515163Y-88920704D02*
X171553258Y-88958800D01*
X171553258Y-88958800D02*
X171629449Y-88996895D01*
X171629449Y-88996895D02*
X171858020Y-88996895D01*
X171858020Y-88996895D02*
X171934211Y-88958800D01*
X171934211Y-88958800D02*
X171972306Y-88920704D01*
X175081830Y-92758800D02*
X174967544Y-92796895D01*
X174967544Y-92796895D02*
X174777068Y-92796895D01*
X174777068Y-92796895D02*
X174700877Y-92758800D01*
X174700877Y-92758800D02*
X174662782Y-92720704D01*
X174662782Y-92720704D02*
X174624687Y-92644514D01*
X174624687Y-92644514D02*
X174624687Y-92568323D01*
X174624687Y-92568323D02*
X174662782Y-92492133D01*
X174662782Y-92492133D02*
X174700877Y-92454038D01*
X174700877Y-92454038D02*
X174777068Y-92415942D01*
X174777068Y-92415942D02*
X174929449Y-92377847D01*
X174929449Y-92377847D02*
X175005639Y-92339752D01*
X175005639Y-92339752D02*
X175043734Y-92301657D01*
X175043734Y-92301657D02*
X175081830Y-92225466D01*
X175081830Y-92225466D02*
X175081830Y-92149276D01*
X175081830Y-92149276D02*
X175043734Y-92073085D01*
X175043734Y-92073085D02*
X175005639Y-92034990D01*
X175005639Y-92034990D02*
X174929449Y-91996895D01*
X174929449Y-91996895D02*
X174738972Y-91996895D01*
X174738972Y-91996895D02*
X174624687Y-92034990D01*
X174358020Y-91996895D02*
X174167544Y-92796895D01*
X174167544Y-92796895D02*
X174015163Y-92225466D01*
X174015163Y-92225466D02*
X173862782Y-92796895D01*
X173862782Y-92796895D02*
X173672306Y-91996895D01*
X172910400Y-92720704D02*
X172948496Y-92758800D01*
X172948496Y-92758800D02*
X173062781Y-92796895D01*
X173062781Y-92796895D02*
X173138972Y-92796895D01*
X173138972Y-92796895D02*
X173253258Y-92758800D01*
X173253258Y-92758800D02*
X173329448Y-92682609D01*
X173329448Y-92682609D02*
X173367543Y-92606419D01*
X173367543Y-92606419D02*
X173405639Y-92454038D01*
X173405639Y-92454038D02*
X173405639Y-92339752D01*
X173405639Y-92339752D02*
X173367543Y-92187371D01*
X173367543Y-92187371D02*
X173329448Y-92111180D01*
X173329448Y-92111180D02*
X173253258Y-92034990D01*
X173253258Y-92034990D02*
X173138972Y-91996895D01*
X173138972Y-91996895D02*
X173062781Y-91996895D01*
X173062781Y-91996895D02*
X172948496Y-92034990D01*
X172948496Y-92034990D02*
X172910400Y-92073085D01*
X172186591Y-92796895D02*
X172567543Y-92796895D01*
X172567543Y-92796895D02*
X172567543Y-91996895D01*
X171919924Y-92796895D02*
X171919924Y-91996895D01*
X171462781Y-92796895D02*
X171805639Y-92339752D01*
X171462781Y-91996895D02*
X171919924Y-92454038D01*
D12*
%TO.C,SW26*%
X194784000Y-76591000D02*
X195721000Y-75654000D01*
X195721000Y-75654000D02*
X198468000Y-75654000D01*
X195721000Y-80446000D02*
X194700000Y-79425000D01*
X198368000Y-80446000D02*
X195721000Y-80446000D01*
X198468000Y-75654000D02*
X198871000Y-75734000D01*
X198871000Y-75734000D02*
X199213000Y-75963000D01*
X198930000Y-80551000D02*
X198368000Y-80446000D01*
X199213000Y-75963000D02*
X199746000Y-76496000D01*
X199409000Y-80850000D02*
X198930000Y-80551000D01*
X199746000Y-76496000D02*
X199746000Y-76718000D01*
X199746000Y-76718000D02*
X199833000Y-77156000D01*
X199747000Y-81303000D02*
X199409000Y-80850000D01*
X199833000Y-77156000D02*
X200077000Y-77523000D01*
X199901000Y-81861000D02*
X199747000Y-81303000D01*
X199983000Y-82159000D02*
X199901000Y-81861000D01*
X200077000Y-77523000D02*
X200444000Y-77767000D01*
X200176000Y-82417000D02*
X199983000Y-82159000D01*
X200444000Y-77767000D02*
X200882000Y-77854000D01*
X200450000Y-82587000D02*
X200176000Y-82417000D01*
X200760000Y-82646000D02*
X200450000Y-82587000D01*
X200882000Y-77854000D02*
X203682000Y-77854000D01*
X203682000Y-77854000D02*
X204009000Y-77919000D01*
X204009000Y-77919000D02*
X204292000Y-78108000D01*
X204292000Y-78108000D02*
X204481000Y-78391000D01*
X204481000Y-78391000D02*
X204566000Y-78818000D01*
X204483000Y-81704000D02*
X204846000Y-81704000D01*
X204846000Y-81704000D02*
X204846000Y-82646000D01*
X204846000Y-82646000D02*
X200760000Y-82646000D01*
%TO.C,SW2*%
X47584000Y-59591000D02*
X48521000Y-58654000D01*
X48521000Y-58654000D02*
X51268000Y-58654000D01*
X48521000Y-63446000D02*
X47500000Y-62425000D01*
X51168000Y-63446000D02*
X48521000Y-63446000D01*
X51268000Y-58654000D02*
X51671000Y-58734000D01*
X51671000Y-58734000D02*
X52013000Y-58963000D01*
X51730000Y-63551000D02*
X51168000Y-63446000D01*
X52013000Y-58963000D02*
X52546000Y-59496000D01*
X52209000Y-63850000D02*
X51730000Y-63551000D01*
X52546000Y-59496000D02*
X52546000Y-59718000D01*
X52546000Y-59718000D02*
X52633000Y-60156000D01*
X52547000Y-64303000D02*
X52209000Y-63850000D01*
X52633000Y-60156000D02*
X52877000Y-60523000D01*
X52701000Y-64861000D02*
X52547000Y-64303000D01*
X52783000Y-65159000D02*
X52701000Y-64861000D01*
X52877000Y-60523000D02*
X53244000Y-60767000D01*
X52976000Y-65417000D02*
X52783000Y-65159000D01*
X53244000Y-60767000D02*
X53682000Y-60854000D01*
X53250000Y-65587000D02*
X52976000Y-65417000D01*
X53560000Y-65646000D02*
X53250000Y-65587000D01*
X53682000Y-60854000D02*
X56482000Y-60854000D01*
X56482000Y-60854000D02*
X56809000Y-60919000D01*
X56809000Y-60919000D02*
X57092000Y-61108000D01*
X57092000Y-61108000D02*
X57281000Y-61391000D01*
X57281000Y-61391000D02*
X57366000Y-61818000D01*
X57283000Y-64704000D02*
X57646000Y-64704000D01*
X57646000Y-64704000D02*
X57646000Y-65646000D01*
X57646000Y-65646000D02*
X53560000Y-65646000D01*
%TO.C,SW10*%
X83584000Y-93591000D02*
X84521000Y-92654000D01*
X84521000Y-92654000D02*
X87268000Y-92654000D01*
X84521000Y-97446000D02*
X83500000Y-96425000D01*
X87168000Y-97446000D02*
X84521000Y-97446000D01*
X87268000Y-92654000D02*
X87671000Y-92734000D01*
X87671000Y-92734000D02*
X88013000Y-92963000D01*
X87730000Y-97551000D02*
X87168000Y-97446000D01*
X88013000Y-92963000D02*
X88546000Y-93496000D01*
X88209000Y-97850000D02*
X87730000Y-97551000D01*
X88546000Y-93496000D02*
X88546000Y-93718000D01*
X88546000Y-93718000D02*
X88633000Y-94156000D01*
X88547000Y-98303000D02*
X88209000Y-97850000D01*
X88633000Y-94156000D02*
X88877000Y-94523000D01*
X88701000Y-98861000D02*
X88547000Y-98303000D01*
X88783000Y-99159000D02*
X88701000Y-98861000D01*
X88877000Y-94523000D02*
X89244000Y-94767000D01*
X88976000Y-99417000D02*
X88783000Y-99159000D01*
X89244000Y-94767000D02*
X89682000Y-94854000D01*
X89250000Y-99587000D02*
X88976000Y-99417000D01*
X89560000Y-99646000D02*
X89250000Y-99587000D01*
X89682000Y-94854000D02*
X92482000Y-94854000D01*
X92482000Y-94854000D02*
X92809000Y-94919000D01*
X92809000Y-94919000D02*
X93092000Y-95108000D01*
X93092000Y-95108000D02*
X93281000Y-95391000D01*
X93281000Y-95391000D02*
X93366000Y-95818000D01*
X93283000Y-98704000D02*
X93646000Y-98704000D01*
X93646000Y-98704000D02*
X93646000Y-99646000D01*
X93646000Y-99646000D02*
X89560000Y-99646000D01*
%TO.C,SW14*%
X101584000Y-93591000D02*
X102521000Y-92654000D01*
X102521000Y-92654000D02*
X105268000Y-92654000D01*
X102521000Y-97446000D02*
X101500000Y-96425000D01*
X105168000Y-97446000D02*
X102521000Y-97446000D01*
X105268000Y-92654000D02*
X105671000Y-92734000D01*
X105671000Y-92734000D02*
X106013000Y-92963000D01*
X105730000Y-97551000D02*
X105168000Y-97446000D01*
X106013000Y-92963000D02*
X106546000Y-93496000D01*
X106209000Y-97850000D02*
X105730000Y-97551000D01*
X106546000Y-93496000D02*
X106546000Y-93718000D01*
X106546000Y-93718000D02*
X106633000Y-94156000D01*
X106547000Y-98303000D02*
X106209000Y-97850000D01*
X106633000Y-94156000D02*
X106877000Y-94523000D01*
X106701000Y-98861000D02*
X106547000Y-98303000D01*
X106783000Y-99159000D02*
X106701000Y-98861000D01*
X106877000Y-94523000D02*
X107244000Y-94767000D01*
X106976000Y-99417000D02*
X106783000Y-99159000D01*
X107244000Y-94767000D02*
X107682000Y-94854000D01*
X107250000Y-99587000D02*
X106976000Y-99417000D01*
X107560000Y-99646000D02*
X107250000Y-99587000D01*
X107682000Y-94854000D02*
X110482000Y-94854000D01*
X110482000Y-94854000D02*
X110809000Y-94919000D01*
X110809000Y-94919000D02*
X111092000Y-95108000D01*
X111092000Y-95108000D02*
X111281000Y-95391000D01*
X111281000Y-95391000D02*
X111366000Y-95818000D01*
X111283000Y-98704000D02*
X111646000Y-98704000D01*
X111646000Y-98704000D02*
X111646000Y-99646000D01*
X111646000Y-99646000D02*
X107560000Y-99646000D01*
%TO.C,SW36*%
X140784000Y-59591000D02*
X141721000Y-58654000D01*
X141721000Y-58654000D02*
X144468000Y-58654000D01*
X141721000Y-63446000D02*
X140700000Y-62425000D01*
X144368000Y-63446000D02*
X141721000Y-63446000D01*
X144468000Y-58654000D02*
X144871000Y-58734000D01*
X144871000Y-58734000D02*
X145213000Y-58963000D01*
X144930000Y-63551000D02*
X144368000Y-63446000D01*
X145213000Y-58963000D02*
X145746000Y-59496000D01*
X145409000Y-63850000D02*
X144930000Y-63551000D01*
X145746000Y-59496000D02*
X145746000Y-59718000D01*
X145746000Y-59718000D02*
X145833000Y-60156000D01*
X145747000Y-64303000D02*
X145409000Y-63850000D01*
X145833000Y-60156000D02*
X146077000Y-60523000D01*
X145901000Y-64861000D02*
X145747000Y-64303000D01*
X145983000Y-65159000D02*
X145901000Y-64861000D01*
X146077000Y-60523000D02*
X146444000Y-60767000D01*
X146176000Y-65417000D02*
X145983000Y-65159000D01*
X146444000Y-60767000D02*
X146882000Y-60854000D01*
X146450000Y-65587000D02*
X146176000Y-65417000D01*
X146760000Y-65646000D02*
X146450000Y-65587000D01*
X146882000Y-60854000D02*
X149682000Y-60854000D01*
X149682000Y-60854000D02*
X150009000Y-60919000D01*
X150009000Y-60919000D02*
X150292000Y-61108000D01*
X150292000Y-61108000D02*
X150481000Y-61391000D01*
X150481000Y-61391000D02*
X150566000Y-61818000D01*
X150483000Y-64704000D02*
X150846000Y-64704000D01*
X150846000Y-64704000D02*
X150846000Y-65646000D01*
X150846000Y-65646000D02*
X146760000Y-65646000D01*
%TO.C,SW15*%
X114354000Y-51354000D02*
X118440000Y-51354000D01*
X114354000Y-52296000D02*
X114354000Y-51354000D01*
X114717000Y-52296000D02*
X114354000Y-52296000D01*
X114719000Y-55609000D02*
X114634000Y-55182000D01*
X114908000Y-55892000D02*
X114719000Y-55609000D01*
X115191000Y-56081000D02*
X114908000Y-55892000D01*
X115518000Y-56146000D02*
X115191000Y-56081000D01*
X118318000Y-56146000D02*
X115518000Y-56146000D01*
X118440000Y-51354000D02*
X118750000Y-51413000D01*
X118750000Y-51413000D02*
X119024000Y-51583000D01*
X118756000Y-56233000D02*
X118318000Y-56146000D01*
X119024000Y-51583000D02*
X119217000Y-51841000D01*
X119123000Y-56477000D02*
X118756000Y-56233000D01*
X119217000Y-51841000D02*
X119299000Y-52139000D01*
X119299000Y-52139000D02*
X119453000Y-52697000D01*
X119367000Y-56844000D02*
X119123000Y-56477000D01*
X119453000Y-52697000D02*
X119791000Y-53150000D01*
X119454000Y-57282000D02*
X119367000Y-56844000D01*
X119454000Y-57504000D02*
X119454000Y-57282000D01*
X119791000Y-53150000D02*
X120270000Y-53449000D01*
X119987000Y-58037000D02*
X119454000Y-57504000D01*
X120270000Y-53449000D02*
X120832000Y-53554000D01*
X120329000Y-58266000D02*
X119987000Y-58037000D01*
X120732000Y-58346000D02*
X120329000Y-58266000D01*
X120832000Y-53554000D02*
X123479000Y-53554000D01*
X123479000Y-53554000D02*
X124500000Y-54575000D01*
X123479000Y-58346000D02*
X120732000Y-58346000D01*
X124416000Y-57409000D02*
X123479000Y-58346000D01*
%TO.C,SW9*%
X83584000Y-76591000D02*
X84521000Y-75654000D01*
X84521000Y-75654000D02*
X87268000Y-75654000D01*
X84521000Y-80446000D02*
X83500000Y-79425000D01*
X87168000Y-80446000D02*
X84521000Y-80446000D01*
X87268000Y-75654000D02*
X87671000Y-75734000D01*
X87671000Y-75734000D02*
X88013000Y-75963000D01*
X87730000Y-80551000D02*
X87168000Y-80446000D01*
X88013000Y-75963000D02*
X88546000Y-76496000D01*
X88209000Y-80850000D02*
X87730000Y-80551000D01*
X88546000Y-76496000D02*
X88546000Y-76718000D01*
X88546000Y-76718000D02*
X88633000Y-77156000D01*
X88547000Y-81303000D02*
X88209000Y-80850000D01*
X88633000Y-77156000D02*
X88877000Y-77523000D01*
X88701000Y-81861000D02*
X88547000Y-81303000D01*
X88783000Y-82159000D02*
X88701000Y-81861000D01*
X88877000Y-77523000D02*
X89244000Y-77767000D01*
X88976000Y-82417000D02*
X88783000Y-82159000D01*
X89244000Y-77767000D02*
X89682000Y-77854000D01*
X89250000Y-82587000D02*
X88976000Y-82417000D01*
X89560000Y-82646000D02*
X89250000Y-82587000D01*
X89682000Y-77854000D02*
X92482000Y-77854000D01*
X92482000Y-77854000D02*
X92809000Y-77919000D01*
X92809000Y-77919000D02*
X93092000Y-78108000D01*
X93092000Y-78108000D02*
X93281000Y-78391000D01*
X93281000Y-78391000D02*
X93366000Y-78818000D01*
X93283000Y-81704000D02*
X93646000Y-81704000D01*
X93646000Y-81704000D02*
X93646000Y-82646000D01*
X93646000Y-82646000D02*
X89560000Y-82646000D01*
%TO.C,SW27*%
X171553998Y-51354000D02*
X175639998Y-51354000D01*
X171553998Y-52296000D02*
X171553998Y-51354000D01*
X171916998Y-52296000D02*
X171553998Y-52296000D01*
X171918998Y-55609000D02*
X171833998Y-55182000D01*
X172107998Y-55892000D02*
X171918998Y-55609000D01*
X172390998Y-56081000D02*
X172107998Y-55892000D01*
X172717998Y-56146000D02*
X172390998Y-56081000D01*
X175517998Y-56146000D02*
X172717998Y-56146000D01*
X175639998Y-51354000D02*
X175949998Y-51413000D01*
X175949998Y-51413000D02*
X176223998Y-51583000D01*
X175955998Y-56233000D02*
X175517998Y-56146000D01*
X176223998Y-51583000D02*
X176416998Y-51841000D01*
X176322998Y-56477000D02*
X175955998Y-56233000D01*
X176416998Y-51841000D02*
X176498998Y-52139000D01*
X176498998Y-52139000D02*
X176652998Y-52697000D01*
X176566998Y-56844000D02*
X176322998Y-56477000D01*
X176652998Y-52697000D02*
X176990998Y-53150000D01*
X176653998Y-57282000D02*
X176566998Y-56844000D01*
X176653998Y-57504000D02*
X176653998Y-57282000D01*
X176990998Y-53150000D02*
X177469998Y-53449000D01*
X177186998Y-58037000D02*
X176653998Y-57504000D01*
X177469998Y-53449000D02*
X178031998Y-53554000D01*
X177528998Y-58266000D02*
X177186998Y-58037000D01*
X177931998Y-58346000D02*
X177528998Y-58266000D01*
X178031998Y-53554000D02*
X180678998Y-53554000D01*
X180678998Y-53554000D02*
X181699998Y-54575000D01*
X180678998Y-58346000D02*
X177931998Y-58346000D01*
X181615998Y-57409000D02*
X180678998Y-58346000D01*
%TO.C,SW18*%
X119584000Y-93591000D02*
X120521000Y-92654000D01*
X120521000Y-92654000D02*
X123268000Y-92654000D01*
X120521000Y-97446000D02*
X119500000Y-96425000D01*
X123168000Y-97446000D02*
X120521000Y-97446000D01*
X123268000Y-92654000D02*
X123671000Y-92734000D01*
X123671000Y-92734000D02*
X124013000Y-92963000D01*
X123730000Y-97551000D02*
X123168000Y-97446000D01*
X124013000Y-92963000D02*
X124546000Y-93496000D01*
X124209000Y-97850000D02*
X123730000Y-97551000D01*
X124546000Y-93496000D02*
X124546000Y-93718000D01*
X124546000Y-93718000D02*
X124633000Y-94156000D01*
X124547000Y-98303000D02*
X124209000Y-97850000D01*
X124633000Y-94156000D02*
X124877000Y-94523000D01*
X124701000Y-98861000D02*
X124547000Y-98303000D01*
X124783000Y-99159000D02*
X124701000Y-98861000D01*
X124877000Y-94523000D02*
X125244000Y-94767000D01*
X124976000Y-99417000D02*
X124783000Y-99159000D01*
X125244000Y-94767000D02*
X125682000Y-94854000D01*
X125250000Y-99587000D02*
X124976000Y-99417000D01*
X125560000Y-99646000D02*
X125250000Y-99587000D01*
X125682000Y-94854000D02*
X128482000Y-94854000D01*
X128482000Y-94854000D02*
X128809000Y-94919000D01*
X128809000Y-94919000D02*
X129092000Y-95108000D01*
X129092000Y-95108000D02*
X129281000Y-95391000D01*
X129281000Y-95391000D02*
X129366000Y-95818000D01*
X129283000Y-98704000D02*
X129646000Y-98704000D01*
X129646000Y-98704000D02*
X129646000Y-99646000D01*
X129646000Y-99646000D02*
X125560000Y-99646000D01*
%TO.C,SW38*%
X140784000Y-93591000D02*
X141721000Y-92654000D01*
X141721000Y-92654000D02*
X144468000Y-92654000D01*
X141721000Y-97446000D02*
X140700000Y-96425000D01*
X144368000Y-97446000D02*
X141721000Y-97446000D01*
X144468000Y-92654000D02*
X144871000Y-92734000D01*
X144871000Y-92734000D02*
X145213000Y-92963000D01*
X144930000Y-97551000D02*
X144368000Y-97446000D01*
X145213000Y-92963000D02*
X145746000Y-93496000D01*
X145409000Y-97850000D02*
X144930000Y-97551000D01*
X145746000Y-93496000D02*
X145746000Y-93718000D01*
X145746000Y-93718000D02*
X145833000Y-94156000D01*
X145747000Y-98303000D02*
X145409000Y-97850000D01*
X145833000Y-94156000D02*
X146077000Y-94523000D01*
X145901000Y-98861000D02*
X145747000Y-98303000D01*
X145983000Y-99159000D02*
X145901000Y-98861000D01*
X146077000Y-94523000D02*
X146444000Y-94767000D01*
X146176000Y-99417000D02*
X145983000Y-99159000D01*
X146444000Y-94767000D02*
X146882000Y-94854000D01*
X146450000Y-99587000D02*
X146176000Y-99417000D01*
X146760000Y-99646000D02*
X146450000Y-99587000D01*
X146882000Y-94854000D02*
X149682000Y-94854000D01*
X149682000Y-94854000D02*
X150009000Y-94919000D01*
X150009000Y-94919000D02*
X150292000Y-95108000D01*
X150292000Y-95108000D02*
X150481000Y-95391000D01*
X150481000Y-95391000D02*
X150566000Y-95818000D01*
X150483000Y-98704000D02*
X150846000Y-98704000D01*
X150846000Y-98704000D02*
X150846000Y-99646000D01*
X150846000Y-99646000D02*
X146760000Y-99646000D01*
%TO.C,SW17*%
X119584000Y-76591000D02*
X120521000Y-75654000D01*
X120521000Y-75654000D02*
X123268000Y-75654000D01*
X120521000Y-80446000D02*
X119500000Y-79425000D01*
X123168000Y-80446000D02*
X120521000Y-80446000D01*
X123268000Y-75654000D02*
X123671000Y-75734000D01*
X123671000Y-75734000D02*
X124013000Y-75963000D01*
X123730000Y-80551000D02*
X123168000Y-80446000D01*
X124013000Y-75963000D02*
X124546000Y-76496000D01*
X124209000Y-80850000D02*
X123730000Y-80551000D01*
X124546000Y-76496000D02*
X124546000Y-76718000D01*
X124546000Y-76718000D02*
X124633000Y-77156000D01*
X124547000Y-81303000D02*
X124209000Y-80850000D01*
X124633000Y-77156000D02*
X124877000Y-77523000D01*
X124701000Y-81861000D02*
X124547000Y-81303000D01*
X124783000Y-82159000D02*
X124701000Y-81861000D01*
X124877000Y-77523000D02*
X125244000Y-77767000D01*
X124976000Y-82417000D02*
X124783000Y-82159000D01*
X125244000Y-77767000D02*
X125682000Y-77854000D01*
X125250000Y-82587000D02*
X124976000Y-82417000D01*
X125560000Y-82646000D02*
X125250000Y-82587000D01*
X125682000Y-77854000D02*
X128482000Y-77854000D01*
X128482000Y-77854000D02*
X128809000Y-77919000D01*
X128809000Y-77919000D02*
X129092000Y-78108000D01*
X129092000Y-78108000D02*
X129281000Y-78391000D01*
X129281000Y-78391000D02*
X129366000Y-78818000D01*
X129283000Y-81704000D02*
X129646000Y-81704000D01*
X129646000Y-81704000D02*
X129646000Y-82646000D01*
X129646000Y-82646000D02*
X125560000Y-82646000D01*
%TO.C,SW4*%
X60354000Y-51354000D02*
X64440000Y-51354000D01*
X60354000Y-52296000D02*
X60354000Y-51354000D01*
X60717000Y-52296000D02*
X60354000Y-52296000D01*
X60719000Y-55609000D02*
X60634000Y-55182000D01*
X60908000Y-55892000D02*
X60719000Y-55609000D01*
X61191000Y-56081000D02*
X60908000Y-55892000D01*
X61518000Y-56146000D02*
X61191000Y-56081000D01*
X64318000Y-56146000D02*
X61518000Y-56146000D01*
X64440000Y-51354000D02*
X64750000Y-51413000D01*
X64750000Y-51413000D02*
X65024000Y-51583000D01*
X64756000Y-56233000D02*
X64318000Y-56146000D01*
X65024000Y-51583000D02*
X65217000Y-51841000D01*
X65123000Y-56477000D02*
X64756000Y-56233000D01*
X65217000Y-51841000D02*
X65299000Y-52139000D01*
X65299000Y-52139000D02*
X65453000Y-52697000D01*
X65367000Y-56844000D02*
X65123000Y-56477000D01*
X65453000Y-52697000D02*
X65791000Y-53150000D01*
X65454000Y-57282000D02*
X65367000Y-56844000D01*
X65454000Y-57504000D02*
X65454000Y-57282000D01*
X65791000Y-53150000D02*
X66270000Y-53449000D01*
X65987000Y-58037000D02*
X65454000Y-57504000D01*
X66270000Y-53449000D02*
X66832000Y-53554000D01*
X66329000Y-58266000D02*
X65987000Y-58037000D01*
X66732000Y-58346000D02*
X66329000Y-58266000D01*
X66832000Y-53554000D02*
X69479000Y-53554000D01*
X69479000Y-53554000D02*
X70500000Y-54575000D01*
X69479000Y-58346000D02*
X66732000Y-58346000D01*
X70416000Y-57409000D02*
X69479000Y-58346000D01*
%TO.C,SW7*%
X78354000Y-51354000D02*
X82440000Y-51354000D01*
X78354000Y-52296000D02*
X78354000Y-51354000D01*
X78717000Y-52296000D02*
X78354000Y-52296000D01*
X78719000Y-55609000D02*
X78634000Y-55182000D01*
X78908000Y-55892000D02*
X78719000Y-55609000D01*
X79191000Y-56081000D02*
X78908000Y-55892000D01*
X79518000Y-56146000D02*
X79191000Y-56081000D01*
X82318000Y-56146000D02*
X79518000Y-56146000D01*
X82440000Y-51354000D02*
X82750000Y-51413000D01*
X82750000Y-51413000D02*
X83024000Y-51583000D01*
X82756000Y-56233000D02*
X82318000Y-56146000D01*
X83024000Y-51583000D02*
X83217000Y-51841000D01*
X83123000Y-56477000D02*
X82756000Y-56233000D01*
X83217000Y-51841000D02*
X83299000Y-52139000D01*
X83299000Y-52139000D02*
X83453000Y-52697000D01*
X83367000Y-56844000D02*
X83123000Y-56477000D01*
X83453000Y-52697000D02*
X83791000Y-53150000D01*
X83454000Y-57282000D02*
X83367000Y-56844000D01*
X83454000Y-57504000D02*
X83454000Y-57282000D01*
X83791000Y-53150000D02*
X84270000Y-53449000D01*
X83987000Y-58037000D02*
X83454000Y-57504000D01*
X84270000Y-53449000D02*
X84832000Y-53554000D01*
X84329000Y-58266000D02*
X83987000Y-58037000D01*
X84732000Y-58346000D02*
X84329000Y-58266000D01*
X84832000Y-53554000D02*
X87479000Y-53554000D01*
X87479000Y-53554000D02*
X88500000Y-54575000D01*
X87479000Y-58346000D02*
X84732000Y-58346000D01*
X88416000Y-57409000D02*
X87479000Y-58346000D01*
%TO.C,SW23*%
X212784000Y-76591000D02*
X213721000Y-75654000D01*
X213721000Y-75654000D02*
X216468000Y-75654000D01*
X213721000Y-80446000D02*
X212700000Y-79425000D01*
X216368000Y-80446000D02*
X213721000Y-80446000D01*
X216468000Y-75654000D02*
X216871000Y-75734000D01*
X216871000Y-75734000D02*
X217213000Y-75963000D01*
X216930000Y-80551000D02*
X216368000Y-80446000D01*
X217213000Y-75963000D02*
X217746000Y-76496000D01*
X217409000Y-80850000D02*
X216930000Y-80551000D01*
X217746000Y-76496000D02*
X217746000Y-76718000D01*
X217746000Y-76718000D02*
X217833000Y-77156000D01*
X217747000Y-81303000D02*
X217409000Y-80850000D01*
X217833000Y-77156000D02*
X218077000Y-77523000D01*
X217901000Y-81861000D02*
X217747000Y-81303000D01*
X217983000Y-82159000D02*
X217901000Y-81861000D01*
X218077000Y-77523000D02*
X218444000Y-77767000D01*
X218176000Y-82417000D02*
X217983000Y-82159000D01*
X218444000Y-77767000D02*
X218882000Y-77854000D01*
X218450000Y-82587000D02*
X218176000Y-82417000D01*
X218760000Y-82646000D02*
X218450000Y-82587000D01*
X218882000Y-77854000D02*
X221682000Y-77854000D01*
X221682000Y-77854000D02*
X222009000Y-77919000D01*
X222009000Y-77919000D02*
X222292000Y-78108000D01*
X222292000Y-78108000D02*
X222481000Y-78391000D01*
X222481000Y-78391000D02*
X222566000Y-78818000D01*
X222483000Y-81704000D02*
X222846000Y-81704000D01*
X222846000Y-81704000D02*
X222846000Y-82646000D01*
X222846000Y-82646000D02*
X218760000Y-82646000D01*
%TO.C,SW16*%
X119584000Y-59591000D02*
X120521000Y-58654000D01*
X120521000Y-58654000D02*
X123268000Y-58654000D01*
X120521000Y-63446000D02*
X119500000Y-62425000D01*
X123168000Y-63446000D02*
X120521000Y-63446000D01*
X123268000Y-58654000D02*
X123671000Y-58734000D01*
X123671000Y-58734000D02*
X124013000Y-58963000D01*
X123730000Y-63551000D02*
X123168000Y-63446000D01*
X124013000Y-58963000D02*
X124546000Y-59496000D01*
X124209000Y-63850000D02*
X123730000Y-63551000D01*
X124546000Y-59496000D02*
X124546000Y-59718000D01*
X124546000Y-59718000D02*
X124633000Y-60156000D01*
X124547000Y-64303000D02*
X124209000Y-63850000D01*
X124633000Y-60156000D02*
X124877000Y-60523000D01*
X124701000Y-64861000D02*
X124547000Y-64303000D01*
X124783000Y-65159000D02*
X124701000Y-64861000D01*
X124877000Y-60523000D02*
X125244000Y-60767000D01*
X124976000Y-65417000D02*
X124783000Y-65159000D01*
X125244000Y-60767000D02*
X125682000Y-60854000D01*
X125250000Y-65587000D02*
X124976000Y-65417000D01*
X125560000Y-65646000D02*
X125250000Y-65587000D01*
X125682000Y-60854000D02*
X128482000Y-60854000D01*
X128482000Y-60854000D02*
X128809000Y-60919000D01*
X128809000Y-60919000D02*
X129092000Y-61108000D01*
X129092000Y-61108000D02*
X129281000Y-61391000D01*
X129281000Y-61391000D02*
X129366000Y-61818000D01*
X129283000Y-64704000D02*
X129646000Y-64704000D01*
X129646000Y-64704000D02*
X129646000Y-65646000D01*
X129646000Y-65646000D02*
X125560000Y-65646000D01*
%TO.C,SW12*%
X101584000Y-59591000D02*
X102521000Y-58654000D01*
X102521000Y-58654000D02*
X105268000Y-58654000D01*
X102521000Y-63446000D02*
X101500000Y-62425000D01*
X105168000Y-63446000D02*
X102521000Y-63446000D01*
X105268000Y-58654000D02*
X105671000Y-58734000D01*
X105671000Y-58734000D02*
X106013000Y-58963000D01*
X105730000Y-63551000D02*
X105168000Y-63446000D01*
X106013000Y-58963000D02*
X106546000Y-59496000D01*
X106209000Y-63850000D02*
X105730000Y-63551000D01*
X106546000Y-59496000D02*
X106546000Y-59718000D01*
X106546000Y-59718000D02*
X106633000Y-60156000D01*
X106547000Y-64303000D02*
X106209000Y-63850000D01*
X106633000Y-60156000D02*
X106877000Y-60523000D01*
X106701000Y-64861000D02*
X106547000Y-64303000D01*
X106783000Y-65159000D02*
X106701000Y-64861000D01*
X106877000Y-60523000D02*
X107244000Y-60767000D01*
X106976000Y-65417000D02*
X106783000Y-65159000D01*
X107244000Y-60767000D02*
X107682000Y-60854000D01*
X107250000Y-65587000D02*
X106976000Y-65417000D01*
X107560000Y-65646000D02*
X107250000Y-65587000D01*
X107682000Y-60854000D02*
X110482000Y-60854000D01*
X110482000Y-60854000D02*
X110809000Y-60919000D01*
X110809000Y-60919000D02*
X111092000Y-61108000D01*
X111092000Y-61108000D02*
X111281000Y-61391000D01*
X111281000Y-61391000D02*
X111366000Y-61818000D01*
X111283000Y-64704000D02*
X111646000Y-64704000D01*
X111646000Y-64704000D02*
X111646000Y-65646000D01*
X111646000Y-65646000D02*
X107560000Y-65646000D01*
%TO.C,SW34*%
X158784000Y-93591000D02*
X159721000Y-92654000D01*
X159721000Y-92654000D02*
X162468000Y-92654000D01*
X159721000Y-97446000D02*
X158700000Y-96425000D01*
X162368000Y-97446000D02*
X159721000Y-97446000D01*
X162468000Y-92654000D02*
X162871000Y-92734000D01*
X162871000Y-92734000D02*
X163213000Y-92963000D01*
X162930000Y-97551000D02*
X162368000Y-97446000D01*
X163213000Y-92963000D02*
X163746000Y-93496000D01*
X163409000Y-97850000D02*
X162930000Y-97551000D01*
X163746000Y-93496000D02*
X163746000Y-93718000D01*
X163746000Y-93718000D02*
X163833000Y-94156000D01*
X163747000Y-98303000D02*
X163409000Y-97850000D01*
X163833000Y-94156000D02*
X164077000Y-94523000D01*
X163901000Y-98861000D02*
X163747000Y-98303000D01*
X163983000Y-99159000D02*
X163901000Y-98861000D01*
X164077000Y-94523000D02*
X164444000Y-94767000D01*
X164176000Y-99417000D02*
X163983000Y-99159000D01*
X164444000Y-94767000D02*
X164882000Y-94854000D01*
X164450000Y-99587000D02*
X164176000Y-99417000D01*
X164760000Y-99646000D02*
X164450000Y-99587000D01*
X164882000Y-94854000D02*
X167682000Y-94854000D01*
X167682000Y-94854000D02*
X168009000Y-94919000D01*
X168009000Y-94919000D02*
X168292000Y-95108000D01*
X168292000Y-95108000D02*
X168481000Y-95391000D01*
X168481000Y-95391000D02*
X168566000Y-95818000D01*
X168483000Y-98704000D02*
X168846000Y-98704000D01*
X168846000Y-98704000D02*
X168846000Y-99646000D01*
X168846000Y-99646000D02*
X164760000Y-99646000D01*
%TO.C,SW35*%
X135553998Y-51354000D02*
X139639998Y-51354000D01*
X135553998Y-52296000D02*
X135553998Y-51354000D01*
X135916998Y-52296000D02*
X135553998Y-52296000D01*
X135918998Y-55609000D02*
X135833998Y-55182000D01*
X136107998Y-55892000D02*
X135918998Y-55609000D01*
X136390998Y-56081000D02*
X136107998Y-55892000D01*
X136717998Y-56146000D02*
X136390998Y-56081000D01*
X139517998Y-56146000D02*
X136717998Y-56146000D01*
X139639998Y-51354000D02*
X139949998Y-51413000D01*
X139949998Y-51413000D02*
X140223998Y-51583000D01*
X139955998Y-56233000D02*
X139517998Y-56146000D01*
X140223998Y-51583000D02*
X140416998Y-51841000D01*
X140322998Y-56477000D02*
X139955998Y-56233000D01*
X140416998Y-51841000D02*
X140498998Y-52139000D01*
X140498998Y-52139000D02*
X140652998Y-52697000D01*
X140566998Y-56844000D02*
X140322998Y-56477000D01*
X140652998Y-52697000D02*
X140990998Y-53150000D01*
X140653998Y-57282000D02*
X140566998Y-56844000D01*
X140653998Y-57504000D02*
X140653998Y-57282000D01*
X140990998Y-53150000D02*
X141469998Y-53449000D01*
X141186998Y-58037000D02*
X140653998Y-57504000D01*
X141469998Y-53449000D02*
X142031998Y-53554000D01*
X141528998Y-58266000D02*
X141186998Y-58037000D01*
X141931998Y-58346000D02*
X141528998Y-58266000D01*
X142031998Y-53554000D02*
X144678998Y-53554000D01*
X144678998Y-53554000D02*
X145699998Y-54575000D01*
X144678998Y-58346000D02*
X141931998Y-58346000D01*
X145615998Y-57409000D02*
X144678998Y-58346000D01*
%TO.C,SW6*%
X65584000Y-76591000D02*
X66521000Y-75654000D01*
X66521000Y-75654000D02*
X69268000Y-75654000D01*
X66521000Y-80446000D02*
X65500000Y-79425000D01*
X69168000Y-80446000D02*
X66521000Y-80446000D01*
X69268000Y-75654000D02*
X69671000Y-75734000D01*
X69671000Y-75734000D02*
X70013000Y-75963000D01*
X69730000Y-80551000D02*
X69168000Y-80446000D01*
X70013000Y-75963000D02*
X70546000Y-76496000D01*
X70209000Y-80850000D02*
X69730000Y-80551000D01*
X70546000Y-76496000D02*
X70546000Y-76718000D01*
X70546000Y-76718000D02*
X70633000Y-77156000D01*
X70547000Y-81303000D02*
X70209000Y-80850000D01*
X70633000Y-77156000D02*
X70877000Y-77523000D01*
X70701000Y-81861000D02*
X70547000Y-81303000D01*
X70783000Y-82159000D02*
X70701000Y-81861000D01*
X70877000Y-77523000D02*
X71244000Y-77767000D01*
X70976000Y-82417000D02*
X70783000Y-82159000D01*
X71244000Y-77767000D02*
X71682000Y-77854000D01*
X71250000Y-82587000D02*
X70976000Y-82417000D01*
X71560000Y-82646000D02*
X71250000Y-82587000D01*
X71682000Y-77854000D02*
X74482000Y-77854000D01*
X74482000Y-77854000D02*
X74809000Y-77919000D01*
X74809000Y-77919000D02*
X75092000Y-78108000D01*
X75092000Y-78108000D02*
X75281000Y-78391000D01*
X75281000Y-78391000D02*
X75366000Y-78818000D01*
X75283000Y-81704000D02*
X75646000Y-81704000D01*
X75646000Y-81704000D02*
X75646000Y-82646000D01*
X75646000Y-82646000D02*
X71560000Y-82646000D01*
%TO.C,SW37*%
X140784000Y-76591000D02*
X141721000Y-75654000D01*
X141721000Y-75654000D02*
X144468000Y-75654000D01*
X141721000Y-80446000D02*
X140700000Y-79425000D01*
X144368000Y-80446000D02*
X141721000Y-80446000D01*
X144468000Y-75654000D02*
X144871000Y-75734000D01*
X144871000Y-75734000D02*
X145213000Y-75963000D01*
X144930000Y-80551000D02*
X144368000Y-80446000D01*
X145213000Y-75963000D02*
X145746000Y-76496000D01*
X145409000Y-80850000D02*
X144930000Y-80551000D01*
X145746000Y-76496000D02*
X145746000Y-76718000D01*
X145746000Y-76718000D02*
X145833000Y-77156000D01*
X145747000Y-81303000D02*
X145409000Y-80850000D01*
X145833000Y-77156000D02*
X146077000Y-77523000D01*
X145901000Y-81861000D02*
X145747000Y-81303000D01*
X145983000Y-82159000D02*
X145901000Y-81861000D01*
X146077000Y-77523000D02*
X146444000Y-77767000D01*
X146176000Y-82417000D02*
X145983000Y-82159000D01*
X146444000Y-77767000D02*
X146882000Y-77854000D01*
X146450000Y-82587000D02*
X146176000Y-82417000D01*
X146760000Y-82646000D02*
X146450000Y-82587000D01*
X146882000Y-77854000D02*
X149682000Y-77854000D01*
X149682000Y-77854000D02*
X150009000Y-77919000D01*
X150009000Y-77919000D02*
X150292000Y-78108000D01*
X150292000Y-78108000D02*
X150481000Y-78391000D01*
X150481000Y-78391000D02*
X150566000Y-78818000D01*
X150483000Y-81704000D02*
X150846000Y-81704000D01*
X150846000Y-81704000D02*
X150846000Y-82646000D01*
X150846000Y-82646000D02*
X146760000Y-82646000D01*
%TO.C,SW28*%
X176784000Y-59591000D02*
X177721000Y-58654000D01*
X177721000Y-58654000D02*
X180468000Y-58654000D01*
X177721000Y-63446000D02*
X176700000Y-62425000D01*
X180368000Y-63446000D02*
X177721000Y-63446000D01*
X180468000Y-58654000D02*
X180871000Y-58734000D01*
X180871000Y-58734000D02*
X181213000Y-58963000D01*
X180930000Y-63551000D02*
X180368000Y-63446000D01*
X181213000Y-58963000D02*
X181746000Y-59496000D01*
X181409000Y-63850000D02*
X180930000Y-63551000D01*
X181746000Y-59496000D02*
X181746000Y-59718000D01*
X181746000Y-59718000D02*
X181833000Y-60156000D01*
X181747000Y-64303000D02*
X181409000Y-63850000D01*
X181833000Y-60156000D02*
X182077000Y-60523000D01*
X181901000Y-64861000D02*
X181747000Y-64303000D01*
X181983000Y-65159000D02*
X181901000Y-64861000D01*
X182077000Y-60523000D02*
X182444000Y-60767000D01*
X182176000Y-65417000D02*
X181983000Y-65159000D01*
X182444000Y-60767000D02*
X182882000Y-60854000D01*
X182450000Y-65587000D02*
X182176000Y-65417000D01*
X182760000Y-65646000D02*
X182450000Y-65587000D01*
X182882000Y-60854000D02*
X185682000Y-60854000D01*
X185682000Y-60854000D02*
X186009000Y-60919000D01*
X186009000Y-60919000D02*
X186292000Y-61108000D01*
X186292000Y-61108000D02*
X186481000Y-61391000D01*
X186481000Y-61391000D02*
X186566000Y-61818000D01*
X186483000Y-64704000D02*
X186846000Y-64704000D01*
X186846000Y-64704000D02*
X186846000Y-65646000D01*
X186846000Y-65646000D02*
X182760000Y-65646000D01*
%TO.C,SW30*%
X176784000Y-93591000D02*
X177721000Y-92654000D01*
X177721000Y-92654000D02*
X180468000Y-92654000D01*
X177721000Y-97446000D02*
X176700000Y-96425000D01*
X180368000Y-97446000D02*
X177721000Y-97446000D01*
X180468000Y-92654000D02*
X180871000Y-92734000D01*
X180871000Y-92734000D02*
X181213000Y-92963000D01*
X180930000Y-97551000D02*
X180368000Y-97446000D01*
X181213000Y-92963000D02*
X181746000Y-93496000D01*
X181409000Y-97850000D02*
X180930000Y-97551000D01*
X181746000Y-93496000D02*
X181746000Y-93718000D01*
X181746000Y-93718000D02*
X181833000Y-94156000D01*
X181747000Y-98303000D02*
X181409000Y-97850000D01*
X181833000Y-94156000D02*
X182077000Y-94523000D01*
X181901000Y-98861000D02*
X181747000Y-98303000D01*
X181983000Y-99159000D02*
X181901000Y-98861000D01*
X182077000Y-94523000D02*
X182444000Y-94767000D01*
X182176000Y-99417000D02*
X181983000Y-99159000D01*
X182444000Y-94767000D02*
X182882000Y-94854000D01*
X182450000Y-99587000D02*
X182176000Y-99417000D01*
X182760000Y-99646000D02*
X182450000Y-99587000D01*
X182882000Y-94854000D02*
X185682000Y-94854000D01*
X185682000Y-94854000D02*
X186009000Y-94919000D01*
X186009000Y-94919000D02*
X186292000Y-95108000D01*
X186292000Y-95108000D02*
X186481000Y-95391000D01*
X186481000Y-95391000D02*
X186566000Y-95818000D01*
X186483000Y-98704000D02*
X186846000Y-98704000D01*
X186846000Y-98704000D02*
X186846000Y-99646000D01*
X186846000Y-99646000D02*
X182760000Y-99646000D01*
%TO.C,SW25*%
X194784000Y-59591000D02*
X195721000Y-58654000D01*
X195721000Y-58654000D02*
X198468000Y-58654000D01*
X195721000Y-63446000D02*
X194700000Y-62425000D01*
X198368000Y-63446000D02*
X195721000Y-63446000D01*
X198468000Y-58654000D02*
X198871000Y-58734000D01*
X198871000Y-58734000D02*
X199213000Y-58963000D01*
X198930000Y-63551000D02*
X198368000Y-63446000D01*
X199213000Y-58963000D02*
X199746000Y-59496000D01*
X199409000Y-63850000D02*
X198930000Y-63551000D01*
X199746000Y-59496000D02*
X199746000Y-59718000D01*
X199746000Y-59718000D02*
X199833000Y-60156000D01*
X199747000Y-64303000D02*
X199409000Y-63850000D01*
X199833000Y-60156000D02*
X200077000Y-60523000D01*
X199901000Y-64861000D02*
X199747000Y-64303000D01*
X199983000Y-65159000D02*
X199901000Y-64861000D01*
X200077000Y-60523000D02*
X200444000Y-60767000D01*
X200176000Y-65417000D02*
X199983000Y-65159000D01*
X200444000Y-60767000D02*
X200882000Y-60854000D01*
X200450000Y-65587000D02*
X200176000Y-65417000D01*
X200760000Y-65646000D02*
X200450000Y-65587000D01*
X200882000Y-60854000D02*
X203682000Y-60854000D01*
X203682000Y-60854000D02*
X204009000Y-60919000D01*
X204009000Y-60919000D02*
X204292000Y-61108000D01*
X204292000Y-61108000D02*
X204481000Y-61391000D01*
X204481000Y-61391000D02*
X204566000Y-61818000D01*
X204483000Y-64704000D02*
X204846000Y-64704000D01*
X204846000Y-64704000D02*
X204846000Y-65646000D01*
X204846000Y-65646000D02*
X200760000Y-65646000D01*
%TO.C,SW29*%
X176784000Y-76591000D02*
X177721000Y-75654000D01*
X177721000Y-75654000D02*
X180468000Y-75654000D01*
X177721000Y-80446000D02*
X176700000Y-79425000D01*
X180368000Y-80446000D02*
X177721000Y-80446000D01*
X180468000Y-75654000D02*
X180871000Y-75734000D01*
X180871000Y-75734000D02*
X181213000Y-75963000D01*
X180930000Y-80551000D02*
X180368000Y-80446000D01*
X181213000Y-75963000D02*
X181746000Y-76496000D01*
X181409000Y-80850000D02*
X180930000Y-80551000D01*
X181746000Y-76496000D02*
X181746000Y-76718000D01*
X181746000Y-76718000D02*
X181833000Y-77156000D01*
X181747000Y-81303000D02*
X181409000Y-80850000D01*
X181833000Y-77156000D02*
X182077000Y-77523000D01*
X181901000Y-81861000D02*
X181747000Y-81303000D01*
X181983000Y-82159000D02*
X181901000Y-81861000D01*
X182077000Y-77523000D02*
X182444000Y-77767000D01*
X182176000Y-82417000D02*
X181983000Y-82159000D01*
X182444000Y-77767000D02*
X182882000Y-77854000D01*
X182450000Y-82587000D02*
X182176000Y-82417000D01*
X182760000Y-82646000D02*
X182450000Y-82587000D01*
X182882000Y-77854000D02*
X185682000Y-77854000D01*
X185682000Y-77854000D02*
X186009000Y-77919000D01*
X186009000Y-77919000D02*
X186292000Y-78108000D01*
X186292000Y-78108000D02*
X186481000Y-78391000D01*
X186481000Y-78391000D02*
X186566000Y-78818000D01*
X186483000Y-81704000D02*
X186846000Y-81704000D01*
X186846000Y-81704000D02*
X186846000Y-82646000D01*
X186846000Y-82646000D02*
X182760000Y-82646000D01*
%TO.C,SW1*%
X42354000Y-51354000D02*
X46440000Y-51354000D01*
X42354000Y-52296000D02*
X42354000Y-51354000D01*
X42717000Y-52296000D02*
X42354000Y-52296000D01*
X42719000Y-55609000D02*
X42634000Y-55182000D01*
X42908000Y-55892000D02*
X42719000Y-55609000D01*
X43191000Y-56081000D02*
X42908000Y-55892000D01*
X43518000Y-56146000D02*
X43191000Y-56081000D01*
X46318000Y-56146000D02*
X43518000Y-56146000D01*
X46440000Y-51354000D02*
X46750000Y-51413000D01*
X46750000Y-51413000D02*
X47024000Y-51583000D01*
X46756000Y-56233000D02*
X46318000Y-56146000D01*
X47024000Y-51583000D02*
X47217000Y-51841000D01*
X47123000Y-56477000D02*
X46756000Y-56233000D01*
X47217000Y-51841000D02*
X47299000Y-52139000D01*
X47299000Y-52139000D02*
X47453000Y-52697000D01*
X47367000Y-56844000D02*
X47123000Y-56477000D01*
X47453000Y-52697000D02*
X47791000Y-53150000D01*
X47454000Y-57282000D02*
X47367000Y-56844000D01*
X47454000Y-57504000D02*
X47454000Y-57282000D01*
X47791000Y-53150000D02*
X48270000Y-53449000D01*
X47987000Y-58037000D02*
X47454000Y-57504000D01*
X48270000Y-53449000D02*
X48832000Y-53554000D01*
X48329000Y-58266000D02*
X47987000Y-58037000D01*
X48732000Y-58346000D02*
X48329000Y-58266000D01*
X48832000Y-53554000D02*
X51479000Y-53554000D01*
X51479000Y-53554000D02*
X52500000Y-54575000D01*
X51479000Y-58346000D02*
X48732000Y-58346000D01*
X52416000Y-57409000D02*
X51479000Y-58346000D01*
%TO.C,SW11*%
X96354000Y-51354000D02*
X100440000Y-51354000D01*
X96354000Y-52296000D02*
X96354000Y-51354000D01*
X96717000Y-52296000D02*
X96354000Y-52296000D01*
X96719000Y-55609000D02*
X96634000Y-55182000D01*
X96908000Y-55892000D02*
X96719000Y-55609000D01*
X97191000Y-56081000D02*
X96908000Y-55892000D01*
X97518000Y-56146000D02*
X97191000Y-56081000D01*
X100318000Y-56146000D02*
X97518000Y-56146000D01*
X100440000Y-51354000D02*
X100750000Y-51413000D01*
X100750000Y-51413000D02*
X101024000Y-51583000D01*
X100756000Y-56233000D02*
X100318000Y-56146000D01*
X101024000Y-51583000D02*
X101217000Y-51841000D01*
X101123000Y-56477000D02*
X100756000Y-56233000D01*
X101217000Y-51841000D02*
X101299000Y-52139000D01*
X101299000Y-52139000D02*
X101453000Y-52697000D01*
X101367000Y-56844000D02*
X101123000Y-56477000D01*
X101453000Y-52697000D02*
X101791000Y-53150000D01*
X101454000Y-57282000D02*
X101367000Y-56844000D01*
X101454000Y-57504000D02*
X101454000Y-57282000D01*
X101791000Y-53150000D02*
X102270000Y-53449000D01*
X101987000Y-58037000D02*
X101454000Y-57504000D01*
X102270000Y-53449000D02*
X102832000Y-53554000D01*
X102329000Y-58266000D02*
X101987000Y-58037000D01*
X102732000Y-58346000D02*
X102329000Y-58266000D01*
X102832000Y-53554000D02*
X105479000Y-53554000D01*
X105479000Y-53554000D02*
X106500000Y-54575000D01*
X105479000Y-58346000D02*
X102732000Y-58346000D01*
X106416000Y-57409000D02*
X105479000Y-58346000D01*
%TO.C,SW5*%
X65584000Y-59591000D02*
X66521000Y-58654000D01*
X66521000Y-58654000D02*
X69268000Y-58654000D01*
X66521000Y-63446000D02*
X65500000Y-62425000D01*
X69168000Y-63446000D02*
X66521000Y-63446000D01*
X69268000Y-58654000D02*
X69671000Y-58734000D01*
X69671000Y-58734000D02*
X70013000Y-58963000D01*
X69730000Y-63551000D02*
X69168000Y-63446000D01*
X70013000Y-58963000D02*
X70546000Y-59496000D01*
X70209000Y-63850000D02*
X69730000Y-63551000D01*
X70546000Y-59496000D02*
X70546000Y-59718000D01*
X70546000Y-59718000D02*
X70633000Y-60156000D01*
X70547000Y-64303000D02*
X70209000Y-63850000D01*
X70633000Y-60156000D02*
X70877000Y-60523000D01*
X70701000Y-64861000D02*
X70547000Y-64303000D01*
X70783000Y-65159000D02*
X70701000Y-64861000D01*
X70877000Y-60523000D02*
X71244000Y-60767000D01*
X70976000Y-65417000D02*
X70783000Y-65159000D01*
X71244000Y-60767000D02*
X71682000Y-60854000D01*
X71250000Y-65587000D02*
X70976000Y-65417000D01*
X71560000Y-65646000D02*
X71250000Y-65587000D01*
X71682000Y-60854000D02*
X74482000Y-60854000D01*
X74482000Y-60854000D02*
X74809000Y-60919000D01*
X74809000Y-60919000D02*
X75092000Y-61108000D01*
X75092000Y-61108000D02*
X75281000Y-61391000D01*
X75281000Y-61391000D02*
X75366000Y-61818000D01*
X75283000Y-64704000D02*
X75646000Y-64704000D01*
X75646000Y-64704000D02*
X75646000Y-65646000D01*
X75646000Y-65646000D02*
X71560000Y-65646000D01*
%TO.C,SW33*%
X158784000Y-76591000D02*
X159721000Y-75654000D01*
X159721000Y-75654000D02*
X162468000Y-75654000D01*
X159721000Y-80446000D02*
X158700000Y-79425000D01*
X162368000Y-80446000D02*
X159721000Y-80446000D01*
X162468000Y-75654000D02*
X162871000Y-75734000D01*
X162871000Y-75734000D02*
X163213000Y-75963000D01*
X162930000Y-80551000D02*
X162368000Y-80446000D01*
X163213000Y-75963000D02*
X163746000Y-76496000D01*
X163409000Y-80850000D02*
X162930000Y-80551000D01*
X163746000Y-76496000D02*
X163746000Y-76718000D01*
X163746000Y-76718000D02*
X163833000Y-77156000D01*
X163747000Y-81303000D02*
X163409000Y-80850000D01*
X163833000Y-77156000D02*
X164077000Y-77523000D01*
X163901000Y-81861000D02*
X163747000Y-81303000D01*
X163983000Y-82159000D02*
X163901000Y-81861000D01*
X164077000Y-77523000D02*
X164444000Y-77767000D01*
X164176000Y-82417000D02*
X163983000Y-82159000D01*
X164444000Y-77767000D02*
X164882000Y-77854000D01*
X164450000Y-82587000D02*
X164176000Y-82417000D01*
X164760000Y-82646000D02*
X164450000Y-82587000D01*
X164882000Y-77854000D02*
X167682000Y-77854000D01*
X167682000Y-77854000D02*
X168009000Y-77919000D01*
X168009000Y-77919000D02*
X168292000Y-78108000D01*
X168292000Y-78108000D02*
X168481000Y-78391000D01*
X168481000Y-78391000D02*
X168566000Y-78818000D01*
X168483000Y-81704000D02*
X168846000Y-81704000D01*
X168846000Y-81704000D02*
X168846000Y-82646000D01*
X168846000Y-82646000D02*
X164760000Y-82646000D01*
%TO.C,SW24*%
X189553998Y-51354000D02*
X193639998Y-51354000D01*
X189553998Y-52296000D02*
X189553998Y-51354000D01*
X189916998Y-52296000D02*
X189553998Y-52296000D01*
X189918998Y-55609000D02*
X189833998Y-55182000D01*
X190107998Y-55892000D02*
X189918998Y-55609000D01*
X190390998Y-56081000D02*
X190107998Y-55892000D01*
X190717998Y-56146000D02*
X190390998Y-56081000D01*
X193517998Y-56146000D02*
X190717998Y-56146000D01*
X193639998Y-51354000D02*
X193949998Y-51413000D01*
X193949998Y-51413000D02*
X194223998Y-51583000D01*
X193955998Y-56233000D02*
X193517998Y-56146000D01*
X194223998Y-51583000D02*
X194416998Y-51841000D01*
X194322998Y-56477000D02*
X193955998Y-56233000D01*
X194416998Y-51841000D02*
X194498998Y-52139000D01*
X194498998Y-52139000D02*
X194652998Y-52697000D01*
X194566998Y-56844000D02*
X194322998Y-56477000D01*
X194652998Y-52697000D02*
X194990998Y-53150000D01*
X194653998Y-57282000D02*
X194566998Y-56844000D01*
X194653998Y-57504000D02*
X194653998Y-57282000D01*
X194990998Y-53150000D02*
X195469998Y-53449000D01*
X195186998Y-58037000D02*
X194653998Y-57504000D01*
X195469998Y-53449000D02*
X196031998Y-53554000D01*
X195528998Y-58266000D02*
X195186998Y-58037000D01*
X195931998Y-58346000D02*
X195528998Y-58266000D01*
X196031998Y-53554000D02*
X198678998Y-53554000D01*
X198678998Y-53554000D02*
X199699998Y-54575000D01*
X198678998Y-58346000D02*
X195931998Y-58346000D01*
X199615998Y-57409000D02*
X198678998Y-58346000D01*
%TO.C,SW32*%
X158784000Y-59591000D02*
X159721000Y-58654000D01*
X159721000Y-58654000D02*
X162468000Y-58654000D01*
X159721000Y-63446000D02*
X158700000Y-62425000D01*
X162368000Y-63446000D02*
X159721000Y-63446000D01*
X162468000Y-58654000D02*
X162871000Y-58734000D01*
X162871000Y-58734000D02*
X163213000Y-58963000D01*
X162930000Y-63551000D02*
X162368000Y-63446000D01*
X163213000Y-58963000D02*
X163746000Y-59496000D01*
X163409000Y-63850000D02*
X162930000Y-63551000D01*
X163746000Y-59496000D02*
X163746000Y-59718000D01*
X163746000Y-59718000D02*
X163833000Y-60156000D01*
X163747000Y-64303000D02*
X163409000Y-63850000D01*
X163833000Y-60156000D02*
X164077000Y-60523000D01*
X163901000Y-64861000D02*
X163747000Y-64303000D01*
X163983000Y-65159000D02*
X163901000Y-64861000D01*
X164077000Y-60523000D02*
X164444000Y-60767000D01*
X164176000Y-65417000D02*
X163983000Y-65159000D01*
X164444000Y-60767000D02*
X164882000Y-60854000D01*
X164450000Y-65587000D02*
X164176000Y-65417000D01*
X164760000Y-65646000D02*
X164450000Y-65587000D01*
X164882000Y-60854000D02*
X167682000Y-60854000D01*
X167682000Y-60854000D02*
X168009000Y-60919000D01*
X168009000Y-60919000D02*
X168292000Y-61108000D01*
X168292000Y-61108000D02*
X168481000Y-61391000D01*
X168481000Y-61391000D02*
X168566000Y-61818000D01*
X168483000Y-64704000D02*
X168846000Y-64704000D01*
X168846000Y-64704000D02*
X168846000Y-65646000D01*
X168846000Y-65646000D02*
X164760000Y-65646000D01*
%TO.C,SW3*%
X47584000Y-76591000D02*
X48521000Y-75654000D01*
X48521000Y-75654000D02*
X51268000Y-75654000D01*
X48521000Y-80446000D02*
X47500000Y-79425000D01*
X51168000Y-80446000D02*
X48521000Y-80446000D01*
X51268000Y-75654000D02*
X51671000Y-75734000D01*
X51671000Y-75734000D02*
X52013000Y-75963000D01*
X51730000Y-80551000D02*
X51168000Y-80446000D01*
X52013000Y-75963000D02*
X52546000Y-76496000D01*
X52209000Y-80850000D02*
X51730000Y-80551000D01*
X52546000Y-76496000D02*
X52546000Y-76718000D01*
X52546000Y-76718000D02*
X52633000Y-77156000D01*
X52547000Y-81303000D02*
X52209000Y-80850000D01*
X52633000Y-77156000D02*
X52877000Y-77523000D01*
X52701000Y-81861000D02*
X52547000Y-81303000D01*
X52783000Y-82159000D02*
X52701000Y-81861000D01*
X52877000Y-77523000D02*
X53244000Y-77767000D01*
X52976000Y-82417000D02*
X52783000Y-82159000D01*
X53244000Y-77767000D02*
X53682000Y-77854000D01*
X53250000Y-82587000D02*
X52976000Y-82417000D01*
X53560000Y-82646000D02*
X53250000Y-82587000D01*
X53682000Y-77854000D02*
X56482000Y-77854000D01*
X56482000Y-77854000D02*
X56809000Y-77919000D01*
X56809000Y-77919000D02*
X57092000Y-78108000D01*
X57092000Y-78108000D02*
X57281000Y-78391000D01*
X57281000Y-78391000D02*
X57366000Y-78818000D01*
X57283000Y-81704000D02*
X57646000Y-81704000D01*
X57646000Y-81704000D02*
X57646000Y-82646000D01*
X57646000Y-82646000D02*
X53560000Y-82646000D01*
%TO.C,SW8*%
X83584000Y-59591000D02*
X84521000Y-58654000D01*
X84521000Y-58654000D02*
X87268000Y-58654000D01*
X84521000Y-63446000D02*
X83500000Y-62425000D01*
X87168000Y-63446000D02*
X84521000Y-63446000D01*
X87268000Y-58654000D02*
X87671000Y-58734000D01*
X87671000Y-58734000D02*
X88013000Y-58963000D01*
X87730000Y-63551000D02*
X87168000Y-63446000D01*
X88013000Y-58963000D02*
X88546000Y-59496000D01*
X88209000Y-63850000D02*
X87730000Y-63551000D01*
X88546000Y-59496000D02*
X88546000Y-59718000D01*
X88546000Y-59718000D02*
X88633000Y-60156000D01*
X88547000Y-64303000D02*
X88209000Y-63850000D01*
X88633000Y-60156000D02*
X88877000Y-60523000D01*
X88701000Y-64861000D02*
X88547000Y-64303000D01*
X88783000Y-65159000D02*
X88701000Y-64861000D01*
X88877000Y-60523000D02*
X89244000Y-60767000D01*
X88976000Y-65417000D02*
X88783000Y-65159000D01*
X89244000Y-60767000D02*
X89682000Y-60854000D01*
X89250000Y-65587000D02*
X88976000Y-65417000D01*
X89560000Y-65646000D02*
X89250000Y-65587000D01*
X89682000Y-60854000D02*
X92482000Y-60854000D01*
X92482000Y-60854000D02*
X92809000Y-60919000D01*
X92809000Y-60919000D02*
X93092000Y-61108000D01*
X93092000Y-61108000D02*
X93281000Y-61391000D01*
X93281000Y-61391000D02*
X93366000Y-61818000D01*
X93283000Y-64704000D02*
X93646000Y-64704000D01*
X93646000Y-64704000D02*
X93646000Y-65646000D01*
X93646000Y-65646000D02*
X89560000Y-65646000D01*
%TO.C,SW22*%
X212784000Y-59591000D02*
X213721000Y-58654000D01*
X213721000Y-58654000D02*
X216468000Y-58654000D01*
X213721000Y-63446000D02*
X212700000Y-62425000D01*
X216368000Y-63446000D02*
X213721000Y-63446000D01*
X216468000Y-58654000D02*
X216871000Y-58734000D01*
X216871000Y-58734000D02*
X217213000Y-58963000D01*
X216930000Y-63551000D02*
X216368000Y-63446000D01*
X217213000Y-58963000D02*
X217746000Y-59496000D01*
X217409000Y-63850000D02*
X216930000Y-63551000D01*
X217746000Y-59496000D02*
X217746000Y-59718000D01*
X217746000Y-59718000D02*
X217833000Y-60156000D01*
X217747000Y-64303000D02*
X217409000Y-63850000D01*
X217833000Y-60156000D02*
X218077000Y-60523000D01*
X217901000Y-64861000D02*
X217747000Y-64303000D01*
X217983000Y-65159000D02*
X217901000Y-64861000D01*
X218077000Y-60523000D02*
X218444000Y-60767000D01*
X218176000Y-65417000D02*
X217983000Y-65159000D01*
X218444000Y-60767000D02*
X218882000Y-60854000D01*
X218450000Y-65587000D02*
X218176000Y-65417000D01*
X218760000Y-65646000D02*
X218450000Y-65587000D01*
X218882000Y-60854000D02*
X221682000Y-60854000D01*
X221682000Y-60854000D02*
X222009000Y-60919000D01*
X222009000Y-60919000D02*
X222292000Y-61108000D01*
X222292000Y-61108000D02*
X222481000Y-61391000D01*
X222481000Y-61391000D02*
X222566000Y-61818000D01*
X222483000Y-64704000D02*
X222846000Y-64704000D01*
X222846000Y-64704000D02*
X222846000Y-65646000D01*
X222846000Y-65646000D02*
X218760000Y-65646000D01*
%TO.C,SW21*%
X207553998Y-51354000D02*
X211639998Y-51354000D01*
X207553998Y-52296000D02*
X207553998Y-51354000D01*
X207916998Y-52296000D02*
X207553998Y-52296000D01*
X207918998Y-55609000D02*
X207833998Y-55182000D01*
X208107998Y-55892000D02*
X207918998Y-55609000D01*
X208390998Y-56081000D02*
X208107998Y-55892000D01*
X208717998Y-56146000D02*
X208390998Y-56081000D01*
X211517998Y-56146000D02*
X208717998Y-56146000D01*
X211639998Y-51354000D02*
X211949998Y-51413000D01*
X211949998Y-51413000D02*
X212223998Y-51583000D01*
X211955998Y-56233000D02*
X211517998Y-56146000D01*
X212223998Y-51583000D02*
X212416998Y-51841000D01*
X212322998Y-56477000D02*
X211955998Y-56233000D01*
X212416998Y-51841000D02*
X212498998Y-52139000D01*
X212498998Y-52139000D02*
X212652998Y-52697000D01*
X212566998Y-56844000D02*
X212322998Y-56477000D01*
X212652998Y-52697000D02*
X212990998Y-53150000D01*
X212653998Y-57282000D02*
X212566998Y-56844000D01*
X212653998Y-57504000D02*
X212653998Y-57282000D01*
X212990998Y-53150000D02*
X213469998Y-53449000D01*
X213186998Y-58037000D02*
X212653998Y-57504000D01*
X213469998Y-53449000D02*
X214031998Y-53554000D01*
X213528998Y-58266000D02*
X213186998Y-58037000D01*
X213931998Y-58346000D02*
X213528998Y-58266000D01*
X214031998Y-53554000D02*
X216678998Y-53554000D01*
X216678998Y-53554000D02*
X217699998Y-54575000D01*
X216678998Y-58346000D02*
X213931998Y-58346000D01*
X217615998Y-57409000D02*
X216678998Y-58346000D01*
%TO.C,SW13*%
X101584000Y-76591000D02*
X102521000Y-75654000D01*
X102521000Y-75654000D02*
X105268000Y-75654000D01*
X102521000Y-80446000D02*
X101500000Y-79425000D01*
X105168000Y-80446000D02*
X102521000Y-80446000D01*
X105268000Y-75654000D02*
X105671000Y-75734000D01*
X105671000Y-75734000D02*
X106013000Y-75963000D01*
X105730000Y-80551000D02*
X105168000Y-80446000D01*
X106013000Y-75963000D02*
X106546000Y-76496000D01*
X106209000Y-80850000D02*
X105730000Y-80551000D01*
X106546000Y-76496000D02*
X106546000Y-76718000D01*
X106546000Y-76718000D02*
X106633000Y-77156000D01*
X106547000Y-81303000D02*
X106209000Y-80850000D01*
X106633000Y-77156000D02*
X106877000Y-77523000D01*
X106701000Y-81861000D02*
X106547000Y-81303000D01*
X106783000Y-82159000D02*
X106701000Y-81861000D01*
X106877000Y-77523000D02*
X107244000Y-77767000D01*
X106976000Y-82417000D02*
X106783000Y-82159000D01*
X107244000Y-77767000D02*
X107682000Y-77854000D01*
X107250000Y-82587000D02*
X106976000Y-82417000D01*
X107560000Y-82646000D02*
X107250000Y-82587000D01*
X107682000Y-77854000D02*
X110482000Y-77854000D01*
X110482000Y-77854000D02*
X110809000Y-77919000D01*
X110809000Y-77919000D02*
X111092000Y-78108000D01*
X111092000Y-78108000D02*
X111281000Y-78391000D01*
X111281000Y-78391000D02*
X111366000Y-78818000D01*
X111283000Y-81704000D02*
X111646000Y-81704000D01*
X111646000Y-81704000D02*
X111646000Y-82646000D01*
X111646000Y-82646000D02*
X107560000Y-82646000D01*
%TO.C,SW31*%
X153553998Y-51354000D02*
X157639998Y-51354000D01*
X153553998Y-52296000D02*
X153553998Y-51354000D01*
X153916998Y-52296000D02*
X153553998Y-52296000D01*
X153918998Y-55609000D02*
X153833998Y-55182000D01*
X154107998Y-55892000D02*
X153918998Y-55609000D01*
X154390998Y-56081000D02*
X154107998Y-55892000D01*
X154717998Y-56146000D02*
X154390998Y-56081000D01*
X157517998Y-56146000D02*
X154717998Y-56146000D01*
X157639998Y-51354000D02*
X157949998Y-51413000D01*
X157949998Y-51413000D02*
X158223998Y-51583000D01*
X157955998Y-56233000D02*
X157517998Y-56146000D01*
X158223998Y-51583000D02*
X158416998Y-51841000D01*
X158322998Y-56477000D02*
X157955998Y-56233000D01*
X158416998Y-51841000D02*
X158498998Y-52139000D01*
X158498998Y-52139000D02*
X158652998Y-52697000D01*
X158566998Y-56844000D02*
X158322998Y-56477000D01*
X158652998Y-52697000D02*
X158990998Y-53150000D01*
X158653998Y-57282000D02*
X158566998Y-56844000D01*
X158653998Y-57504000D02*
X158653998Y-57282000D01*
X158990998Y-53150000D02*
X159469998Y-53449000D01*
X159186998Y-58037000D02*
X158653998Y-57504000D01*
X159469998Y-53449000D02*
X160031998Y-53554000D01*
X159528998Y-58266000D02*
X159186998Y-58037000D01*
X159931998Y-58346000D02*
X159528998Y-58266000D01*
X160031998Y-53554000D02*
X162678998Y-53554000D01*
X162678998Y-53554000D02*
X163699998Y-54575000D01*
X162678998Y-58346000D02*
X159931998Y-58346000D01*
X163615998Y-57409000D02*
X162678998Y-58346000D01*
%TD*%
%LPC*%
D13*
%TO.C,SW26*%
X191700000Y-84000000D03*
D14*
X197200000Y-78100000D03*
D15*
X197200000Y-84000000D03*
D14*
X202200000Y-80200000D03*
D13*
X202700000Y-84000000D03*
D16*
X193700000Y-78000000D03*
X205700000Y-80200000D03*
%TD*%
D13*
%TO.C,SW2*%
X44500000Y-67000000D03*
D14*
X50000000Y-61100000D03*
D15*
X50000000Y-67000000D03*
D14*
X55000000Y-63200000D03*
D13*
X55500000Y-67000000D03*
D16*
X46500000Y-61000000D03*
X58500000Y-63200000D03*
%TD*%
D13*
%TO.C,SW10*%
X80500000Y-101000000D03*
D14*
X86000000Y-95100000D03*
D15*
X86000000Y-101000000D03*
D14*
X91000000Y-97200000D03*
D13*
X91500000Y-101000000D03*
D16*
X82500000Y-95000000D03*
X94500000Y-97200000D03*
%TD*%
D13*
%TO.C,SW14*%
X98500000Y-101000000D03*
D14*
X104000000Y-95100000D03*
D15*
X104000000Y-101000000D03*
D14*
X109000000Y-97200000D03*
D13*
X109500000Y-101000000D03*
D16*
X100500000Y-95000000D03*
X112500000Y-97200000D03*
%TD*%
D13*
%TO.C,SW36*%
X137700000Y-67000000D03*
D14*
X143200000Y-61100000D03*
D15*
X143200000Y-67000000D03*
D14*
X148200000Y-63200000D03*
D13*
X148700000Y-67000000D03*
D16*
X139700000Y-61000000D03*
X151700000Y-63200000D03*
%TD*%
D13*
%TO.C,SW15*%
X127500000Y-50000000D03*
D14*
X122000000Y-55900000D03*
D15*
X122000000Y-50000000D03*
D14*
X117000000Y-53800000D03*
D13*
X116500000Y-50000000D03*
D17*
X125500000Y-56000000D03*
X113500000Y-53800000D03*
%TD*%
D18*
%TO.C,J1*%
X43057400Y-103075300D03*
X43070100Y-91924700D03*
D19*
X47096000Y-103075400D03*
X47096000Y-91924700D03*
%TD*%
D20*
%TO.C,P2*%
X131400000Y-51431400D03*
X133800000Y-51431400D03*
X131400000Y-50240700D03*
X133800000Y-50240700D03*
X131400000Y-49050000D03*
X133800000Y-49050000D03*
X131400000Y-47859300D03*
X133800000Y-47859300D03*
X131400000Y-46668600D03*
X133800000Y-46668600D03*
%TD*%
D13*
%TO.C,SW9*%
X80500000Y-84000000D03*
D14*
X86000000Y-78100000D03*
D15*
X86000000Y-84000000D03*
D14*
X91000000Y-80200000D03*
D13*
X91500000Y-84000000D03*
D16*
X82500000Y-78000000D03*
X94500000Y-80200000D03*
%TD*%
D13*
%TO.C,SW27*%
X184699998Y-50000000D03*
D14*
X179199998Y-55900000D03*
D15*
X179199998Y-50000000D03*
D14*
X174199998Y-53800000D03*
D13*
X173699998Y-50000000D03*
D17*
X182699998Y-56000000D03*
X170699998Y-53800000D03*
%TD*%
D13*
%TO.C,SW18*%
X116500000Y-101000000D03*
D14*
X122000000Y-95100000D03*
D15*
X122000000Y-101000000D03*
D14*
X127000000Y-97200000D03*
D13*
X127500000Y-101000000D03*
D16*
X118500000Y-95000000D03*
X130500000Y-97200000D03*
%TD*%
D13*
%TO.C,SW38*%
X137700000Y-101000000D03*
D14*
X143200000Y-95100000D03*
D15*
X143200000Y-101000000D03*
D14*
X148200000Y-97200000D03*
D13*
X148700000Y-101000000D03*
D16*
X139700000Y-95000000D03*
X151700000Y-97200000D03*
%TD*%
D21*
%TO.C,J2*%
X95000000Y-86500000D03*
D22*
X95000000Y-88500000D03*
X95000000Y-90500000D03*
X95000000Y-92500000D03*
%TD*%
D13*
%TO.C,SW17*%
X116500000Y-84000000D03*
D14*
X122000000Y-78100000D03*
D15*
X122000000Y-84000000D03*
D14*
X127000000Y-80200000D03*
D13*
X127500000Y-84000000D03*
D16*
X118500000Y-78000000D03*
X130500000Y-80200000D03*
%TD*%
D13*
%TO.C,SW4*%
X73500000Y-50000000D03*
D14*
X68000000Y-55900000D03*
D15*
X68000000Y-50000000D03*
D14*
X63000000Y-53800000D03*
D13*
X62500000Y-50000000D03*
D17*
X71500000Y-56000000D03*
X59500000Y-53800000D03*
%TD*%
D13*
%TO.C,SW7*%
X91500000Y-50000000D03*
D14*
X86000000Y-55900000D03*
D15*
X86000000Y-50000000D03*
D14*
X81000000Y-53800000D03*
D13*
X80500000Y-50000000D03*
D17*
X89500000Y-56000000D03*
X77500000Y-53800000D03*
%TD*%
D13*
%TO.C,SW23*%
X209700000Y-84000000D03*
D14*
X215200000Y-78100000D03*
D15*
X215200000Y-84000000D03*
D14*
X220200000Y-80200000D03*
D13*
X220700000Y-84000000D03*
D16*
X211700000Y-78000000D03*
X223700000Y-80200000D03*
%TD*%
D13*
%TO.C,SW16*%
X116500000Y-67000000D03*
D14*
X122000000Y-61100000D03*
D15*
X122000000Y-67000000D03*
D14*
X127000000Y-63200000D03*
D13*
X127500000Y-67000000D03*
D16*
X118500000Y-61000000D03*
X130500000Y-63200000D03*
%TD*%
D13*
%TO.C,SW12*%
X98500000Y-67000000D03*
D14*
X104000000Y-61100000D03*
D15*
X104000000Y-67000000D03*
D14*
X109000000Y-63200000D03*
D13*
X109500000Y-67000000D03*
D16*
X100500000Y-61000000D03*
X112500000Y-63200000D03*
%TD*%
D13*
%TO.C,SW34*%
X155700000Y-101000000D03*
D14*
X161200000Y-95100000D03*
D15*
X161200000Y-101000000D03*
D14*
X166200000Y-97200000D03*
D13*
X166700000Y-101000000D03*
D16*
X157700000Y-95000000D03*
X169700000Y-97200000D03*
%TD*%
D13*
%TO.C,SW35*%
X148699998Y-50000000D03*
D14*
X143199998Y-55900000D03*
D15*
X143199998Y-50000000D03*
D14*
X138199998Y-53800000D03*
D13*
X137699998Y-50000000D03*
D17*
X146699998Y-56000000D03*
X134699998Y-53800000D03*
%TD*%
D13*
%TO.C,SW6*%
X62500000Y-84000000D03*
D14*
X68000000Y-78100000D03*
D15*
X68000000Y-84000000D03*
D14*
X73000000Y-80200000D03*
D13*
X73500000Y-84000000D03*
D16*
X64500000Y-78000000D03*
X76500000Y-80200000D03*
%TD*%
D21*
%TO.C,J4*%
X170200000Y-86500000D03*
D22*
X170200000Y-88500000D03*
X170200000Y-90500000D03*
X170200000Y-92500000D03*
%TD*%
D13*
%TO.C,SW37*%
X137700000Y-84000000D03*
D14*
X143200000Y-78100000D03*
D15*
X143200000Y-84000000D03*
D14*
X148200000Y-80200000D03*
D13*
X148700000Y-84000000D03*
D16*
X139700000Y-78000000D03*
X151700000Y-80200000D03*
%TD*%
D13*
%TO.C,SW28*%
X173700000Y-67000000D03*
D14*
X179200000Y-61100000D03*
D15*
X179200000Y-67000000D03*
D14*
X184200000Y-63200000D03*
D13*
X184700000Y-67000000D03*
D16*
X175700000Y-61000000D03*
X187700000Y-63200000D03*
%TD*%
D18*
%TO.C,J3*%
X222154050Y-91924800D03*
X222141350Y-103075400D03*
D19*
X218115450Y-91924700D03*
X218115450Y-103075400D03*
%TD*%
D13*
%TO.C,SW30*%
X173700000Y-101000000D03*
D14*
X179200000Y-95100000D03*
D15*
X179200000Y-101000000D03*
D14*
X184200000Y-97200000D03*
D13*
X184700000Y-101000000D03*
D16*
X175700000Y-95000000D03*
X187700000Y-97200000D03*
%TD*%
D13*
%TO.C,SW25*%
X191700000Y-67000000D03*
D14*
X197200000Y-61100000D03*
D15*
X197200000Y-67000000D03*
D14*
X202200000Y-63200000D03*
D13*
X202700000Y-67000000D03*
D16*
X193700000Y-61000000D03*
X205700000Y-63200000D03*
%TD*%
D13*
%TO.C,SW29*%
X173700000Y-84000000D03*
D14*
X179200000Y-78100000D03*
D15*
X179200000Y-84000000D03*
D14*
X184200000Y-80200000D03*
D13*
X184700000Y-84000000D03*
D16*
X175700000Y-78000000D03*
X187700000Y-80200000D03*
%TD*%
D13*
%TO.C,SW1*%
X55500000Y-50000000D03*
D14*
X50000000Y-55900000D03*
D15*
X50000000Y-50000000D03*
D14*
X45000000Y-53800000D03*
D13*
X44500000Y-50000000D03*
D17*
X53500000Y-56000000D03*
X41500000Y-53800000D03*
%TD*%
D13*
%TO.C,SW11*%
X109500000Y-50000000D03*
D14*
X104000000Y-55900000D03*
D15*
X104000000Y-50000000D03*
D14*
X99000000Y-53800000D03*
D13*
X98500000Y-50000000D03*
D17*
X107500000Y-56000000D03*
X95500000Y-53800000D03*
%TD*%
D13*
%TO.C,SW5*%
X62500000Y-67000000D03*
D14*
X68000000Y-61100000D03*
D15*
X68000000Y-67000000D03*
D14*
X73000000Y-63200000D03*
D13*
X73500000Y-67000000D03*
D16*
X64500000Y-61000000D03*
X76500000Y-63200000D03*
%TD*%
D13*
%TO.C,SW33*%
X155700000Y-84000000D03*
D14*
X161200000Y-78100000D03*
D15*
X161200000Y-84000000D03*
D14*
X166200000Y-80200000D03*
D13*
X166700000Y-84000000D03*
D16*
X157700000Y-78000000D03*
X169700000Y-80200000D03*
%TD*%
D23*
%TO.C,SW19*%
X48200000Y-108000000D03*
X51200000Y-108000000D03*
%TD*%
D13*
%TO.C,SW24*%
X202699998Y-50000000D03*
D14*
X197199998Y-55900000D03*
D15*
X197199998Y-50000000D03*
D14*
X192199998Y-53800000D03*
D13*
X191699998Y-50000000D03*
D17*
X200699998Y-56000000D03*
X188699998Y-53800000D03*
%TD*%
D13*
%TO.C,SW32*%
X155700000Y-67000000D03*
D14*
X161200000Y-61100000D03*
D15*
X161200000Y-67000000D03*
D14*
X166200000Y-63200000D03*
D13*
X166700000Y-67000000D03*
D16*
X157700000Y-61000000D03*
X169700000Y-63200000D03*
%TD*%
D13*
%TO.C,SW3*%
X44500000Y-84000000D03*
D14*
X50000000Y-78100000D03*
D15*
X50000000Y-84000000D03*
D14*
X55000000Y-80200000D03*
D13*
X55500000Y-84000000D03*
D16*
X46500000Y-78000000D03*
X58500000Y-80200000D03*
%TD*%
D23*
%TO.C,SW39*%
X214000000Y-108000000D03*
X217000000Y-108000000D03*
%TD*%
D13*
%TO.C,SW8*%
X80500000Y-67000000D03*
D14*
X86000000Y-61100000D03*
D15*
X86000000Y-67000000D03*
D14*
X91000000Y-63200000D03*
D13*
X91500000Y-67000000D03*
D16*
X82500000Y-61000000D03*
X94500000Y-63200000D03*
%TD*%
D20*
%TO.C,P2*%
X131400000Y-104331400D03*
X133800000Y-104331400D03*
X131400000Y-103140700D03*
X133800000Y-103140700D03*
X131400000Y-101950000D03*
X133800000Y-101950000D03*
X131400000Y-100759300D03*
X133800000Y-100759300D03*
X131400000Y-99568600D03*
X133800000Y-99568600D03*
%TD*%
D13*
%TO.C,SW22*%
X209700000Y-67000000D03*
D14*
X215200000Y-61100000D03*
D15*
X215200000Y-67000000D03*
D14*
X220200000Y-63200000D03*
D13*
X220700000Y-67000000D03*
D16*
X211700000Y-61000000D03*
X223700000Y-63200000D03*
%TD*%
D13*
%TO.C,SW21*%
X220699998Y-50000000D03*
D14*
X215199998Y-55900000D03*
D15*
X215199998Y-50000000D03*
D14*
X210199998Y-53800000D03*
D13*
X209699998Y-50000000D03*
D17*
X218699998Y-56000000D03*
X206699998Y-53800000D03*
%TD*%
D13*
%TO.C,SW13*%
X98500000Y-84000000D03*
D14*
X104000000Y-78100000D03*
D15*
X104000000Y-84000000D03*
D14*
X109000000Y-80200000D03*
D13*
X109500000Y-84000000D03*
D16*
X100500000Y-78000000D03*
X112500000Y-80200000D03*
%TD*%
D13*
%TO.C,SW31*%
X166699998Y-50000000D03*
D14*
X161199998Y-55900000D03*
D15*
X161199998Y-50000000D03*
D14*
X156199998Y-53800000D03*
D13*
X155699998Y-50000000D03*
D17*
X164699998Y-56000000D03*
X152699998Y-53800000D03*
%TD*%
%LPD*%
M02*
