%TF.GenerationSoftware,KiCad,Pcbnew,8.0.1*%
%TF.CreationDate,2024-03-30T18:05:25+05:00*%
%TF.ProjectId,pcb,7063622e-6b69-4636-9164-5f7063625858,rev?*%
%TF.SameCoordinates,Original*%
%TF.FileFunction,Soldermask,Top*%
%TF.FilePolarity,Negative*%
%FSLAX46Y46*%
G04 Gerber Fmt 4.6, Leading zero omitted, Abs format (unit mm)*
G04 Created by KiCad (PCBNEW 8.0.1) date 2024-03-30 18:05:25*
%MOMM*%
%LPD*%
G01*
G04 APERTURE LIST*
G04 Aperture macros list*
%AMRoundRect*
0 Rectangle with rounded corners*
0 $1 Rounding radius*
0 $2 $3 $4 $5 $6 $7 $8 $9 X,Y pos of 4 corners*
0 Add a 4 corners polygon primitive as box body*
4,1,4,$2,$3,$4,$5,$6,$7,$8,$9,$2,$3,0*
0 Add four circle primitives for the rounded corners*
1,1,$1+$1,$2,$3*
1,1,$1+$1,$4,$5*
1,1,$1+$1,$6,$7*
1,1,$1+$1,$8,$9*
0 Add four rect primitives between the rounded corners*
20,1,$1+$1,$2,$3,$4,$5,0*
20,1,$1+$1,$4,$5,$6,$7,0*
20,1,$1+$1,$6,$7,$8,$9,0*
20,1,$1+$1,$8,$9,$2,$3,0*%
G04 Aperture macros list end*
%ADD10C,1.900000*%
%ADD11C,3.050000*%
%ADD12C,3.450000*%
%ADD13RoundRect,0.200000X0.200000X0.275000X-0.200000X0.275000X-0.200000X-0.275000X0.200000X-0.275000X0*%
%ADD14RoundRect,0.112500X-0.187500X-0.112500X0.187500X-0.112500X0.187500X0.112500X-0.187500X0.112500X0*%
%ADD15RoundRect,0.225000X0.225000X0.250000X-0.225000X0.250000X-0.225000X-0.250000X0.225000X-0.250000X0*%
%ADD16RoundRect,0.135000X0.185000X-0.135000X0.185000X0.135000X-0.185000X0.135000X-0.185000X-0.135000X0*%
%ADD17RoundRect,0.112500X0.187500X0.112500X-0.187500X0.112500X-0.187500X-0.112500X0.187500X-0.112500X0*%
%ADD18O,2.219000X1.000000*%
%ADD19RoundRect,0.150000X-0.425000X0.150000X-0.425000X-0.150000X0.425000X-0.150000X0.425000X0.150000X0*%
%ADD20RoundRect,0.075000X-0.500000X0.075000X-0.500000X-0.075000X0.500000X-0.075000X0.500000X0.075000X0*%
%ADD21O,1.762000X1.000000*%
%ADD22C,0.800000*%
%ADD23RoundRect,0.150000X0.150000X-0.512500X0.150000X0.512500X-0.150000X0.512500X-0.150000X-0.512500X0*%
%ADD24RoundRect,0.135000X-0.185000X0.135000X-0.185000X-0.135000X0.185000X-0.135000X0.185000X0.135000X0*%
%ADD25R,1.350000X1.350000*%
%ADD26O,1.350000X1.350000*%
%ADD27RoundRect,0.135000X-0.135000X-0.185000X0.135000X-0.185000X0.135000X0.185000X-0.135000X0.185000X0*%
%ADD28RoundRect,0.150000X0.150000X-0.587500X0.150000X0.587500X-0.150000X0.587500X-0.150000X-0.587500X0*%
%ADD29RoundRect,0.175000X-0.175000X0.500000X-0.175000X-0.500000X0.175000X-0.500000X0.175000X0.500000X0*%
%ADD30RoundRect,0.175000X-0.500000X-0.175000X0.500000X-0.175000X0.500000X0.175000X-0.500000X0.175000X0*%
%ADD31RoundRect,0.175000X0.175000X-0.500000X0.175000X0.500000X-0.175000X0.500000X-0.175000X-0.500000X0*%
%ADD32R,0.800000X0.700000*%
%ADD33RoundRect,0.200000X-0.200000X-0.275000X0.200000X-0.275000X0.200000X0.275000X-0.200000X0.275000X0*%
%ADD34RoundRect,0.140000X0.140000X0.170000X-0.140000X0.170000X-0.140000X-0.170000X0.140000X-0.170000X0*%
%ADD35RoundRect,0.150000X0.425000X-0.150000X0.425000X0.150000X-0.425000X0.150000X-0.425000X-0.150000X0*%
%ADD36RoundRect,0.075000X0.500000X-0.075000X0.500000X0.075000X-0.500000X0.075000X-0.500000X-0.075000X0*%
%ADD37RoundRect,0.175000X0.500000X0.175000X-0.500000X0.175000X-0.500000X-0.175000X0.500000X-0.175000X0*%
%ADD38RoundRect,0.112500X-0.112500X0.187500X-0.112500X-0.187500X0.112500X-0.187500X0.112500X0.187500X0*%
%ADD39RoundRect,0.135000X0.135000X0.185000X-0.135000X0.185000X-0.135000X-0.185000X0.135000X-0.185000X0*%
%ADD40C,0.600000*%
%ADD41RoundRect,0.500000X0.500000X-0.000010X0.500000X0.000010X-0.500000X0.000010X-0.500000X-0.000010X0*%
%ADD42RoundRect,0.060000X0.740000X0.540000X-0.740000X0.540000X-0.740000X-0.540000X0.740000X-0.540000X0*%
%ADD43RoundRect,0.500000X-0.500000X0.000010X-0.500000X-0.000010X0.500000X-0.000010X0.500000X0.000010X0*%
%ADD44RoundRect,0.150000X-0.150000X0.512500X-0.150000X-0.512500X0.150000X-0.512500X0.150000X0.512500X0*%
%ADD45R,1.000000X0.800000*%
%ADD46C,0.900000*%
%ADD47R,0.700000X1.500000*%
%ADD48RoundRect,0.140000X-0.140000X-0.170000X0.140000X-0.170000X0.140000X0.170000X-0.140000X0.170000X0*%
%ADD49RoundRect,0.112500X0.112500X-0.187500X0.112500X0.187500X-0.112500X0.187500X-0.112500X-0.187500X0*%
G04 APERTURE END LIST*
D10*
%TO.C,SW26*%
X191700000Y-84000000D03*
D11*
X197200000Y-78100000D03*
D12*
X197200000Y-84000000D03*
D11*
X202200000Y-80200000D03*
D10*
X202700000Y-84000000D03*
%TD*%
%TO.C,SW2*%
X44500000Y-67000000D03*
D11*
X50000000Y-61100000D03*
D12*
X50000000Y-67000000D03*
D11*
X55000000Y-63200000D03*
D10*
X55500000Y-67000000D03*
%TD*%
%TO.C,SW10*%
X80500000Y-101000000D03*
D11*
X86000000Y-95100000D03*
D12*
X86000000Y-101000000D03*
D11*
X91000000Y-97200000D03*
D10*
X91500000Y-101000000D03*
%TD*%
%TO.C,SW14*%
X98500000Y-101000000D03*
D11*
X104000000Y-95100000D03*
D12*
X104000000Y-101000000D03*
D11*
X109000000Y-97200000D03*
D10*
X109500000Y-101000000D03*
%TD*%
D13*
%TO.C,R16*%
X207025000Y-53037500D03*
X205375000Y-53037500D03*
%TD*%
D14*
%TO.C,D24*%
X196149998Y-45200000D03*
X198249998Y-45200000D03*
%TD*%
D15*
%TO.C,C6*%
X59775000Y-85200000D03*
X58225000Y-85200000D03*
%TD*%
D10*
%TO.C,SW36*%
X137700000Y-67000000D03*
D11*
X143200000Y-61100000D03*
D12*
X143200000Y-67000000D03*
D11*
X148200000Y-63200000D03*
D10*
X148700000Y-67000000D03*
%TD*%
D16*
%TO.C,R14*%
X214300000Y-93110000D03*
X214300000Y-92090000D03*
%TD*%
D10*
%TO.C,SW15*%
X127500000Y-50000000D03*
D11*
X122000000Y-55900000D03*
D12*
X122000000Y-50000000D03*
D11*
X117000000Y-53800000D03*
D10*
X116500000Y-50000000D03*
%TD*%
D17*
%TO.C,D2*%
X51050000Y-71800000D03*
X48950000Y-71800000D03*
%TD*%
D18*
%TO.C,J1*%
X43057400Y-103075300D03*
X43070100Y-91924700D03*
D19*
X48100000Y-94300000D03*
X48100000Y-95100000D03*
D20*
X48100000Y-96250000D03*
X48100000Y-97250000D03*
X48100000Y-97750000D03*
X48100000Y-98750000D03*
D19*
X48100000Y-99900000D03*
X48100000Y-100700000D03*
X48100000Y-100700000D03*
X48100000Y-99900000D03*
D20*
X48100000Y-99250000D03*
X48100000Y-98250000D03*
X48100000Y-96750000D03*
X48100000Y-95750000D03*
D19*
X48100000Y-95100000D03*
X48100000Y-94300000D03*
D21*
X47096000Y-103075400D03*
X47096000Y-91924700D03*
%TD*%
D17*
%TO.C,D30*%
X180250000Y-105800000D03*
X178150000Y-105800000D03*
%TD*%
D22*
%TO.C,P2*%
X131400000Y-51431400D03*
X133800000Y-51431400D03*
X131400000Y-50240700D03*
X133800000Y-50240700D03*
X131400000Y-49050000D03*
X133800000Y-49050000D03*
X131400000Y-47859300D03*
X133800000Y-47859300D03*
X131400000Y-46668600D03*
X133800000Y-46668600D03*
%TD*%
D10*
%TO.C,SW9*%
X80500000Y-84000000D03*
D11*
X86000000Y-78100000D03*
D12*
X86000000Y-84000000D03*
D11*
X91000000Y-80200000D03*
D10*
X91500000Y-84000000D03*
%TD*%
D23*
%TO.C,U6*%
X205250000Y-83537500D03*
X206200000Y-83537500D03*
X207150000Y-83537500D03*
X207150000Y-81262500D03*
X205250000Y-81262500D03*
%TD*%
D14*
%TO.C,D31*%
X160149998Y-45200000D03*
X162249998Y-45200000D03*
%TD*%
D17*
%TO.C,D14*%
X105050000Y-105800000D03*
X102950000Y-105800000D03*
%TD*%
D14*
%TO.C,D11*%
X102950000Y-45200000D03*
X105050000Y-45200000D03*
%TD*%
D15*
%TO.C,C4*%
X59775000Y-68800000D03*
X58225000Y-68800000D03*
%TD*%
D16*
%TO.C,R3*%
X50100000Y-100410000D03*
X50100000Y-99390000D03*
%TD*%
D24*
%TO.C,R13*%
X215100000Y-94590000D03*
X215100000Y-95610000D03*
%TD*%
D17*
%TO.C,D22*%
X216250000Y-71800000D03*
X214150000Y-71800000D03*
%TD*%
D10*
%TO.C,SW27*%
X184699998Y-50000000D03*
D11*
X179199998Y-55900000D03*
D12*
X179199998Y-50000000D03*
D11*
X174199998Y-53800000D03*
D10*
X173699998Y-50000000D03*
%TD*%
%TO.C,SW18*%
X116500000Y-101000000D03*
D11*
X122000000Y-95100000D03*
D12*
X122000000Y-101000000D03*
D11*
X127000000Y-97200000D03*
D10*
X127500000Y-101000000D03*
%TD*%
D24*
%TO.C,R5*%
X50900000Y-92090000D03*
X50900000Y-93110000D03*
%TD*%
D10*
%TO.C,SW38*%
X137700000Y-101000000D03*
D11*
X143200000Y-95100000D03*
D12*
X143200000Y-101000000D03*
D11*
X148200000Y-97200000D03*
D10*
X148700000Y-101000000D03*
%TD*%
D25*
%TO.C,J2*%
X95000000Y-86500000D03*
D26*
X95000000Y-88500000D03*
X95000000Y-90500000D03*
X95000000Y-92500000D03*
%TD*%
D16*
%TO.C,R4*%
X49900000Y-93110000D03*
X49900000Y-92090000D03*
%TD*%
D10*
%TO.C,SW17*%
X116500000Y-84000000D03*
D11*
X122000000Y-78100000D03*
D12*
X122000000Y-84000000D03*
D11*
X127000000Y-80200000D03*
D10*
X127500000Y-84000000D03*
%TD*%
D27*
%TO.C,R10*%
X61190000Y-107500000D03*
X62210000Y-107500000D03*
%TD*%
D15*
%TO.C,C3*%
X59775000Y-63200000D03*
X58225000Y-63200000D03*
%TD*%
D28*
%TO.C,Q2*%
X205250000Y-49375000D03*
X207150000Y-49375000D03*
X206200000Y-47500000D03*
%TD*%
D10*
%TO.C,SW4*%
X73500000Y-50000000D03*
D11*
X68000000Y-55900000D03*
D12*
X68000000Y-50000000D03*
D11*
X63000000Y-53800000D03*
D10*
X62500000Y-50000000D03*
%TD*%
D29*
%TO.C,U1*%
X68700000Y-92250000D03*
X67600000Y-92250000D03*
X66500000Y-92250000D03*
X65400000Y-92250000D03*
X64300000Y-92250000D03*
X63200000Y-92250000D03*
X62100000Y-92250000D03*
X61000000Y-92250000D03*
X59900000Y-92250000D03*
X58800000Y-92250000D03*
X57700000Y-92250000D03*
X56600000Y-92250000D03*
X55500000Y-92250000D03*
D30*
X54000000Y-93500000D03*
X54000000Y-94600000D03*
X54000000Y-95700000D03*
X54000000Y-96800000D03*
X54000000Y-97900000D03*
X54000000Y-99000000D03*
X54000000Y-100100000D03*
X54000000Y-101200000D03*
X54000000Y-102300000D03*
X54000000Y-103400000D03*
X54000000Y-104500000D03*
D31*
X55500000Y-105750000D03*
X56600000Y-105750000D03*
X57700000Y-105750000D03*
X58800000Y-105750000D03*
X59900000Y-105750000D03*
X61000000Y-105750000D03*
X62100000Y-105750000D03*
X63200000Y-105750000D03*
X64300000Y-105750000D03*
X65400000Y-105750000D03*
X66500000Y-105750000D03*
X67600000Y-105750000D03*
X57700000Y-89500000D03*
X58800000Y-89500000D03*
%TD*%
D17*
%TO.C,D13*%
X105050000Y-88800000D03*
X102950000Y-88800000D03*
%TD*%
%TO.C,D38*%
X144250000Y-105800000D03*
X142150000Y-105800000D03*
%TD*%
D10*
%TO.C,SW7*%
X91500000Y-50000000D03*
D11*
X86000000Y-55900000D03*
D12*
X86000000Y-50000000D03*
D11*
X81000000Y-53800000D03*
D10*
X80500000Y-50000000D03*
%TD*%
D32*
%TO.C,SW20*%
X65400000Y-108150000D03*
X65400000Y-107250000D03*
X68200000Y-108150000D03*
X68200000Y-107250000D03*
%TD*%
D17*
%TO.C,D25*%
X198250000Y-71800000D03*
X196150000Y-71800000D03*
%TD*%
D15*
%TO.C,C11*%
X206975000Y-70300000D03*
X205425000Y-70300000D03*
%TD*%
D10*
%TO.C,SW23*%
X209700000Y-84000000D03*
D11*
X215200000Y-78100000D03*
D12*
X215200000Y-84000000D03*
D11*
X220200000Y-80200000D03*
D10*
X220700000Y-84000000D03*
%TD*%
D17*
%TO.C,D9*%
X87050000Y-88800000D03*
X84950000Y-88800000D03*
%TD*%
D14*
%TO.C,D7*%
X84950000Y-45200000D03*
X87050000Y-45200000D03*
%TD*%
D10*
%TO.C,SW16*%
X116500000Y-67000000D03*
D11*
X122000000Y-61100000D03*
D12*
X122000000Y-67000000D03*
D11*
X127000000Y-63200000D03*
D10*
X127500000Y-67000000D03*
%TD*%
D14*
%TO.C,D27*%
X178149998Y-45200000D03*
X180249998Y-45200000D03*
%TD*%
D17*
%TO.C,D6*%
X69050000Y-88800000D03*
X66950000Y-88800000D03*
%TD*%
D15*
%TO.C,C2*%
X59775000Y-54537500D03*
X58225000Y-54537500D03*
%TD*%
D10*
%TO.C,SW12*%
X98500000Y-67000000D03*
D11*
X104000000Y-61100000D03*
D12*
X104000000Y-67000000D03*
D11*
X109000000Y-63200000D03*
D10*
X109500000Y-67000000D03*
%TD*%
%TO.C,SW34*%
X155700000Y-101000000D03*
D11*
X161200000Y-95100000D03*
D12*
X161200000Y-101000000D03*
D11*
X166200000Y-97200000D03*
D10*
X166700000Y-101000000D03*
%TD*%
%TO.C,SW35*%
X148699998Y-50000000D03*
D11*
X143199998Y-55900000D03*
D12*
X143199998Y-50000000D03*
D11*
X138199998Y-53800000D03*
D10*
X137699998Y-50000000D03*
%TD*%
%TO.C,SW6*%
X62500000Y-84000000D03*
D11*
X68000000Y-78100000D03*
D12*
X68000000Y-84000000D03*
D11*
X73000000Y-80200000D03*
D10*
X73500000Y-84000000D03*
%TD*%
D17*
%TO.C,D34*%
X162250000Y-105800000D03*
X160150000Y-105800000D03*
%TD*%
D25*
%TO.C,J4*%
X170200000Y-86500000D03*
D26*
X170200000Y-88500000D03*
X170200000Y-90500000D03*
X170200000Y-92500000D03*
%TD*%
D33*
%TO.C,R7*%
X58175000Y-79600000D03*
X59825000Y-79600000D03*
%TD*%
D15*
%TO.C,C5*%
X59775000Y-70300000D03*
X58225000Y-70300000D03*
%TD*%
D34*
%TO.C,C7*%
X216880000Y-88400000D03*
X215920000Y-88400000D03*
%TD*%
D10*
%TO.C,SW37*%
X137700000Y-84000000D03*
D11*
X143200000Y-78100000D03*
D12*
X143200000Y-84000000D03*
D11*
X148200000Y-80200000D03*
D10*
X148700000Y-84000000D03*
%TD*%
D14*
%TO.C,D4*%
X66950000Y-45200000D03*
X69050000Y-45200000D03*
%TD*%
D17*
%TO.C,D10*%
X87050000Y-105800000D03*
X84950000Y-105800000D03*
%TD*%
%TO.C,D17*%
X123050000Y-88800000D03*
X120950000Y-88800000D03*
%TD*%
D10*
%TO.C,SW28*%
X173700000Y-67000000D03*
D11*
X179200000Y-61100000D03*
D12*
X179200000Y-67000000D03*
D11*
X184200000Y-63200000D03*
D10*
X184700000Y-67000000D03*
%TD*%
D18*
%TO.C,J3*%
X222154050Y-91924800D03*
X222141350Y-103075400D03*
D35*
X217111450Y-100700100D03*
X217111450Y-99900100D03*
D36*
X217111450Y-98750100D03*
X217111450Y-97750100D03*
X217111450Y-97250100D03*
X217111450Y-96250100D03*
D35*
X217111450Y-95100100D03*
X217111450Y-94300100D03*
X217111450Y-94300100D03*
X217111450Y-95100100D03*
D36*
X217111450Y-95750100D03*
X217111450Y-96750100D03*
X217111450Y-98250100D03*
X217111450Y-99250100D03*
D35*
X217111450Y-99900100D03*
X217111450Y-100700100D03*
D21*
X218115450Y-91924700D03*
X218115450Y-103075400D03*
%TD*%
D10*
%TO.C,SW30*%
X173700000Y-101000000D03*
D11*
X179200000Y-95100000D03*
D12*
X179200000Y-101000000D03*
D11*
X184200000Y-97200000D03*
D10*
X184700000Y-101000000D03*
%TD*%
%TO.C,SW25*%
X191700000Y-67000000D03*
D11*
X197200000Y-61100000D03*
D12*
X197200000Y-67000000D03*
D11*
X202200000Y-63200000D03*
D10*
X202700000Y-67000000D03*
%TD*%
D17*
%TO.C,D33*%
X162250000Y-88800000D03*
X160150000Y-88800000D03*
%TD*%
D31*
%TO.C,U4*%
X196500000Y-105750000D03*
X197600000Y-105750000D03*
X198700000Y-105750000D03*
X199800000Y-105750000D03*
X200900000Y-105750000D03*
X202000000Y-105750000D03*
X203100000Y-105750000D03*
X204200000Y-105750000D03*
X205300000Y-105750000D03*
X206400000Y-105750000D03*
X207500000Y-105750000D03*
X208600000Y-105750000D03*
X209700000Y-105750000D03*
D37*
X211200000Y-104500000D03*
X211200000Y-103400000D03*
X211200000Y-102300000D03*
X211200000Y-101200000D03*
X211200000Y-100100000D03*
X211200000Y-99000000D03*
X211200000Y-97900000D03*
X211200000Y-96800000D03*
X211200000Y-95700000D03*
X211200000Y-94600000D03*
X211200000Y-93500000D03*
D29*
X209700000Y-92250000D03*
X208600000Y-92250000D03*
X207500000Y-92250000D03*
X206400000Y-92250000D03*
X205300000Y-92250000D03*
X204200000Y-92250000D03*
X203100000Y-92250000D03*
X202000000Y-92250000D03*
X200900000Y-92250000D03*
X199800000Y-92250000D03*
X198700000Y-92250000D03*
X197600000Y-92250000D03*
X207500000Y-89500000D03*
X206400000Y-89500000D03*
%TD*%
D17*
%TO.C,D5*%
X69050000Y-71800000D03*
X66950000Y-71800000D03*
%TD*%
D38*
%TO.C,D3*%
X50800000Y-87750000D03*
X50800000Y-89850000D03*
%TD*%
D15*
%TO.C,C12*%
X206975000Y-85200000D03*
X205425000Y-85200000D03*
%TD*%
D32*
%TO.C,SW40*%
X197000000Y-108150000D03*
X197000000Y-107250000D03*
X199800000Y-108150000D03*
X199800000Y-107250000D03*
%TD*%
D17*
%TO.C,D18*%
X123050000Y-105800000D03*
X120950000Y-105800000D03*
%TD*%
D39*
%TO.C,R11*%
X216910000Y-89400000D03*
X215890000Y-89400000D03*
%TD*%
D40*
%TO.C,H2*%
X43200000Y-107200000D03*
D41*
X43700000Y-107200000D03*
D40*
X44200000Y-107200000D03*
%TD*%
D14*
%TO.C,D1*%
X48950000Y-45200000D03*
X51050000Y-45200000D03*
%TD*%
D42*
%TO.C,D20*%
X54350000Y-108900000D03*
X58050000Y-108900000D03*
%TD*%
D27*
%TO.C,R1*%
X48290000Y-89400000D03*
X49310000Y-89400000D03*
%TD*%
D17*
%TO.C,D8*%
X87050000Y-71800000D03*
X84950000Y-71800000D03*
%TD*%
D10*
%TO.C,SW29*%
X173700000Y-84000000D03*
D11*
X179200000Y-78100000D03*
D12*
X179200000Y-84000000D03*
D11*
X184200000Y-80200000D03*
D10*
X184700000Y-84000000D03*
%TD*%
D14*
%TO.C,D35*%
X142149998Y-45200000D03*
X144249998Y-45200000D03*
%TD*%
D16*
%TO.C,R2*%
X50100000Y-95610000D03*
X50100000Y-94590000D03*
%TD*%
D24*
%TO.C,R15*%
X215300000Y-92090000D03*
X215300000Y-93110000D03*
%TD*%
D15*
%TO.C,C9*%
X206975000Y-63200000D03*
X205425000Y-63200000D03*
%TD*%
D24*
%TO.C,R12*%
X215100000Y-99390000D03*
X215100000Y-100410000D03*
%TD*%
D42*
%TO.C,D40*%
X207150000Y-108900000D03*
X210850000Y-108900000D03*
%TD*%
D15*
%TO.C,C10*%
X206975000Y-68800000D03*
X205425000Y-68800000D03*
%TD*%
D10*
%TO.C,SW1*%
X55500000Y-50000000D03*
D11*
X50000000Y-55900000D03*
D12*
X50000000Y-50000000D03*
D11*
X45000000Y-53800000D03*
D10*
X44500000Y-50000000D03*
%TD*%
D17*
%TO.C,D12*%
X105050000Y-71800000D03*
X102950000Y-71800000D03*
%TD*%
D10*
%TO.C,SW11*%
X109500000Y-50000000D03*
D11*
X104000000Y-55900000D03*
D12*
X104000000Y-50000000D03*
D11*
X99000000Y-53800000D03*
D10*
X98500000Y-50000000D03*
%TD*%
D40*
%TO.C,H4*%
X222000000Y-107200000D03*
D43*
X221500000Y-107200000D03*
D40*
X221000000Y-107200000D03*
%TD*%
D17*
%TO.C,D28*%
X180250000Y-71800000D03*
X178150000Y-71800000D03*
%TD*%
D14*
%TO.C,D21*%
X214149998Y-45200000D03*
X216249998Y-45200000D03*
%TD*%
D44*
%TO.C,U5*%
X207150000Y-64862500D03*
X206200000Y-64862500D03*
X205250000Y-64862500D03*
X205250000Y-67137500D03*
X207150000Y-67137500D03*
%TD*%
D28*
%TO.C,Q1*%
X58050000Y-49375000D03*
X59950000Y-49375000D03*
X59000000Y-47500000D03*
%TD*%
D17*
%TO.C,D19*%
X60050000Y-51337500D03*
X57950000Y-51337500D03*
%TD*%
%TO.C,D39*%
X207250000Y-51337500D03*
X205150000Y-51337500D03*
%TD*%
D10*
%TO.C,SW5*%
X62500000Y-67000000D03*
D11*
X68000000Y-61100000D03*
D12*
X68000000Y-67000000D03*
D11*
X73000000Y-63200000D03*
D10*
X73500000Y-67000000D03*
%TD*%
%TO.C,SW33*%
X155700000Y-84000000D03*
D11*
X161200000Y-78100000D03*
D12*
X161200000Y-84000000D03*
D11*
X166200000Y-80200000D03*
D10*
X166700000Y-84000000D03*
%TD*%
D33*
%TO.C,R8*%
X58175000Y-86700000D03*
X59825000Y-86700000D03*
%TD*%
D23*
%TO.C,U2*%
X58050000Y-83537500D03*
X59000000Y-83537500D03*
X59950000Y-83537500D03*
X59950000Y-81262500D03*
X58050000Y-81262500D03*
%TD*%
D13*
%TO.C,R6*%
X59825000Y-53037500D03*
X58175000Y-53037500D03*
%TD*%
D33*
%TO.C,R17*%
X205375000Y-79600000D03*
X207025000Y-79600000D03*
%TD*%
D45*
%TO.C,SW19*%
X46900000Y-106900000D03*
X46900000Y-109100000D03*
D46*
X48200000Y-108000000D03*
X51200000Y-108000000D03*
D45*
X52500000Y-106900000D03*
X52500000Y-109100000D03*
D47*
X48700000Y-106250000D03*
X49700000Y-106250000D03*
X50700000Y-106250000D03*
%TD*%
D14*
%TO.C,D15*%
X120950000Y-45200000D03*
X123050000Y-45200000D03*
%TD*%
D17*
%TO.C,D37*%
X144250000Y-88800000D03*
X142150000Y-88800000D03*
%TD*%
D39*
%TO.C,R20*%
X198710000Y-89400000D03*
X197690000Y-89400000D03*
%TD*%
D40*
%TO.C,H3*%
X222000000Y-105200000D03*
D43*
X221500000Y-105200000D03*
D40*
X221000000Y-105200000D03*
%TD*%
D10*
%TO.C,SW24*%
X202699998Y-50000000D03*
D11*
X197199998Y-55900000D03*
D12*
X197199998Y-50000000D03*
D11*
X192199998Y-53800000D03*
D10*
X191699998Y-50000000D03*
%TD*%
D48*
%TO.C,C1*%
X48320000Y-88400000D03*
X49280000Y-88400000D03*
%TD*%
D17*
%TO.C,D16*%
X123050000Y-71800000D03*
X120950000Y-71800000D03*
%TD*%
D10*
%TO.C,SW32*%
X155700000Y-67000000D03*
D11*
X161200000Y-61100000D03*
D12*
X161200000Y-67000000D03*
D11*
X166200000Y-63200000D03*
D10*
X166700000Y-67000000D03*
%TD*%
D33*
%TO.C,R18*%
X205375000Y-86700000D03*
X207025000Y-86700000D03*
%TD*%
D27*
%TO.C,R19*%
X197690000Y-88400000D03*
X198710000Y-88400000D03*
%TD*%
D10*
%TO.C,SW3*%
X44500000Y-84000000D03*
D11*
X50000000Y-78100000D03*
D12*
X50000000Y-84000000D03*
D11*
X55000000Y-80200000D03*
D10*
X55500000Y-84000000D03*
%TD*%
D49*
%TO.C,D23*%
X214400000Y-89805000D03*
X214400000Y-87705000D03*
%TD*%
D17*
%TO.C,D32*%
X162250000Y-71800000D03*
X160150000Y-71800000D03*
%TD*%
D45*
%TO.C,SW39*%
X212700000Y-106900000D03*
X212700000Y-109100000D03*
D46*
X214000000Y-108000000D03*
X217000000Y-108000000D03*
D45*
X218300000Y-106900000D03*
X218300000Y-109100000D03*
D47*
X214500000Y-106250000D03*
X215500000Y-106250000D03*
X216500000Y-106250000D03*
%TD*%
D10*
%TO.C,SW8*%
X80500000Y-67000000D03*
D11*
X86000000Y-61100000D03*
D12*
X86000000Y-67000000D03*
D11*
X91000000Y-63200000D03*
D10*
X91500000Y-67000000D03*
%TD*%
D17*
%TO.C,D36*%
X144250000Y-71800000D03*
X142150000Y-71800000D03*
%TD*%
%TO.C,D29*%
X180250000Y-88800000D03*
X178150000Y-88800000D03*
%TD*%
D44*
%TO.C,U3*%
X59950000Y-64862500D03*
X59000000Y-64862500D03*
X58050000Y-64862500D03*
X58050000Y-67137500D03*
X59950000Y-67137500D03*
%TD*%
D40*
%TO.C,H1*%
X43200000Y-105200000D03*
D41*
X43700000Y-105200000D03*
D40*
X44200000Y-105200000D03*
%TD*%
D27*
%TO.C,R9*%
X63190000Y-107500000D03*
X64210000Y-107500000D03*
%TD*%
D15*
%TO.C,C8*%
X206975000Y-54537500D03*
X205425000Y-54537500D03*
%TD*%
D22*
%TO.C,P2*%
X131400000Y-104331400D03*
X133800000Y-104331400D03*
X131400000Y-103140700D03*
X133800000Y-103140700D03*
X131400000Y-101950000D03*
X133800000Y-101950000D03*
X131400000Y-100759300D03*
X133800000Y-100759300D03*
X131400000Y-99568600D03*
X133800000Y-99568600D03*
%TD*%
D10*
%TO.C,SW22*%
X209700000Y-67000000D03*
D11*
X215200000Y-61100000D03*
D12*
X215200000Y-67000000D03*
D11*
X220200000Y-63200000D03*
D10*
X220700000Y-67000000D03*
%TD*%
D49*
%TO.C,D26*%
X196300000Y-89805000D03*
X196300000Y-87705000D03*
%TD*%
D10*
%TO.C,SW21*%
X220699998Y-50000000D03*
D11*
X215199998Y-55900000D03*
D12*
X215199998Y-50000000D03*
D11*
X210199998Y-53800000D03*
D10*
X209699998Y-50000000D03*
%TD*%
%TO.C,SW13*%
X98500000Y-84000000D03*
D11*
X104000000Y-78100000D03*
D12*
X104000000Y-84000000D03*
D11*
X109000000Y-80200000D03*
D10*
X109500000Y-84000000D03*
%TD*%
%TO.C,SW31*%
X166699998Y-50000000D03*
D11*
X161199998Y-55900000D03*
D12*
X161199998Y-50000000D03*
D11*
X156199998Y-53800000D03*
D10*
X155699998Y-50000000D03*
%TD*%
M02*
