M48
; DRILL file {KiCad 8.0.1} date 2024-03-30T18:05:25+0500
; FORMAT={-:-/ absolute / inch / decimal}
; #@! TF.CreationDate,2024-03-30T18:05:25+05:00
; #@! TF.GenerationSoftware,Kicad,Pcbnew,8.0.1
; #@! TF.FileFunction,NonPlated,1,2,NPTH
FMAT,2
INCH
; #@! TA.AperFunction,NonPlated,NPTH,ComponentDrill
T1C0.0315
; #@! TA.AperFunction,NonPlated,NPTH,ComponentDrill
T2C0.0354
; #@! TA.AperFunction,NonPlated,NPTH,ComponentDrill
T3C0.0748
; #@! TA.AperFunction,NonPlated,NPTH,ComponentDrill
T4C0.1201
; #@! TA.AperFunction,NonPlated,NPTH,ComponentDrill
T5C0.1358
%
G90
G05
T1
X5.1732Y-1.8373
X5.1732Y-1.8842
X5.1732Y-1.9311
X5.1732Y-1.978
X5.1732Y-2.0249
X5.1732Y-3.92
X5.1732Y-3.9669
X5.1732Y-4.0138
X5.1732Y-4.0607
X5.1732Y-4.1075
X5.2677Y-1.8373
X5.2677Y-1.8842
X5.2677Y-1.9311
X5.2677Y-1.978
X5.2677Y-2.0249
X5.2677Y-3.92
X5.2677Y-3.9669
X5.2677Y-4.0138
X5.2677Y-4.0607
X5.2677Y-4.1075
T2
X1.8976Y-4.252
X2.0157Y-4.252
X8.4252Y-4.252
X8.5433Y-4.252
T3
X1.752Y-1.9685
X1.752Y-2.6378
X1.752Y-3.3071
X2.185Y-1.9685
X2.185Y-2.6378
X2.185Y-3.3071
X2.4606Y-1.9685
X2.4606Y-2.6378
X2.4606Y-3.3071
X2.8937Y-1.9685
X2.8937Y-2.6378
X2.8937Y-3.3071
X3.1693Y-1.9685
X3.1693Y-2.6378
X3.1693Y-3.3071
X3.1693Y-3.9764
X3.6024Y-1.9685
X3.6024Y-2.6378
X3.6024Y-3.3071
X3.6024Y-3.9764
X3.878Y-1.9685
X3.878Y-2.6378
X3.878Y-3.3071
X3.878Y-3.9764
X4.311Y-1.9685
X4.311Y-2.6378
X4.311Y-3.3071
X4.311Y-3.9764
X4.5866Y-1.9685
X4.5866Y-2.6378
X4.5866Y-3.3071
X4.5866Y-3.9764
X5.0197Y-1.9685
X5.0197Y-2.6378
X5.0197Y-3.3071
X5.0197Y-3.9764
X5.4213Y-1.9685
X5.4213Y-2.6378
X5.4213Y-3.3071
X5.4213Y-3.9764
X5.8543Y-1.9685
X5.8543Y-2.6378
X5.8543Y-3.3071
X5.8543Y-3.9764
X6.1299Y-1.9685
X6.1299Y-2.6378
X6.1299Y-3.3071
X6.1299Y-3.9764
X6.563Y-1.9685
X6.563Y-2.6378
X6.563Y-3.3071
X6.563Y-3.9764
X6.8386Y-1.9685
X6.8386Y-2.6378
X6.8386Y-3.3071
X6.8386Y-3.9764
X7.2717Y-1.9685
X7.2717Y-2.6378
X7.2717Y-3.3071
X7.2717Y-3.9764
X7.5472Y-1.9685
X7.5472Y-2.6378
X7.5472Y-3.3071
X7.9803Y-1.9685
X7.9803Y-2.6378
X7.9803Y-3.3071
X8.2559Y-1.9685
X8.2559Y-2.6378
X8.2559Y-3.3071
X8.689Y-1.9685
X8.689Y-2.6378
X8.689Y-3.3071
T4
X1.7717Y-2.1181
X1.9685Y-2.2008
X1.9685Y-2.4055
X1.9685Y-3.0748
X2.1654Y-2.4882
X2.1654Y-3.1575
X2.4803Y-2.1181
X2.6772Y-2.2008
X2.6772Y-2.4055
X2.6772Y-3.0748
X2.874Y-2.4882
X2.874Y-3.1575
X3.189Y-2.1181
X3.3858Y-2.2008
X3.3858Y-2.4055
X3.3858Y-3.0748
X3.3858Y-3.7441
X3.5827Y-2.4882
X3.5827Y-3.1575
X3.5827Y-3.8268
X3.8976Y-2.1181
X4.0945Y-2.2008
X4.0945Y-2.4055
X4.0945Y-3.0748
X4.0945Y-3.7441
X4.2913Y-2.4882
X4.2913Y-3.1575
X4.2913Y-3.8268
X4.6063Y-2.1181
X4.8031Y-2.2008
X4.8031Y-2.4055
X4.8031Y-3.0748
X4.8031Y-3.7441
X5.0Y-2.4882
X5.0Y-3.1575
X5.0Y-3.8268
X5.4409Y-2.1181
X5.6378Y-2.2008
X5.6378Y-2.4055
X5.6378Y-3.0748
X5.6378Y-3.7441
X5.8346Y-2.4882
X5.8346Y-3.1575
X5.8346Y-3.8268
X6.1496Y-2.1181
X6.3465Y-2.2008
X6.3465Y-2.4055
X6.3465Y-3.0748
X6.3465Y-3.7441
X6.5433Y-2.4882
X6.5433Y-3.1575
X6.5433Y-3.8268
X6.8583Y-2.1181
X7.0551Y-2.2008
X7.0551Y-2.4055
X7.0551Y-3.0748
X7.0551Y-3.7441
X7.252Y-2.4882
X7.252Y-3.1575
X7.252Y-3.8268
X7.5669Y-2.1181
X7.7638Y-2.2008
X7.7638Y-2.4055
X7.7638Y-3.0748
X7.9606Y-2.4882
X7.9606Y-3.1575
X8.2756Y-2.1181
X8.4724Y-2.2008
X8.4724Y-2.4055
X8.4724Y-3.0748
X8.6693Y-2.4882
X8.6693Y-3.1575
T5
X1.9685Y-1.9685
X1.9685Y-2.6378
X1.9685Y-3.3071
X2.6772Y-1.9685
X2.6772Y-2.6378
X2.6772Y-3.3071
X3.3858Y-1.9685
X3.3858Y-2.6378
X3.3858Y-3.3071
X3.3858Y-3.9764
X4.0945Y-1.9685
X4.0945Y-2.6378
X4.0945Y-3.3071
X4.0945Y-3.9764
X4.8031Y-1.9685
X4.8031Y-2.6378
X4.8031Y-3.3071
X4.8031Y-3.9764
X5.6378Y-1.9685
X5.6378Y-2.6378
X5.6378Y-3.3071
X5.6378Y-3.9764
X6.3465Y-1.9685
X6.3465Y-2.6378
X6.3465Y-3.3071
X6.3465Y-3.9764
X7.0551Y-1.9685
X7.0551Y-2.6378
X7.0551Y-3.3071
X7.0551Y-3.9764
X7.7638Y-1.9685
X7.7638Y-2.6378
X7.7638Y-3.3071
X8.4724Y-1.9685
X8.4724Y-2.6378
X8.4724Y-3.3071
M30
