M48
; DRILL file {KiCad 8.0.1} date 2024-03-30T18:05:25+0500
; FORMAT={-:-/ absolute / inch / decimal}
; #@! TF.CreationDate,2024-03-30T18:05:25+05:00
; #@! TF.GenerationSoftware,Kicad,Pcbnew,8.0.1
; #@! TF.FileFunction,Plated,1,2,PTH
FMAT,2
INCH
; #@! TA.AperFunction,Plated,PTH,ViaDrill
T1C0.0118
; #@! TA.AperFunction,Plated,PTH,ComponentDrill
T2C0.0118
; #@! TA.AperFunction,Plated,PTH,ComponentDrill
T3C0.0236
; #@! TA.AperFunction,Plated,PTH,ComponentDrill
T4C0.0315
%
G90
G05
T1
X1.8307Y-2.4803
X1.8465Y-3.1535
X1.8466Y-3.5292
X1.8583Y-3.5
X1.9055Y-3.6791
X1.9055Y-3.998
X1.937Y-3.7441
X1.937Y-3.8307
X1.937Y-3.878
X1.937Y-3.9331
X1.9402Y-3.4252
X1.9567Y-4.2362
X1.9646Y-3.5984
X1.9843Y-4.0252
X2.0039Y-3.5984
X2.0118Y-2.8543
X2.0118Y-3.4843
X2.0512Y-3.3622
X2.062Y-4.1053
X2.0748Y-3.2441
X2.1063Y-2.126
X2.1112Y-3.4843
X2.1122Y-3.5167
X2.1723Y-4.2372
X2.2283Y-2.7756
X2.2352Y-3.378
X2.2441Y-4.252
X2.2638Y-2.5984
X2.2717Y-3.4803
X2.315Y-3.4803
X2.3386Y-3.5906
X2.3583Y-3.5039
X2.378Y-4.2323
X2.3819Y-2.5984
X2.3858Y-3.2441
X2.3898Y-3.3543
X2.3927Y-3.505
X2.3937Y-2.7756
X2.3937Y-2.8307
X2.4016Y-3.5512
X2.4449Y-3.5512
X2.4882Y-3.5512
X2.5315Y-3.5512
X2.5394Y-2.4803
X2.5394Y-3.1496
X2.5748Y-3.5512
X2.6181Y-3.5512
X2.6457Y-4.2402
X2.815Y-2.126
X3.248Y-2.4803
X3.248Y-3.1496
X3.248Y-3.8189
X3.3898Y-4.189
X3.5236Y-2.126
X3.9567Y-2.4803
X3.9567Y-3.1496
X3.9567Y-3.8189
X4.2323Y-2.126
X4.6654Y-2.4803
X4.6654Y-3.1496
X4.6654Y-3.8189
X4.9409Y-2.126
X5.5Y-2.4803
X5.5Y-3.1496
X5.5Y-3.8189
X5.7756Y-2.126
X6.2087Y-2.4803
X6.2087Y-3.1496
X6.2087Y-3.8189
X6.4843Y-2.126
X6.9173Y-2.4803
X6.9173Y-3.1496
X6.9173Y-3.8189
X7.1496Y-3.8661
X7.1496Y-4.0079
X7.1929Y-2.126
X7.626Y-2.4803
X7.626Y-3.1496
X7.7165Y-4.2598
X7.7441Y-3.6181
X7.8228Y-4.2441
X7.8386Y-2.8189
X7.8661Y-2.3425
X7.9016Y-2.126
X7.9114Y-4.2185
X7.9409Y-3.3976
X7.9961Y-3.5591
X7.9999Y-2.9016
X8.0276Y-2.8346
X8.0394Y-3.5591
X8.0591Y-2.8066
X8.064Y-2.5976
X8.0827Y-3.4606
X8.0827Y-3.5591
X8.126Y-3.4764
X8.126Y-3.5748
X8.1457Y-2.815
X8.1693Y-3.4606
X8.1693Y-3.5748
X8.1772Y-2.5984
X8.189Y-3.2441
X8.2047Y-3.4252
X8.2047Y-4.25
X8.2283Y-3.563
X8.2633Y-2.8824
X8.2874Y-3.6181
X8.3071Y-4.2421
X8.3425Y-3.5827
X8.3937Y-3.4252
X8.4291Y-2.5276
X8.437Y-3.5984
X8.4409Y-3.5039
X8.4646Y-3.4331
X8.4764Y-3.5984
X8.4921Y-2.8504
X8.4961Y-3.4016
X8.5039Y-3.7441
X8.5039Y-3.8031
X8.5039Y-3.8504
X8.5039Y-3.9331
X8.5354Y-3.6791
X8.5354Y-3.998
X8.6102Y-2.126
T2
X1.7008Y-4.1417
X1.7008Y-4.2205
X1.7402Y-4.1417
X1.7402Y-4.2205
X8.7008Y-4.1417
X8.7008Y-4.2205
X8.7402Y-4.1417
X8.7402Y-4.2205
T4
X3.7402Y-3.4055
X3.7402Y-3.4843
X3.7402Y-3.563
X3.7402Y-3.6417
X6.7008Y-3.4055
X6.7008Y-3.4843
X6.7008Y-3.563
X6.7008Y-3.6417
T3
G00X1.6712Y-4.0581
M15
G01X1.7192Y-4.0581
M16
G05
G00X1.6717Y-3.6191
M15
G01X1.7197Y-3.6191
M16
G05
G00X1.84Y-3.6191
M15
G01X1.8683Y-3.6191
M16
G05
G00X1.84Y-4.0581
M15
G01X1.8683Y-4.0581
M16
G05
G00X8.6014Y-3.6191
M15
G01X8.5731Y-3.6191
M16
G05
G00X8.6014Y-4.0581
M15
G01X8.5731Y-4.0581
M16
G05
G00X8.7697Y-4.0581
M15
G01X8.7217Y-4.0581
M16
G05
G00X8.7702Y-3.6191
M15
G01X8.7222Y-3.6191
M16
G05
M30
