%TF.GenerationSoftware,KiCad,Pcbnew,8.0.1*%
%TF.CreationDate,2024-03-30T18:05:25+05:00*%
%TF.ProjectId,pcb,7063622e-6b69-4636-9164-5f7063625858,rev?*%
%TF.SameCoordinates,Original*%
%TF.FileFunction,Legend,Top*%
%TF.FilePolarity,Positive*%
%FSLAX46Y46*%
G04 Gerber Fmt 4.6, Leading zero omitted, Abs format (unit mm)*
G04 Created by KiCad (PCBNEW 8.0.1) date 2024-03-30 18:05:25*
%MOMM*%
%LPD*%
G01*
G04 APERTURE LIST*
G04 Aperture macros list*
%AMRoundRect*
0 Rectangle with rounded corners*
0 $1 Rounding radius*
0 $2 $3 $4 $5 $6 $7 $8 $9 X,Y pos of 4 corners*
0 Add a 4 corners polygon primitive as box body*
4,1,4,$2,$3,$4,$5,$6,$7,$8,$9,$2,$3,0*
0 Add four circle primitives for the rounded corners*
1,1,$1+$1,$2,$3*
1,1,$1+$1,$4,$5*
1,1,$1+$1,$6,$7*
1,1,$1+$1,$8,$9*
0 Add four rect primitives between the rounded corners*
20,1,$1+$1,$2,$3,$4,$5,0*
20,1,$1+$1,$4,$5,$6,$7,0*
20,1,$1+$1,$6,$7,$8,$9,0*
20,1,$1+$1,$8,$9,$2,$3,0*%
G04 Aperture macros list end*
%ADD10C,0.125000*%
%ADD11C,0.120000*%
%ADD12C,0.100000*%
%ADD13C,0.300000*%
%ADD14C,1.900000*%
%ADD15C,3.050000*%
%ADD16C,3.450000*%
%ADD17RoundRect,0.200000X0.200000X0.275000X-0.200000X0.275000X-0.200000X-0.275000X0.200000X-0.275000X0*%
%ADD18RoundRect,0.112500X-0.187500X-0.112500X0.187500X-0.112500X0.187500X0.112500X-0.187500X0.112500X0*%
%ADD19RoundRect,0.225000X0.225000X0.250000X-0.225000X0.250000X-0.225000X-0.250000X0.225000X-0.250000X0*%
%ADD20RoundRect,0.135000X0.185000X-0.135000X0.185000X0.135000X-0.185000X0.135000X-0.185000X-0.135000X0*%
%ADD21RoundRect,0.112500X0.187500X0.112500X-0.187500X0.112500X-0.187500X-0.112500X0.187500X-0.112500X0*%
%ADD22O,2.219000X1.000000*%
%ADD23RoundRect,0.150000X-0.425000X0.150000X-0.425000X-0.150000X0.425000X-0.150000X0.425000X0.150000X0*%
%ADD24RoundRect,0.075000X-0.500000X0.075000X-0.500000X-0.075000X0.500000X-0.075000X0.500000X0.075000X0*%
%ADD25O,1.762000X1.000000*%
%ADD26C,0.800000*%
%ADD27RoundRect,0.150000X0.150000X-0.512500X0.150000X0.512500X-0.150000X0.512500X-0.150000X-0.512500X0*%
%ADD28RoundRect,0.135000X-0.185000X0.135000X-0.185000X-0.135000X0.185000X-0.135000X0.185000X0.135000X0*%
%ADD29R,1.350000X1.350000*%
%ADD30O,1.350000X1.350000*%
%ADD31RoundRect,0.135000X-0.135000X-0.185000X0.135000X-0.185000X0.135000X0.185000X-0.135000X0.185000X0*%
%ADD32RoundRect,0.150000X0.150000X-0.587500X0.150000X0.587500X-0.150000X0.587500X-0.150000X-0.587500X0*%
%ADD33RoundRect,0.175000X-0.175000X0.500000X-0.175000X-0.500000X0.175000X-0.500000X0.175000X0.500000X0*%
%ADD34RoundRect,0.175000X-0.500000X-0.175000X0.500000X-0.175000X0.500000X0.175000X-0.500000X0.175000X0*%
%ADD35RoundRect,0.175000X0.175000X-0.500000X0.175000X0.500000X-0.175000X0.500000X-0.175000X-0.500000X0*%
%ADD36R,0.800000X0.700000*%
%ADD37RoundRect,0.200000X-0.200000X-0.275000X0.200000X-0.275000X0.200000X0.275000X-0.200000X0.275000X0*%
%ADD38RoundRect,0.140000X0.140000X0.170000X-0.140000X0.170000X-0.140000X-0.170000X0.140000X-0.170000X0*%
%ADD39RoundRect,0.150000X0.425000X-0.150000X0.425000X0.150000X-0.425000X0.150000X-0.425000X-0.150000X0*%
%ADD40RoundRect,0.075000X0.500000X-0.075000X0.500000X0.075000X-0.500000X0.075000X-0.500000X-0.075000X0*%
%ADD41RoundRect,0.175000X0.500000X0.175000X-0.500000X0.175000X-0.500000X-0.175000X0.500000X-0.175000X0*%
%ADD42RoundRect,0.112500X-0.112500X0.187500X-0.112500X-0.187500X0.112500X-0.187500X0.112500X0.187500X0*%
%ADD43RoundRect,0.135000X0.135000X0.185000X-0.135000X0.185000X-0.135000X-0.185000X0.135000X-0.185000X0*%
%ADD44C,0.600000*%
%ADD45RoundRect,0.500000X0.500000X-0.000010X0.500000X0.000010X-0.500000X0.000010X-0.500000X-0.000010X0*%
%ADD46RoundRect,0.060000X0.740000X0.540000X-0.740000X0.540000X-0.740000X-0.540000X0.740000X-0.540000X0*%
%ADD47RoundRect,0.500000X-0.500000X0.000010X-0.500000X-0.000010X0.500000X-0.000010X0.500000X0.000010X0*%
%ADD48RoundRect,0.150000X-0.150000X0.512500X-0.150000X-0.512500X0.150000X-0.512500X0.150000X0.512500X0*%
%ADD49R,1.000000X0.800000*%
%ADD50C,0.900000*%
%ADD51R,0.700000X1.500000*%
%ADD52RoundRect,0.140000X-0.140000X-0.170000X0.140000X-0.170000X0.140000X0.170000X-0.140000X0.170000X0*%
%ADD53RoundRect,0.112500X0.112500X-0.187500X0.112500X0.187500X-0.112500X0.187500X-0.112500X-0.187500X0*%
G04 APERTURE END LIST*
D10*
X42058833Y-107504761D02*
X42058833Y-106895238D01*
X42363595Y-107199999D02*
X41754071Y-107199999D01*
X223258833Y-107504761D02*
X223258833Y-106895238D01*
X223563595Y-107199999D02*
X222954071Y-107199999D01*
X223258833Y-105504761D02*
X223258833Y-104895238D01*
X42058833Y-105504761D02*
X42058833Y-104895238D01*
D11*
%TO.C,SW26*%
X190100000Y-76900000D02*
X190100000Y-91100000D01*
X190100000Y-91100000D02*
X204300000Y-91100000D01*
X204300000Y-76900000D02*
X190100000Y-76900000D01*
X204300000Y-91100000D02*
X204300000Y-76900000D01*
%TO.C,SW2*%
X42900000Y-59900000D02*
X42900000Y-74100000D01*
X42900000Y-74100000D02*
X57100000Y-74100000D01*
X57100000Y-59900000D02*
X42900000Y-59900000D01*
X57100000Y-74100000D02*
X57100000Y-59900000D01*
%TO.C,SW10*%
X78900000Y-93900000D02*
X78900000Y-108100000D01*
X78900000Y-108100000D02*
X93100000Y-108100000D01*
X93100000Y-93900000D02*
X78900000Y-93900000D01*
X93100000Y-108100000D02*
X93100000Y-93900000D01*
%TO.C,SW14*%
X96900000Y-93900000D02*
X96900000Y-108100000D01*
X96900000Y-108100000D02*
X111100000Y-108100000D01*
X111100000Y-93900000D02*
X96900000Y-93900000D01*
X111100000Y-108100000D02*
X111100000Y-93900000D01*
%TO.C,R16*%
X206437258Y-52515000D02*
X205962742Y-52515000D01*
X206437258Y-53560000D02*
X205962742Y-53560000D01*
%TO.C,D24*%
X195589998Y-44350000D02*
X195589998Y-46050000D01*
X195589998Y-44350000D02*
X198249998Y-44350000D01*
X195589998Y-46050000D02*
X198249998Y-46050000D01*
%TO.C,C6*%
X59140580Y-84690000D02*
X58859420Y-84690000D01*
X59140580Y-85710000D02*
X58859420Y-85710000D01*
%TO.C,SW36*%
X136100000Y-59900000D02*
X136100000Y-74100000D01*
X136100000Y-74100000D02*
X150300000Y-74100000D01*
X150300000Y-59900000D02*
X136100000Y-59900000D01*
X150300000Y-74100000D02*
X150300000Y-59900000D01*
%TO.C,R14*%
X213920000Y-92753641D02*
X213920000Y-92446359D01*
X214680000Y-92753641D02*
X214680000Y-92446359D01*
%TO.C,SW15*%
X114900000Y-42900000D02*
X114900000Y-57100000D01*
X114900000Y-57100000D02*
X129100000Y-57100000D01*
X129100000Y-42900000D02*
X114900000Y-42900000D01*
X129100000Y-57100000D02*
X129100000Y-42900000D01*
%TO.C,D2*%
X51610000Y-70950000D02*
X48950000Y-70950000D01*
X51610000Y-72650000D02*
X48950000Y-72650000D01*
X51610000Y-72650000D02*
X51610000Y-70950000D01*
%TO.C,D30*%
X180810000Y-104950000D02*
X178150000Y-104950000D01*
X180810000Y-106650000D02*
X178150000Y-106650000D01*
X180810000Y-106650000D02*
X180810000Y-104950000D01*
%TO.C,SW9*%
X78900000Y-76900000D02*
X78900000Y-91100000D01*
X78900000Y-91100000D02*
X93100000Y-91100000D01*
X93100000Y-76900000D02*
X78900000Y-76900000D01*
X93100000Y-91100000D02*
X93100000Y-76900000D01*
%TO.C,U6*%
X204640000Y-82400000D02*
X204640000Y-81600000D01*
X204640000Y-82400000D02*
X204640000Y-83200000D01*
X207760000Y-82400000D02*
X207760000Y-81600000D01*
X207760000Y-82400000D02*
X207760000Y-83200000D01*
X204690000Y-83700000D02*
X204360000Y-83940000D01*
X204360000Y-83460000D01*
X204690000Y-83700000D01*
G36*
X204690000Y-83700000D02*
G01*
X204360000Y-83940000D01*
X204360000Y-83460000D01*
X204690000Y-83700000D01*
G37*
%TO.C,D31*%
X159589998Y-44350000D02*
X159589998Y-46050000D01*
X159589998Y-44350000D02*
X162249998Y-44350000D01*
X159589998Y-46050000D02*
X162249998Y-46050000D01*
%TO.C,D14*%
X105610000Y-104950000D02*
X102950000Y-104950000D01*
X105610000Y-106650000D02*
X102950000Y-106650000D01*
X105610000Y-106650000D02*
X105610000Y-104950000D01*
%TO.C,D11*%
X102390000Y-44350000D02*
X102390000Y-46050000D01*
X102390000Y-44350000D02*
X105050000Y-44350000D01*
X102390000Y-46050000D02*
X105050000Y-46050000D01*
%TO.C,C4*%
X59140580Y-68290000D02*
X58859420Y-68290000D01*
X59140580Y-69310000D02*
X58859420Y-69310000D01*
%TO.C,R3*%
X49720000Y-100053641D02*
X49720000Y-99746359D01*
X50480000Y-100053641D02*
X50480000Y-99746359D01*
%TO.C,R13*%
X214720000Y-94946359D02*
X214720000Y-95253641D01*
X215480000Y-94946359D02*
X215480000Y-95253641D01*
%TO.C,D22*%
X216810000Y-70950000D02*
X214150000Y-70950000D01*
X216810000Y-72650000D02*
X214150000Y-72650000D01*
X216810000Y-72650000D02*
X216810000Y-70950000D01*
%TO.C,SW27*%
X172099998Y-42900000D02*
X172099998Y-57100000D01*
X172099998Y-57100000D02*
X186299998Y-57100000D01*
X186299998Y-42900000D02*
X172099998Y-42900000D01*
X186299998Y-57100000D02*
X186299998Y-42900000D01*
%TO.C,SW18*%
X114900000Y-93900000D02*
X114900000Y-108100000D01*
X114900000Y-108100000D02*
X129100000Y-108100000D01*
X129100000Y-93900000D02*
X114900000Y-93900000D01*
X129100000Y-108100000D02*
X129100000Y-93900000D01*
%TO.C,R5*%
X50520000Y-92446359D02*
X50520000Y-92753641D01*
X51280000Y-92446359D02*
X51280000Y-92753641D01*
%TO.C,SW38*%
X136100000Y-93900000D02*
X136100000Y-108100000D01*
X136100000Y-108100000D02*
X150300000Y-108100000D01*
X150300000Y-93900000D02*
X136100000Y-93900000D01*
X150300000Y-108100000D02*
X150300000Y-93900000D01*
%TO.C,J2*%
X93940000Y-85440000D02*
X95000000Y-85440000D01*
X93940000Y-86500000D02*
X93940000Y-85440000D01*
X93940000Y-87500000D02*
X93940000Y-93560000D01*
X93940000Y-87500000D02*
X96060000Y-87500000D01*
X93940000Y-93560000D02*
X96060000Y-93560000D01*
X96060000Y-87500000D02*
X96060000Y-93560000D01*
%TO.C,R4*%
X49520000Y-92753641D02*
X49520000Y-92446359D01*
X50280000Y-92753641D02*
X50280000Y-92446359D01*
%TO.C,SW17*%
X114900000Y-76900000D02*
X114900000Y-91100000D01*
X114900000Y-91100000D02*
X129100000Y-91100000D01*
X129100000Y-76900000D02*
X114900000Y-76900000D01*
X129100000Y-91100000D02*
X129100000Y-76900000D01*
%TO.C,R10*%
X61546359Y-107120000D02*
X61853641Y-107120000D01*
X61546359Y-107880000D02*
X61853641Y-107880000D01*
%TO.C,C3*%
X59140580Y-62690000D02*
X58859420Y-62690000D01*
X59140580Y-63710000D02*
X58859420Y-63710000D01*
%TO.C,Q2*%
X204640000Y-48437500D02*
X204640000Y-47787500D01*
X204640000Y-48437500D02*
X204640000Y-49087500D01*
X207760000Y-48437500D02*
X207760000Y-47787500D01*
X207760000Y-48437500D02*
X207760000Y-49087500D01*
X204690000Y-49600000D02*
X204360000Y-49840000D01*
X204360000Y-49360000D01*
X204690000Y-49600000D01*
G36*
X204690000Y-49600000D02*
G01*
X204360000Y-49840000D01*
X204360000Y-49360000D01*
X204690000Y-49600000D01*
G37*
%TO.C,SW4*%
X60900000Y-42900000D02*
X60900000Y-57100000D01*
X60900000Y-57100000D02*
X75100000Y-57100000D01*
X75100000Y-42900000D02*
X60900000Y-42900000D01*
X75100000Y-57100000D02*
X75100000Y-42900000D01*
%TO.C,D13*%
X105610000Y-87950000D02*
X102950000Y-87950000D01*
X105610000Y-89650000D02*
X102950000Y-89650000D01*
X105610000Y-89650000D02*
X105610000Y-87950000D01*
%TO.C,D38*%
X144810000Y-104950000D02*
X142150000Y-104950000D01*
X144810000Y-106650000D02*
X142150000Y-106650000D01*
X144810000Y-106650000D02*
X144810000Y-104950000D01*
%TO.C,SW7*%
X78900000Y-42900000D02*
X78900000Y-57100000D01*
X78900000Y-57100000D02*
X93100000Y-57100000D01*
X93100000Y-42900000D02*
X78900000Y-42900000D01*
X93100000Y-57100000D02*
X93100000Y-42900000D01*
%TO.C,SW20*%
X65200000Y-108600000D02*
X68400000Y-108600000D01*
X68400000Y-106800000D02*
X65200000Y-106800000D01*
%TO.C,D25*%
X198810000Y-70950000D02*
X196150000Y-70950000D01*
X198810000Y-72650000D02*
X196150000Y-72650000D01*
X198810000Y-72650000D02*
X198810000Y-70950000D01*
%TO.C,C11*%
X206340580Y-69790000D02*
X206059420Y-69790000D01*
X206340580Y-70810000D02*
X206059420Y-70810000D01*
%TO.C,SW23*%
X208100000Y-76900000D02*
X208100000Y-91100000D01*
X208100000Y-91100000D02*
X222300000Y-91100000D01*
X222300000Y-76900000D02*
X208100000Y-76900000D01*
X222300000Y-91100000D02*
X222300000Y-76900000D01*
%TO.C,D9*%
X87610000Y-87950000D02*
X84950000Y-87950000D01*
X87610000Y-89650000D02*
X84950000Y-89650000D01*
X87610000Y-89650000D02*
X87610000Y-87950000D01*
%TO.C,D7*%
X84390000Y-44350000D02*
X84390000Y-46050000D01*
X84390000Y-44350000D02*
X87050000Y-44350000D01*
X84390000Y-46050000D02*
X87050000Y-46050000D01*
%TO.C,SW16*%
X114900000Y-59900000D02*
X114900000Y-74100000D01*
X114900000Y-74100000D02*
X129100000Y-74100000D01*
X129100000Y-59900000D02*
X114900000Y-59900000D01*
X129100000Y-74100000D02*
X129100000Y-59900000D01*
%TO.C,D27*%
X177589998Y-44350000D02*
X177589998Y-46050000D01*
X177589998Y-44350000D02*
X180249998Y-44350000D01*
X177589998Y-46050000D02*
X180249998Y-46050000D01*
%TO.C,D6*%
X69610000Y-87950000D02*
X66950000Y-87950000D01*
X69610000Y-89650000D02*
X66950000Y-89650000D01*
X69610000Y-89650000D02*
X69610000Y-87950000D01*
%TO.C,C2*%
X59140580Y-54027500D02*
X58859420Y-54027500D01*
X59140580Y-55047500D02*
X58859420Y-55047500D01*
%TO.C,SW12*%
X96900000Y-59900000D02*
X96900000Y-74100000D01*
X96900000Y-74100000D02*
X111100000Y-74100000D01*
X111100000Y-59900000D02*
X96900000Y-59900000D01*
X111100000Y-74100000D02*
X111100000Y-59900000D01*
%TO.C,SW34*%
X154100000Y-93900000D02*
X154100000Y-108100000D01*
X154100000Y-108100000D02*
X168300000Y-108100000D01*
X168300000Y-93900000D02*
X154100000Y-93900000D01*
X168300000Y-108100000D02*
X168300000Y-93900000D01*
%TO.C,SW35*%
X136099998Y-42900000D02*
X136099998Y-57100000D01*
X136099998Y-57100000D02*
X150299998Y-57100000D01*
X150299998Y-42900000D02*
X136099998Y-42900000D01*
X150299998Y-57100000D02*
X150299998Y-42900000D01*
%TO.C,SW6*%
X60900000Y-76900000D02*
X60900000Y-91100000D01*
X60900000Y-91100000D02*
X75100000Y-91100000D01*
X75100000Y-76900000D02*
X60900000Y-76900000D01*
X75100000Y-91100000D02*
X75100000Y-76900000D01*
%TO.C,D34*%
X162810000Y-104950000D02*
X160150000Y-104950000D01*
X162810000Y-106650000D02*
X160150000Y-106650000D01*
X162810000Y-106650000D02*
X162810000Y-104950000D01*
%TO.C,J4*%
X169140000Y-85440000D02*
X170200000Y-85440000D01*
X169140000Y-86500000D02*
X169140000Y-85440000D01*
X169140000Y-87500000D02*
X169140000Y-93560000D01*
X169140000Y-87500000D02*
X171260000Y-87500000D01*
X169140000Y-93560000D02*
X171260000Y-93560000D01*
X171260000Y-87500000D02*
X171260000Y-93560000D01*
%TO.C,R7*%
X58762742Y-79077500D02*
X59237258Y-79077500D01*
X58762742Y-80122500D02*
X59237258Y-80122500D01*
%TO.C,C5*%
X59140580Y-69790000D02*
X58859420Y-69790000D01*
X59140580Y-70810000D02*
X58859420Y-70810000D01*
%TO.C,C7*%
X216507836Y-88040000D02*
X216292164Y-88040000D01*
X216507836Y-88760000D02*
X216292164Y-88760000D01*
%TO.C,SW37*%
X136100000Y-76900000D02*
X136100000Y-91100000D01*
X136100000Y-91100000D02*
X150300000Y-91100000D01*
X150300000Y-76900000D02*
X136100000Y-76900000D01*
X150300000Y-91100000D02*
X150300000Y-76900000D01*
%TO.C,D4*%
X66390000Y-44350000D02*
X66390000Y-46050000D01*
X66390000Y-44350000D02*
X69050000Y-44350000D01*
X66390000Y-46050000D02*
X69050000Y-46050000D01*
%TO.C,D10*%
X87610000Y-104950000D02*
X84950000Y-104950000D01*
X87610000Y-106650000D02*
X84950000Y-106650000D01*
X87610000Y-106650000D02*
X87610000Y-104950000D01*
%TO.C,D17*%
X123610000Y-87950000D02*
X120950000Y-87950000D01*
X123610000Y-89650000D02*
X120950000Y-89650000D01*
X123610000Y-89650000D02*
X123610000Y-87950000D01*
%TO.C,SW28*%
X172100000Y-59900000D02*
X172100000Y-74100000D01*
X172100000Y-74100000D02*
X186300000Y-74100000D01*
X186300000Y-59900000D02*
X172100000Y-59900000D01*
X186300000Y-74100000D02*
X186300000Y-59900000D01*
%TO.C,SW30*%
X172100000Y-93900000D02*
X172100000Y-108100000D01*
X172100000Y-108100000D02*
X186300000Y-108100000D01*
X186300000Y-93900000D02*
X172100000Y-93900000D01*
X186300000Y-108100000D02*
X186300000Y-93900000D01*
%TO.C,SW25*%
X190100000Y-59900000D02*
X190100000Y-74100000D01*
X190100000Y-74100000D02*
X204300000Y-74100000D01*
X204300000Y-59900000D02*
X190100000Y-59900000D01*
X204300000Y-74100000D02*
X204300000Y-59900000D01*
%TO.C,D33*%
X162810000Y-87950000D02*
X160150000Y-87950000D01*
X162810000Y-89650000D02*
X160150000Y-89650000D01*
X162810000Y-89650000D02*
X162810000Y-87950000D01*
%TO.C,D5*%
X69610000Y-70950000D02*
X66950000Y-70950000D01*
X69610000Y-72650000D02*
X66950000Y-72650000D01*
X69610000Y-72650000D02*
X69610000Y-70950000D01*
%TO.C,D3*%
X49950000Y-87190000D02*
X49950000Y-89850000D01*
X51650000Y-87190000D02*
X49950000Y-87190000D01*
X51650000Y-87190000D02*
X51650000Y-89850000D01*
%TO.C,C12*%
X206340580Y-84690000D02*
X206059420Y-84690000D01*
X206340580Y-85710000D02*
X206059420Y-85710000D01*
%TO.C,SW40*%
X196800000Y-108600000D02*
X200000000Y-108600000D01*
X200000000Y-106800000D02*
X196800000Y-106800000D01*
%TO.C,D18*%
X123610000Y-104950000D02*
X120950000Y-104950000D01*
X123610000Y-106650000D02*
X120950000Y-106650000D01*
X123610000Y-106650000D02*
X123610000Y-104950000D01*
%TO.C,R11*%
X216553641Y-89020000D02*
X216246359Y-89020000D01*
X216553641Y-89780000D02*
X216246359Y-89780000D01*
D12*
%TO.C,H2*%
X43200000Y-106600000D02*
X44200000Y-106600000D01*
X43200000Y-107800000D02*
X44200000Y-107800000D01*
X43200000Y-107800000D02*
G75*
G02*
X43200000Y-106600000I0J600000D01*
G01*
X44200000Y-106600000D02*
G75*
G02*
X44200000Y-107800000I0J-600000D01*
G01*
D11*
%TO.C,D1*%
X48390000Y-44350000D02*
X48390000Y-46050000D01*
X48390000Y-44350000D02*
X51050000Y-44350000D01*
X48390000Y-46050000D02*
X51050000Y-46050000D01*
D12*
%TO.C,D20*%
X54200000Y-108200000D02*
X58200000Y-108200000D01*
D13*
X54700000Y-108100000D02*
X57700000Y-108100000D01*
D11*
X58400000Y-109700000D02*
X59000000Y-109700000D01*
X59000000Y-108100000D02*
X58400000Y-108100000D01*
X59000000Y-109700000D02*
X59000000Y-108100000D01*
%TO.C,R1*%
X48646359Y-89020000D02*
X48953641Y-89020000D01*
X48646359Y-89780000D02*
X48953641Y-89780000D01*
%TO.C,D8*%
X87610000Y-70950000D02*
X84950000Y-70950000D01*
X87610000Y-72650000D02*
X84950000Y-72650000D01*
X87610000Y-72650000D02*
X87610000Y-70950000D01*
%TO.C,SW29*%
X172100000Y-76900000D02*
X172100000Y-91100000D01*
X172100000Y-91100000D02*
X186300000Y-91100000D01*
X186300000Y-76900000D02*
X172100000Y-76900000D01*
X186300000Y-91100000D02*
X186300000Y-76900000D01*
%TO.C,D35*%
X141589998Y-44350000D02*
X141589998Y-46050000D01*
X141589998Y-44350000D02*
X144249998Y-44350000D01*
X141589998Y-46050000D02*
X144249998Y-46050000D01*
%TO.C,R2*%
X49720000Y-95253641D02*
X49720000Y-94946359D01*
X50480000Y-95253641D02*
X50480000Y-94946359D01*
%TO.C,R15*%
X214920000Y-92446359D02*
X214920000Y-92753641D01*
X215680000Y-92446359D02*
X215680000Y-92753641D01*
%TO.C,C9*%
X206340580Y-62690000D02*
X206059420Y-62690000D01*
X206340580Y-63710000D02*
X206059420Y-63710000D01*
%TO.C,R12*%
X214720000Y-99746359D02*
X214720000Y-100053641D01*
X215480000Y-99746359D02*
X215480000Y-100053641D01*
D12*
%TO.C,D40*%
X207000000Y-108200000D02*
X211000000Y-108200000D01*
D13*
X207500000Y-108100000D02*
X210500000Y-108100000D01*
D11*
X211200000Y-109700000D02*
X211800000Y-109700000D01*
X211800000Y-108100000D02*
X211200000Y-108100000D01*
X211800000Y-109700000D02*
X211800000Y-108100000D01*
%TO.C,C10*%
X206340580Y-68290000D02*
X206059420Y-68290000D01*
X206340580Y-69310000D02*
X206059420Y-69310000D01*
%TO.C,SW1*%
X42900000Y-42900000D02*
X42900000Y-57100000D01*
X42900000Y-57100000D02*
X57100000Y-57100000D01*
X57100000Y-42900000D02*
X42900000Y-42900000D01*
X57100000Y-57100000D02*
X57100000Y-42900000D01*
%TO.C,D12*%
X105610000Y-70950000D02*
X102950000Y-70950000D01*
X105610000Y-72650000D02*
X102950000Y-72650000D01*
X105610000Y-72650000D02*
X105610000Y-70950000D01*
%TO.C,SW11*%
X96900000Y-42900000D02*
X96900000Y-57100000D01*
X96900000Y-57100000D02*
X111100000Y-57100000D01*
X111100000Y-42900000D02*
X96900000Y-42900000D01*
X111100000Y-57100000D02*
X111100000Y-42900000D01*
D12*
%TO.C,H4*%
X222000000Y-106600000D02*
X221000000Y-106600000D01*
X222000000Y-107800000D02*
X221000000Y-107800000D01*
X221000000Y-107800000D02*
G75*
G02*
X221000000Y-106600000I0J600000D01*
G01*
X222000000Y-106600000D02*
G75*
G02*
X222000000Y-107800000I0J-600000D01*
G01*
D11*
%TO.C,D28*%
X180810000Y-70950000D02*
X178150000Y-70950000D01*
X180810000Y-72650000D02*
X178150000Y-72650000D01*
X180810000Y-72650000D02*
X180810000Y-70950000D01*
%TO.C,D21*%
X213589998Y-44350000D02*
X213589998Y-46050000D01*
X213589998Y-44350000D02*
X216249998Y-44350000D01*
X213589998Y-46050000D02*
X216249998Y-46050000D01*
%TO.C,U5*%
X204640000Y-66000000D02*
X204640000Y-65200000D01*
X204640000Y-66000000D02*
X204640000Y-66800000D01*
X207760000Y-66000000D02*
X207760000Y-65200000D01*
X207760000Y-66000000D02*
X207760000Y-66800000D01*
X208040000Y-64940000D02*
X207710000Y-64700000D01*
X208040000Y-64460000D01*
X208040000Y-64940000D01*
G36*
X208040000Y-64940000D02*
G01*
X207710000Y-64700000D01*
X208040000Y-64460000D01*
X208040000Y-64940000D01*
G37*
%TO.C,Q1*%
X57440000Y-48437500D02*
X57440000Y-47787500D01*
X57440000Y-48437500D02*
X57440000Y-49087500D01*
X60560000Y-48437500D02*
X60560000Y-47787500D01*
X60560000Y-48437500D02*
X60560000Y-49087500D01*
X57490000Y-49600000D02*
X57160000Y-49840000D01*
X57160000Y-49360000D01*
X57490000Y-49600000D01*
G36*
X57490000Y-49600000D02*
G01*
X57160000Y-49840000D01*
X57160000Y-49360000D01*
X57490000Y-49600000D01*
G37*
%TO.C,D19*%
X60610000Y-50487500D02*
X57950000Y-50487500D01*
X60610000Y-52187500D02*
X57950000Y-52187500D01*
X60610000Y-52187500D02*
X60610000Y-50487500D01*
%TO.C,D39*%
X207810000Y-50487500D02*
X205150000Y-50487500D01*
X207810000Y-52187500D02*
X205150000Y-52187500D01*
X207810000Y-52187500D02*
X207810000Y-50487500D01*
%TO.C,SW5*%
X60900000Y-59900000D02*
X60900000Y-74100000D01*
X60900000Y-74100000D02*
X75100000Y-74100000D01*
X75100000Y-59900000D02*
X60900000Y-59900000D01*
X75100000Y-74100000D02*
X75100000Y-59900000D01*
%TO.C,SW33*%
X154100000Y-76900000D02*
X154100000Y-91100000D01*
X154100000Y-91100000D02*
X168300000Y-91100000D01*
X168300000Y-76900000D02*
X154100000Y-76900000D01*
X168300000Y-91100000D02*
X168300000Y-76900000D01*
%TO.C,R8*%
X58762742Y-86177500D02*
X59237258Y-86177500D01*
X58762742Y-87222500D02*
X59237258Y-87222500D01*
%TO.C,U2*%
X57440000Y-82400000D02*
X57440000Y-81600000D01*
X57440000Y-82400000D02*
X57440000Y-83200000D01*
X60560000Y-82400000D02*
X60560000Y-81600000D01*
X60560000Y-82400000D02*
X60560000Y-83200000D01*
X57490000Y-83700000D02*
X57160000Y-83940000D01*
X57160000Y-83460000D01*
X57490000Y-83700000D01*
G36*
X57490000Y-83700000D02*
G01*
X57160000Y-83940000D01*
X57160000Y-83460000D01*
X57490000Y-83700000D01*
G37*
%TO.C,R6*%
X59237258Y-52515000D02*
X58762742Y-52515000D01*
X59237258Y-53560000D02*
X58762742Y-53560000D01*
%TO.C,R17*%
X205962742Y-79077500D02*
X206437258Y-79077500D01*
X205962742Y-80122500D02*
X206437258Y-80122500D01*
%TO.C,SW19*%
X47100000Y-107500000D02*
X47100000Y-108300000D01*
X47500000Y-106600000D02*
X48200000Y-106600000D01*
X47600000Y-109380000D02*
X51800000Y-109380000D01*
X51200000Y-106600000D02*
X51900000Y-106600000D01*
X52300000Y-108300000D02*
X52300000Y-107500000D01*
%TO.C,D15*%
X120390000Y-44350000D02*
X120390000Y-46050000D01*
X120390000Y-44350000D02*
X123050000Y-44350000D01*
X120390000Y-46050000D02*
X123050000Y-46050000D01*
%TO.C,D37*%
X144810000Y-87950000D02*
X142150000Y-87950000D01*
X144810000Y-89650000D02*
X142150000Y-89650000D01*
X144810000Y-89650000D02*
X144810000Y-87950000D01*
%TO.C,R20*%
X198353641Y-89020000D02*
X198046359Y-89020000D01*
X198353641Y-89780000D02*
X198046359Y-89780000D01*
D12*
%TO.C,H3*%
X222000000Y-104600000D02*
X221000000Y-104600000D01*
X222000000Y-105800000D02*
X221000000Y-105800000D01*
X221000000Y-105800000D02*
G75*
G02*
X221000000Y-104600000I0J600000D01*
G01*
X222000000Y-104600000D02*
G75*
G02*
X222000000Y-105800000I0J-600000D01*
G01*
D11*
%TO.C,SW24*%
X190099998Y-42900000D02*
X190099998Y-57100000D01*
X190099998Y-57100000D02*
X204299998Y-57100000D01*
X204299998Y-42900000D02*
X190099998Y-42900000D01*
X204299998Y-57100000D02*
X204299998Y-42900000D01*
%TO.C,C1*%
X48692164Y-88040000D02*
X48907836Y-88040000D01*
X48692164Y-88760000D02*
X48907836Y-88760000D01*
%TO.C,D16*%
X123610000Y-70950000D02*
X120950000Y-70950000D01*
X123610000Y-72650000D02*
X120950000Y-72650000D01*
X123610000Y-72650000D02*
X123610000Y-70950000D01*
%TO.C,SW32*%
X154100000Y-59900000D02*
X154100000Y-74100000D01*
X154100000Y-74100000D02*
X168300000Y-74100000D01*
X168300000Y-59900000D02*
X154100000Y-59900000D01*
X168300000Y-74100000D02*
X168300000Y-59900000D01*
%TO.C,R18*%
X205962742Y-86177500D02*
X206437258Y-86177500D01*
X205962742Y-87222500D02*
X206437258Y-87222500D01*
%TO.C,R19*%
X198046359Y-88020000D02*
X198353641Y-88020000D01*
X198046359Y-88780000D02*
X198353641Y-88780000D01*
%TO.C,SW3*%
X42900000Y-76900000D02*
X42900000Y-91100000D01*
X42900000Y-91100000D02*
X57100000Y-91100000D01*
X57100000Y-76900000D02*
X42900000Y-76900000D01*
X57100000Y-91100000D02*
X57100000Y-76900000D01*
%TO.C,D23*%
X213550000Y-90365000D02*
X213550000Y-87705000D01*
X213550000Y-90365000D02*
X215250000Y-90365000D01*
X215250000Y-90365000D02*
X215250000Y-87705000D01*
%TO.C,D32*%
X162810000Y-70950000D02*
X160150000Y-70950000D01*
X162810000Y-72650000D02*
X160150000Y-72650000D01*
X162810000Y-72650000D02*
X162810000Y-70950000D01*
%TO.C,SW39*%
X212900000Y-107500000D02*
X212900000Y-108300000D01*
X213300000Y-106600000D02*
X214000000Y-106600000D01*
X213400000Y-109380000D02*
X217600000Y-109380000D01*
X217000000Y-106600000D02*
X217700000Y-106600000D01*
X218100000Y-108300000D02*
X218100000Y-107500000D01*
%TO.C,SW8*%
X78900000Y-59900000D02*
X78900000Y-74100000D01*
X78900000Y-74100000D02*
X93100000Y-74100000D01*
X93100000Y-59900000D02*
X78900000Y-59900000D01*
X93100000Y-74100000D02*
X93100000Y-59900000D01*
%TO.C,D36*%
X144810000Y-70950000D02*
X142150000Y-70950000D01*
X144810000Y-72650000D02*
X142150000Y-72650000D01*
X144810000Y-72650000D02*
X144810000Y-70950000D01*
%TO.C,D29*%
X180810000Y-87950000D02*
X178150000Y-87950000D01*
X180810000Y-89650000D02*
X178150000Y-89650000D01*
X180810000Y-89650000D02*
X180810000Y-87950000D01*
%TO.C,U3*%
X57440000Y-66000000D02*
X57440000Y-65200000D01*
X57440000Y-66000000D02*
X57440000Y-66800000D01*
X60560000Y-66000000D02*
X60560000Y-65200000D01*
X60560000Y-66000000D02*
X60560000Y-66800000D01*
X60840000Y-64940000D02*
X60510000Y-64700000D01*
X60840000Y-64460000D01*
X60840000Y-64940000D01*
G36*
X60840000Y-64940000D02*
G01*
X60510000Y-64700000D01*
X60840000Y-64460000D01*
X60840000Y-64940000D01*
G37*
D12*
%TO.C,H1*%
X43200000Y-104600000D02*
X44200000Y-104600000D01*
X43200000Y-105800000D02*
X44200000Y-105800000D01*
X43200000Y-105800000D02*
G75*
G02*
X43200000Y-104600000I0J600000D01*
G01*
X44200000Y-104600000D02*
G75*
G02*
X44200000Y-105800000I0J-600000D01*
G01*
D11*
%TO.C,R9*%
X63546359Y-107120000D02*
X63853641Y-107120000D01*
X63546359Y-107880000D02*
X63853641Y-107880000D01*
%TO.C,C8*%
X206340580Y-54027500D02*
X206059420Y-54027500D01*
X206340580Y-55047500D02*
X206059420Y-55047500D01*
%TO.C,SW22*%
X208100000Y-59900000D02*
X208100000Y-74100000D01*
X208100000Y-74100000D02*
X222300000Y-74100000D01*
X222300000Y-59900000D02*
X208100000Y-59900000D01*
X222300000Y-74100000D02*
X222300000Y-59900000D01*
%TO.C,D26*%
X195450000Y-90365000D02*
X195450000Y-87705000D01*
X195450000Y-90365000D02*
X197150000Y-90365000D01*
X197150000Y-90365000D02*
X197150000Y-87705000D01*
%TO.C,SW21*%
X208099998Y-42900000D02*
X208099998Y-57100000D01*
X208099998Y-57100000D02*
X222299998Y-57100000D01*
X222299998Y-42900000D02*
X208099998Y-42900000D01*
X222299998Y-57100000D02*
X222299998Y-42900000D01*
%TO.C,SW13*%
X96900000Y-76900000D02*
X96900000Y-91100000D01*
X96900000Y-91100000D02*
X111100000Y-91100000D01*
X111100000Y-76900000D02*
X96900000Y-76900000D01*
X111100000Y-91100000D02*
X111100000Y-76900000D01*
%TO.C,SW31*%
X154099998Y-42900000D02*
X154099998Y-57100000D01*
X154099998Y-57100000D02*
X168299998Y-57100000D01*
X168299998Y-42900000D02*
X154099998Y-42900000D01*
X168299998Y-57100000D02*
X168299998Y-42900000D01*
%TD*%
%LPC*%
D14*
%TO.C,SW26*%
X191700000Y-84000000D03*
D15*
X197200000Y-78100000D03*
D16*
X197200000Y-84000000D03*
D15*
X202200000Y-80200000D03*
D14*
X202700000Y-84000000D03*
%TD*%
%TO.C,SW2*%
X44500000Y-67000000D03*
D15*
X50000000Y-61100000D03*
D16*
X50000000Y-67000000D03*
D15*
X55000000Y-63200000D03*
D14*
X55500000Y-67000000D03*
%TD*%
%TO.C,SW10*%
X80500000Y-101000000D03*
D15*
X86000000Y-95100000D03*
D16*
X86000000Y-101000000D03*
D15*
X91000000Y-97200000D03*
D14*
X91500000Y-101000000D03*
%TD*%
%TO.C,SW14*%
X98500000Y-101000000D03*
D15*
X104000000Y-95100000D03*
D16*
X104000000Y-101000000D03*
D15*
X109000000Y-97200000D03*
D14*
X109500000Y-101000000D03*
%TD*%
D17*
%TO.C,R16*%
X207025000Y-53037500D03*
X205375000Y-53037500D03*
%TD*%
D18*
%TO.C,D24*%
X196149998Y-45200000D03*
X198249998Y-45200000D03*
%TD*%
D19*
%TO.C,C6*%
X59775000Y-85200000D03*
X58225000Y-85200000D03*
%TD*%
D14*
%TO.C,SW36*%
X137700000Y-67000000D03*
D15*
X143200000Y-61100000D03*
D16*
X143200000Y-67000000D03*
D15*
X148200000Y-63200000D03*
D14*
X148700000Y-67000000D03*
%TD*%
D20*
%TO.C,R14*%
X214300000Y-93110000D03*
X214300000Y-92090000D03*
%TD*%
D14*
%TO.C,SW15*%
X127500000Y-50000000D03*
D15*
X122000000Y-55900000D03*
D16*
X122000000Y-50000000D03*
D15*
X117000000Y-53800000D03*
D14*
X116500000Y-50000000D03*
%TD*%
D21*
%TO.C,D2*%
X51050000Y-71800000D03*
X48950000Y-71800000D03*
%TD*%
D22*
%TO.C,J1*%
X43057400Y-103075300D03*
X43070100Y-91924700D03*
D23*
X48100000Y-94300000D03*
X48100000Y-95100000D03*
D24*
X48100000Y-96250000D03*
X48100000Y-97250000D03*
X48100000Y-97750000D03*
X48100000Y-98750000D03*
D23*
X48100000Y-99900000D03*
X48100000Y-100700000D03*
X48100000Y-100700000D03*
X48100000Y-99900000D03*
D24*
X48100000Y-99250000D03*
X48100000Y-98250000D03*
X48100000Y-96750000D03*
X48100000Y-95750000D03*
D23*
X48100000Y-95100000D03*
X48100000Y-94300000D03*
D25*
X47096000Y-103075400D03*
X47096000Y-91924700D03*
%TD*%
D21*
%TO.C,D30*%
X180250000Y-105800000D03*
X178150000Y-105800000D03*
%TD*%
D26*
%TO.C,P2*%
X131400000Y-51431400D03*
X133800000Y-51431400D03*
X131400000Y-50240700D03*
X133800000Y-50240700D03*
X131400000Y-49050000D03*
X133800000Y-49050000D03*
X131400000Y-47859300D03*
X133800000Y-47859300D03*
X131400000Y-46668600D03*
X133800000Y-46668600D03*
%TD*%
D14*
%TO.C,SW9*%
X80500000Y-84000000D03*
D15*
X86000000Y-78100000D03*
D16*
X86000000Y-84000000D03*
D15*
X91000000Y-80200000D03*
D14*
X91500000Y-84000000D03*
%TD*%
D27*
%TO.C,U6*%
X205250000Y-83537500D03*
X206200000Y-83537500D03*
X207150000Y-83537500D03*
X207150000Y-81262500D03*
X205250000Y-81262500D03*
%TD*%
D18*
%TO.C,D31*%
X160149998Y-45200000D03*
X162249998Y-45200000D03*
%TD*%
D21*
%TO.C,D14*%
X105050000Y-105800000D03*
X102950000Y-105800000D03*
%TD*%
D18*
%TO.C,D11*%
X102950000Y-45200000D03*
X105050000Y-45200000D03*
%TD*%
D19*
%TO.C,C4*%
X59775000Y-68800000D03*
X58225000Y-68800000D03*
%TD*%
D20*
%TO.C,R3*%
X50100000Y-100410000D03*
X50100000Y-99390000D03*
%TD*%
D28*
%TO.C,R13*%
X215100000Y-94590000D03*
X215100000Y-95610000D03*
%TD*%
D21*
%TO.C,D22*%
X216250000Y-71800000D03*
X214150000Y-71800000D03*
%TD*%
D14*
%TO.C,SW27*%
X184699998Y-50000000D03*
D15*
X179199998Y-55900000D03*
D16*
X179199998Y-50000000D03*
D15*
X174199998Y-53800000D03*
D14*
X173699998Y-50000000D03*
%TD*%
%TO.C,SW18*%
X116500000Y-101000000D03*
D15*
X122000000Y-95100000D03*
D16*
X122000000Y-101000000D03*
D15*
X127000000Y-97200000D03*
D14*
X127500000Y-101000000D03*
%TD*%
D28*
%TO.C,R5*%
X50900000Y-92090000D03*
X50900000Y-93110000D03*
%TD*%
D14*
%TO.C,SW38*%
X137700000Y-101000000D03*
D15*
X143200000Y-95100000D03*
D16*
X143200000Y-101000000D03*
D15*
X148200000Y-97200000D03*
D14*
X148700000Y-101000000D03*
%TD*%
D29*
%TO.C,J2*%
X95000000Y-86500000D03*
D30*
X95000000Y-88500000D03*
X95000000Y-90500000D03*
X95000000Y-92500000D03*
%TD*%
D20*
%TO.C,R4*%
X49900000Y-93110000D03*
X49900000Y-92090000D03*
%TD*%
D14*
%TO.C,SW17*%
X116500000Y-84000000D03*
D15*
X122000000Y-78100000D03*
D16*
X122000000Y-84000000D03*
D15*
X127000000Y-80200000D03*
D14*
X127500000Y-84000000D03*
%TD*%
D31*
%TO.C,R10*%
X61190000Y-107500000D03*
X62210000Y-107500000D03*
%TD*%
D19*
%TO.C,C3*%
X59775000Y-63200000D03*
X58225000Y-63200000D03*
%TD*%
D32*
%TO.C,Q2*%
X205250000Y-49375000D03*
X207150000Y-49375000D03*
X206200000Y-47500000D03*
%TD*%
D14*
%TO.C,SW4*%
X73500000Y-50000000D03*
D15*
X68000000Y-55900000D03*
D16*
X68000000Y-50000000D03*
D15*
X63000000Y-53800000D03*
D14*
X62500000Y-50000000D03*
%TD*%
D33*
%TO.C,U1*%
X68700000Y-92250000D03*
X67600000Y-92250000D03*
X66500000Y-92250000D03*
X65400000Y-92250000D03*
X64300000Y-92250000D03*
X63200000Y-92250000D03*
X62100000Y-92250000D03*
X61000000Y-92250000D03*
X59900000Y-92250000D03*
X58800000Y-92250000D03*
X57700000Y-92250000D03*
X56600000Y-92250000D03*
X55500000Y-92250000D03*
D34*
X54000000Y-93500000D03*
X54000000Y-94600000D03*
X54000000Y-95700000D03*
X54000000Y-96800000D03*
X54000000Y-97900000D03*
X54000000Y-99000000D03*
X54000000Y-100100000D03*
X54000000Y-101200000D03*
X54000000Y-102300000D03*
X54000000Y-103400000D03*
X54000000Y-104500000D03*
D35*
X55500000Y-105750000D03*
X56600000Y-105750000D03*
X57700000Y-105750000D03*
X58800000Y-105750000D03*
X59900000Y-105750000D03*
X61000000Y-105750000D03*
X62100000Y-105750000D03*
X63200000Y-105750000D03*
X64300000Y-105750000D03*
X65400000Y-105750000D03*
X66500000Y-105750000D03*
X67600000Y-105750000D03*
X57700000Y-89500000D03*
X58800000Y-89500000D03*
%TD*%
D21*
%TO.C,D13*%
X105050000Y-88800000D03*
X102950000Y-88800000D03*
%TD*%
%TO.C,D38*%
X144250000Y-105800000D03*
X142150000Y-105800000D03*
%TD*%
D14*
%TO.C,SW7*%
X91500000Y-50000000D03*
D15*
X86000000Y-55900000D03*
D16*
X86000000Y-50000000D03*
D15*
X81000000Y-53800000D03*
D14*
X80500000Y-50000000D03*
%TD*%
D36*
%TO.C,SW20*%
X65400000Y-108150000D03*
X65400000Y-107250000D03*
X68200000Y-108150000D03*
X68200000Y-107250000D03*
%TD*%
D21*
%TO.C,D25*%
X198250000Y-71800000D03*
X196150000Y-71800000D03*
%TD*%
D19*
%TO.C,C11*%
X206975000Y-70300000D03*
X205425000Y-70300000D03*
%TD*%
D14*
%TO.C,SW23*%
X209700000Y-84000000D03*
D15*
X215200000Y-78100000D03*
D16*
X215200000Y-84000000D03*
D15*
X220200000Y-80200000D03*
D14*
X220700000Y-84000000D03*
%TD*%
D21*
%TO.C,D9*%
X87050000Y-88800000D03*
X84950000Y-88800000D03*
%TD*%
D18*
%TO.C,D7*%
X84950000Y-45200000D03*
X87050000Y-45200000D03*
%TD*%
D14*
%TO.C,SW16*%
X116500000Y-67000000D03*
D15*
X122000000Y-61100000D03*
D16*
X122000000Y-67000000D03*
D15*
X127000000Y-63200000D03*
D14*
X127500000Y-67000000D03*
%TD*%
D18*
%TO.C,D27*%
X178149998Y-45200000D03*
X180249998Y-45200000D03*
%TD*%
D21*
%TO.C,D6*%
X69050000Y-88800000D03*
X66950000Y-88800000D03*
%TD*%
D19*
%TO.C,C2*%
X59775000Y-54537500D03*
X58225000Y-54537500D03*
%TD*%
D14*
%TO.C,SW12*%
X98500000Y-67000000D03*
D15*
X104000000Y-61100000D03*
D16*
X104000000Y-67000000D03*
D15*
X109000000Y-63200000D03*
D14*
X109500000Y-67000000D03*
%TD*%
%TO.C,SW34*%
X155700000Y-101000000D03*
D15*
X161200000Y-95100000D03*
D16*
X161200000Y-101000000D03*
D15*
X166200000Y-97200000D03*
D14*
X166700000Y-101000000D03*
%TD*%
%TO.C,SW35*%
X148699998Y-50000000D03*
D15*
X143199998Y-55900000D03*
D16*
X143199998Y-50000000D03*
D15*
X138199998Y-53800000D03*
D14*
X137699998Y-50000000D03*
%TD*%
%TO.C,SW6*%
X62500000Y-84000000D03*
D15*
X68000000Y-78100000D03*
D16*
X68000000Y-84000000D03*
D15*
X73000000Y-80200000D03*
D14*
X73500000Y-84000000D03*
%TD*%
D21*
%TO.C,D34*%
X162250000Y-105800000D03*
X160150000Y-105800000D03*
%TD*%
D29*
%TO.C,J4*%
X170200000Y-86500000D03*
D30*
X170200000Y-88500000D03*
X170200000Y-90500000D03*
X170200000Y-92500000D03*
%TD*%
D37*
%TO.C,R7*%
X58175000Y-79600000D03*
X59825000Y-79600000D03*
%TD*%
D19*
%TO.C,C5*%
X59775000Y-70300000D03*
X58225000Y-70300000D03*
%TD*%
D38*
%TO.C,C7*%
X216880000Y-88400000D03*
X215920000Y-88400000D03*
%TD*%
D14*
%TO.C,SW37*%
X137700000Y-84000000D03*
D15*
X143200000Y-78100000D03*
D16*
X143200000Y-84000000D03*
D15*
X148200000Y-80200000D03*
D14*
X148700000Y-84000000D03*
%TD*%
D18*
%TO.C,D4*%
X66950000Y-45200000D03*
X69050000Y-45200000D03*
%TD*%
D21*
%TO.C,D10*%
X87050000Y-105800000D03*
X84950000Y-105800000D03*
%TD*%
%TO.C,D17*%
X123050000Y-88800000D03*
X120950000Y-88800000D03*
%TD*%
D14*
%TO.C,SW28*%
X173700000Y-67000000D03*
D15*
X179200000Y-61100000D03*
D16*
X179200000Y-67000000D03*
D15*
X184200000Y-63200000D03*
D14*
X184700000Y-67000000D03*
%TD*%
D22*
%TO.C,J3*%
X222154050Y-91924800D03*
X222141350Y-103075400D03*
D39*
X217111450Y-100700100D03*
X217111450Y-99900100D03*
D40*
X217111450Y-98750100D03*
X217111450Y-97750100D03*
X217111450Y-97250100D03*
X217111450Y-96250100D03*
D39*
X217111450Y-95100100D03*
X217111450Y-94300100D03*
X217111450Y-94300100D03*
X217111450Y-95100100D03*
D40*
X217111450Y-95750100D03*
X217111450Y-96750100D03*
X217111450Y-98250100D03*
X217111450Y-99250100D03*
D39*
X217111450Y-99900100D03*
X217111450Y-100700100D03*
D25*
X218115450Y-91924700D03*
X218115450Y-103075400D03*
%TD*%
D14*
%TO.C,SW30*%
X173700000Y-101000000D03*
D15*
X179200000Y-95100000D03*
D16*
X179200000Y-101000000D03*
D15*
X184200000Y-97200000D03*
D14*
X184700000Y-101000000D03*
%TD*%
%TO.C,SW25*%
X191700000Y-67000000D03*
D15*
X197200000Y-61100000D03*
D16*
X197200000Y-67000000D03*
D15*
X202200000Y-63200000D03*
D14*
X202700000Y-67000000D03*
%TD*%
D21*
%TO.C,D33*%
X162250000Y-88800000D03*
X160150000Y-88800000D03*
%TD*%
D35*
%TO.C,U4*%
X196500000Y-105750000D03*
X197600000Y-105750000D03*
X198700000Y-105750000D03*
X199800000Y-105750000D03*
X200900000Y-105750000D03*
X202000000Y-105750000D03*
X203100000Y-105750000D03*
X204200000Y-105750000D03*
X205300000Y-105750000D03*
X206400000Y-105750000D03*
X207500000Y-105750000D03*
X208600000Y-105750000D03*
X209700000Y-105750000D03*
D41*
X211200000Y-104500000D03*
X211200000Y-103400000D03*
X211200000Y-102300000D03*
X211200000Y-101200000D03*
X211200000Y-100100000D03*
X211200000Y-99000000D03*
X211200000Y-97900000D03*
X211200000Y-96800000D03*
X211200000Y-95700000D03*
X211200000Y-94600000D03*
X211200000Y-93500000D03*
D33*
X209700000Y-92250000D03*
X208600000Y-92250000D03*
X207500000Y-92250000D03*
X206400000Y-92250000D03*
X205300000Y-92250000D03*
X204200000Y-92250000D03*
X203100000Y-92250000D03*
X202000000Y-92250000D03*
X200900000Y-92250000D03*
X199800000Y-92250000D03*
X198700000Y-92250000D03*
X197600000Y-92250000D03*
X207500000Y-89500000D03*
X206400000Y-89500000D03*
%TD*%
D21*
%TO.C,D5*%
X69050000Y-71800000D03*
X66950000Y-71800000D03*
%TD*%
D42*
%TO.C,D3*%
X50800000Y-87750000D03*
X50800000Y-89850000D03*
%TD*%
D19*
%TO.C,C12*%
X206975000Y-85200000D03*
X205425000Y-85200000D03*
%TD*%
D36*
%TO.C,SW40*%
X197000000Y-108150000D03*
X197000000Y-107250000D03*
X199800000Y-108150000D03*
X199800000Y-107250000D03*
%TD*%
D21*
%TO.C,D18*%
X123050000Y-105800000D03*
X120950000Y-105800000D03*
%TD*%
D43*
%TO.C,R11*%
X216910000Y-89400000D03*
X215890000Y-89400000D03*
%TD*%
D44*
%TO.C,H2*%
X43200000Y-107200000D03*
D45*
X43700000Y-107200000D03*
D44*
X44200000Y-107200000D03*
%TD*%
D18*
%TO.C,D1*%
X48950000Y-45200000D03*
X51050000Y-45200000D03*
%TD*%
D46*
%TO.C,D20*%
X54350000Y-108900000D03*
X58050000Y-108900000D03*
%TD*%
D31*
%TO.C,R1*%
X48290000Y-89400000D03*
X49310000Y-89400000D03*
%TD*%
D21*
%TO.C,D8*%
X87050000Y-71800000D03*
X84950000Y-71800000D03*
%TD*%
D14*
%TO.C,SW29*%
X173700000Y-84000000D03*
D15*
X179200000Y-78100000D03*
D16*
X179200000Y-84000000D03*
D15*
X184200000Y-80200000D03*
D14*
X184700000Y-84000000D03*
%TD*%
D18*
%TO.C,D35*%
X142149998Y-45200000D03*
X144249998Y-45200000D03*
%TD*%
D20*
%TO.C,R2*%
X50100000Y-95610000D03*
X50100000Y-94590000D03*
%TD*%
D28*
%TO.C,R15*%
X215300000Y-92090000D03*
X215300000Y-93110000D03*
%TD*%
D19*
%TO.C,C9*%
X206975000Y-63200000D03*
X205425000Y-63200000D03*
%TD*%
D28*
%TO.C,R12*%
X215100000Y-99390000D03*
X215100000Y-100410000D03*
%TD*%
D46*
%TO.C,D40*%
X207150000Y-108900000D03*
X210850000Y-108900000D03*
%TD*%
D19*
%TO.C,C10*%
X206975000Y-68800000D03*
X205425000Y-68800000D03*
%TD*%
D14*
%TO.C,SW1*%
X55500000Y-50000000D03*
D15*
X50000000Y-55900000D03*
D16*
X50000000Y-50000000D03*
D15*
X45000000Y-53800000D03*
D14*
X44500000Y-50000000D03*
%TD*%
D21*
%TO.C,D12*%
X105050000Y-71800000D03*
X102950000Y-71800000D03*
%TD*%
D14*
%TO.C,SW11*%
X109500000Y-50000000D03*
D15*
X104000000Y-55900000D03*
D16*
X104000000Y-50000000D03*
D15*
X99000000Y-53800000D03*
D14*
X98500000Y-50000000D03*
%TD*%
D44*
%TO.C,H4*%
X222000000Y-107200000D03*
D47*
X221500000Y-107200000D03*
D44*
X221000000Y-107200000D03*
%TD*%
D21*
%TO.C,D28*%
X180250000Y-71800000D03*
X178150000Y-71800000D03*
%TD*%
D18*
%TO.C,D21*%
X214149998Y-45200000D03*
X216249998Y-45200000D03*
%TD*%
D48*
%TO.C,U5*%
X207150000Y-64862500D03*
X206200000Y-64862500D03*
X205250000Y-64862500D03*
X205250000Y-67137500D03*
X207150000Y-67137500D03*
%TD*%
D32*
%TO.C,Q1*%
X58050000Y-49375000D03*
X59950000Y-49375000D03*
X59000000Y-47500000D03*
%TD*%
D21*
%TO.C,D19*%
X60050000Y-51337500D03*
X57950000Y-51337500D03*
%TD*%
%TO.C,D39*%
X207250000Y-51337500D03*
X205150000Y-51337500D03*
%TD*%
D14*
%TO.C,SW5*%
X62500000Y-67000000D03*
D15*
X68000000Y-61100000D03*
D16*
X68000000Y-67000000D03*
D15*
X73000000Y-63200000D03*
D14*
X73500000Y-67000000D03*
%TD*%
%TO.C,SW33*%
X155700000Y-84000000D03*
D15*
X161200000Y-78100000D03*
D16*
X161200000Y-84000000D03*
D15*
X166200000Y-80200000D03*
D14*
X166700000Y-84000000D03*
%TD*%
D37*
%TO.C,R8*%
X58175000Y-86700000D03*
X59825000Y-86700000D03*
%TD*%
D27*
%TO.C,U2*%
X58050000Y-83537500D03*
X59000000Y-83537500D03*
X59950000Y-83537500D03*
X59950000Y-81262500D03*
X58050000Y-81262500D03*
%TD*%
D17*
%TO.C,R6*%
X59825000Y-53037500D03*
X58175000Y-53037500D03*
%TD*%
D37*
%TO.C,R17*%
X205375000Y-79600000D03*
X207025000Y-79600000D03*
%TD*%
D49*
%TO.C,SW19*%
X46900000Y-106900000D03*
X46900000Y-109100000D03*
D50*
X48200000Y-108000000D03*
X51200000Y-108000000D03*
D49*
X52500000Y-106900000D03*
X52500000Y-109100000D03*
D51*
X48700000Y-106250000D03*
X49700000Y-106250000D03*
X50700000Y-106250000D03*
%TD*%
D18*
%TO.C,D15*%
X120950000Y-45200000D03*
X123050000Y-45200000D03*
%TD*%
D21*
%TO.C,D37*%
X144250000Y-88800000D03*
X142150000Y-88800000D03*
%TD*%
D43*
%TO.C,R20*%
X198710000Y-89400000D03*
X197690000Y-89400000D03*
%TD*%
D44*
%TO.C,H3*%
X222000000Y-105200000D03*
D47*
X221500000Y-105200000D03*
D44*
X221000000Y-105200000D03*
%TD*%
D14*
%TO.C,SW24*%
X202699998Y-50000000D03*
D15*
X197199998Y-55900000D03*
D16*
X197199998Y-50000000D03*
D15*
X192199998Y-53800000D03*
D14*
X191699998Y-50000000D03*
%TD*%
D52*
%TO.C,C1*%
X48320000Y-88400000D03*
X49280000Y-88400000D03*
%TD*%
D21*
%TO.C,D16*%
X123050000Y-71800000D03*
X120950000Y-71800000D03*
%TD*%
D14*
%TO.C,SW32*%
X155700000Y-67000000D03*
D15*
X161200000Y-61100000D03*
D16*
X161200000Y-67000000D03*
D15*
X166200000Y-63200000D03*
D14*
X166700000Y-67000000D03*
%TD*%
D37*
%TO.C,R18*%
X205375000Y-86700000D03*
X207025000Y-86700000D03*
%TD*%
D31*
%TO.C,R19*%
X197690000Y-88400000D03*
X198710000Y-88400000D03*
%TD*%
D14*
%TO.C,SW3*%
X44500000Y-84000000D03*
D15*
X50000000Y-78100000D03*
D16*
X50000000Y-84000000D03*
D15*
X55000000Y-80200000D03*
D14*
X55500000Y-84000000D03*
%TD*%
D53*
%TO.C,D23*%
X214400000Y-89805000D03*
X214400000Y-87705000D03*
%TD*%
D21*
%TO.C,D32*%
X162250000Y-71800000D03*
X160150000Y-71800000D03*
%TD*%
D49*
%TO.C,SW39*%
X212700000Y-106900000D03*
X212700000Y-109100000D03*
D50*
X214000000Y-108000000D03*
X217000000Y-108000000D03*
D49*
X218300000Y-106900000D03*
X218300000Y-109100000D03*
D51*
X214500000Y-106250000D03*
X215500000Y-106250000D03*
X216500000Y-106250000D03*
%TD*%
D14*
%TO.C,SW8*%
X80500000Y-67000000D03*
D15*
X86000000Y-61100000D03*
D16*
X86000000Y-67000000D03*
D15*
X91000000Y-63200000D03*
D14*
X91500000Y-67000000D03*
%TD*%
D21*
%TO.C,D36*%
X144250000Y-71800000D03*
X142150000Y-71800000D03*
%TD*%
%TO.C,D29*%
X180250000Y-88800000D03*
X178150000Y-88800000D03*
%TD*%
D48*
%TO.C,U3*%
X59950000Y-64862500D03*
X59000000Y-64862500D03*
X58050000Y-64862500D03*
X58050000Y-67137500D03*
X59950000Y-67137500D03*
%TD*%
D44*
%TO.C,H1*%
X43200000Y-105200000D03*
D45*
X43700000Y-105200000D03*
D44*
X44200000Y-105200000D03*
%TD*%
D31*
%TO.C,R9*%
X63190000Y-107500000D03*
X64210000Y-107500000D03*
%TD*%
D19*
%TO.C,C8*%
X206975000Y-54537500D03*
X205425000Y-54537500D03*
%TD*%
D26*
%TO.C,P2*%
X131400000Y-104331400D03*
X133800000Y-104331400D03*
X131400000Y-103140700D03*
X133800000Y-103140700D03*
X131400000Y-101950000D03*
X133800000Y-101950000D03*
X131400000Y-100759300D03*
X133800000Y-100759300D03*
X131400000Y-99568600D03*
X133800000Y-99568600D03*
%TD*%
D14*
%TO.C,SW22*%
X209700000Y-67000000D03*
D15*
X215200000Y-61100000D03*
D16*
X215200000Y-67000000D03*
D15*
X220200000Y-63200000D03*
D14*
X220700000Y-67000000D03*
%TD*%
D53*
%TO.C,D26*%
X196300000Y-89805000D03*
X196300000Y-87705000D03*
%TD*%
D14*
%TO.C,SW21*%
X220699998Y-50000000D03*
D15*
X215199998Y-55900000D03*
D16*
X215199998Y-50000000D03*
D15*
X210199998Y-53800000D03*
D14*
X209699998Y-50000000D03*
%TD*%
%TO.C,SW13*%
X98500000Y-84000000D03*
D15*
X104000000Y-78100000D03*
D16*
X104000000Y-84000000D03*
D15*
X109000000Y-80200000D03*
D14*
X109500000Y-84000000D03*
%TD*%
%TO.C,SW31*%
X166699998Y-50000000D03*
D15*
X161199998Y-55900000D03*
D16*
X161199998Y-50000000D03*
D15*
X156199998Y-53800000D03*
D14*
X155699998Y-50000000D03*
%TD*%
%LPD*%
M02*
