%TF.GenerationSoftware,KiCad,Pcbnew,8.0.1*%
%TF.CreationDate,2024-03-30T18:05:25+05:00*%
%TF.ProjectId,pcb,7063622e-6b69-4636-9164-5f7063625858,rev?*%
%TF.SameCoordinates,Original*%
%TF.FileFunction,Paste,Top*%
%TF.FilePolarity,Positive*%
%FSLAX46Y46*%
G04 Gerber Fmt 4.6, Leading zero omitted, Abs format (unit mm)*
G04 Created by KiCad (PCBNEW 8.0.1) date 2024-03-30 18:05:25*
%MOMM*%
%LPD*%
G01*
G04 APERTURE LIST*
G04 Aperture macros list*
%AMRoundRect*
0 Rectangle with rounded corners*
0 $1 Rounding radius*
0 $2 $3 $4 $5 $6 $7 $8 $9 X,Y pos of 4 corners*
0 Add a 4 corners polygon primitive as box body*
4,1,4,$2,$3,$4,$5,$6,$7,$8,$9,$2,$3,0*
0 Add four circle primitives for the rounded corners*
1,1,$1+$1,$2,$3*
1,1,$1+$1,$4,$5*
1,1,$1+$1,$6,$7*
1,1,$1+$1,$8,$9*
0 Add four rect primitives between the rounded corners*
20,1,$1+$1,$2,$3,$4,$5,0*
20,1,$1+$1,$4,$5,$6,$7,0*
20,1,$1+$1,$6,$7,$8,$9,0*
20,1,$1+$1,$8,$9,$2,$3,0*%
G04 Aperture macros list end*
%ADD10RoundRect,0.200000X0.200000X0.275000X-0.200000X0.275000X-0.200000X-0.275000X0.200000X-0.275000X0*%
%ADD11RoundRect,0.112500X-0.187500X-0.112500X0.187500X-0.112500X0.187500X0.112500X-0.187500X0.112500X0*%
%ADD12RoundRect,0.225000X0.225000X0.250000X-0.225000X0.250000X-0.225000X-0.250000X0.225000X-0.250000X0*%
%ADD13RoundRect,0.135000X0.185000X-0.135000X0.185000X0.135000X-0.185000X0.135000X-0.185000X-0.135000X0*%
%ADD14RoundRect,0.112500X0.187500X0.112500X-0.187500X0.112500X-0.187500X-0.112500X0.187500X-0.112500X0*%
%ADD15RoundRect,0.150000X-0.425000X0.150000X-0.425000X-0.150000X0.425000X-0.150000X0.425000X0.150000X0*%
%ADD16RoundRect,0.075000X-0.500000X0.075000X-0.500000X-0.075000X0.500000X-0.075000X0.500000X0.075000X0*%
%ADD17RoundRect,0.150000X0.150000X-0.512500X0.150000X0.512500X-0.150000X0.512500X-0.150000X-0.512500X0*%
%ADD18RoundRect,0.135000X-0.185000X0.135000X-0.185000X-0.135000X0.185000X-0.135000X0.185000X0.135000X0*%
%ADD19RoundRect,0.135000X-0.135000X-0.185000X0.135000X-0.185000X0.135000X0.185000X-0.135000X0.185000X0*%
%ADD20RoundRect,0.150000X0.150000X-0.587500X0.150000X0.587500X-0.150000X0.587500X-0.150000X-0.587500X0*%
%ADD21RoundRect,0.175000X-0.175000X0.500000X-0.175000X-0.500000X0.175000X-0.500000X0.175000X0.500000X0*%
%ADD22RoundRect,0.175000X-0.500000X-0.175000X0.500000X-0.175000X0.500000X0.175000X-0.500000X0.175000X0*%
%ADD23RoundRect,0.175000X0.175000X-0.500000X0.175000X0.500000X-0.175000X0.500000X-0.175000X-0.500000X0*%
%ADD24R,0.800000X0.700000*%
%ADD25RoundRect,0.200000X-0.200000X-0.275000X0.200000X-0.275000X0.200000X0.275000X-0.200000X0.275000X0*%
%ADD26RoundRect,0.140000X0.140000X0.170000X-0.140000X0.170000X-0.140000X-0.170000X0.140000X-0.170000X0*%
%ADD27RoundRect,0.150000X0.425000X-0.150000X0.425000X0.150000X-0.425000X0.150000X-0.425000X-0.150000X0*%
%ADD28RoundRect,0.075000X0.500000X-0.075000X0.500000X0.075000X-0.500000X0.075000X-0.500000X-0.075000X0*%
%ADD29RoundRect,0.175000X0.500000X0.175000X-0.500000X0.175000X-0.500000X-0.175000X0.500000X-0.175000X0*%
%ADD30RoundRect,0.112500X-0.112500X0.187500X-0.112500X-0.187500X0.112500X-0.187500X0.112500X0.187500X0*%
%ADD31RoundRect,0.135000X0.135000X0.185000X-0.135000X0.185000X-0.135000X-0.185000X0.135000X-0.185000X0*%
%ADD32RoundRect,0.500000X0.500000X-0.000010X0.500000X0.000010X-0.500000X0.000010X-0.500000X-0.000010X0*%
%ADD33RoundRect,0.060000X0.740000X0.540000X-0.740000X0.540000X-0.740000X-0.540000X0.740000X-0.540000X0*%
%ADD34RoundRect,0.500000X-0.500000X0.000010X-0.500000X-0.000010X0.500000X-0.000010X0.500000X0.000010X0*%
%ADD35RoundRect,0.150000X-0.150000X0.512500X-0.150000X-0.512500X0.150000X-0.512500X0.150000X0.512500X0*%
%ADD36R,1.000000X0.800000*%
%ADD37R,0.700000X1.500000*%
%ADD38RoundRect,0.140000X-0.140000X-0.170000X0.140000X-0.170000X0.140000X0.170000X-0.140000X0.170000X0*%
%ADD39RoundRect,0.112500X0.112500X-0.187500X0.112500X0.187500X-0.112500X0.187500X-0.112500X-0.187500X0*%
G04 APERTURE END LIST*
D10*
%TO.C,R16*%
X207025000Y-53037500D03*
X205375000Y-53037500D03*
%TD*%
D11*
%TO.C,D24*%
X196149998Y-45200000D03*
X198249998Y-45200000D03*
%TD*%
D12*
%TO.C,C6*%
X59775000Y-85200000D03*
X58225000Y-85200000D03*
%TD*%
D13*
%TO.C,R14*%
X214300000Y-93110000D03*
X214300000Y-92090000D03*
%TD*%
D14*
%TO.C,D2*%
X51050000Y-71800000D03*
X48950000Y-71800000D03*
%TD*%
D15*
%TO.C,J1*%
X48100000Y-94300000D03*
X48100000Y-95100000D03*
D16*
X48100000Y-96250000D03*
X48100000Y-97250000D03*
X48100000Y-97750000D03*
X48100000Y-98750000D03*
D15*
X48100000Y-99900000D03*
X48100000Y-100700000D03*
X48100000Y-100700000D03*
X48100000Y-99900000D03*
D16*
X48100000Y-99250000D03*
X48100000Y-98250000D03*
X48100000Y-96750000D03*
X48100000Y-95750000D03*
D15*
X48100000Y-95100000D03*
X48100000Y-94300000D03*
%TD*%
D14*
%TO.C,D30*%
X180250000Y-105800000D03*
X178150000Y-105800000D03*
%TD*%
D17*
%TO.C,U6*%
X205250000Y-83537500D03*
X206200000Y-83537500D03*
X207150000Y-83537500D03*
X207150000Y-81262500D03*
X205250000Y-81262500D03*
%TD*%
D11*
%TO.C,D31*%
X160149998Y-45200000D03*
X162249998Y-45200000D03*
%TD*%
D14*
%TO.C,D14*%
X105050000Y-105800000D03*
X102950000Y-105800000D03*
%TD*%
D11*
%TO.C,D11*%
X102950000Y-45200000D03*
X105050000Y-45200000D03*
%TD*%
D12*
%TO.C,C4*%
X59775000Y-68800000D03*
X58225000Y-68800000D03*
%TD*%
D13*
%TO.C,R3*%
X50100000Y-100410000D03*
X50100000Y-99390000D03*
%TD*%
D18*
%TO.C,R13*%
X215100000Y-94590000D03*
X215100000Y-95610000D03*
%TD*%
D14*
%TO.C,D22*%
X216250000Y-71800000D03*
X214150000Y-71800000D03*
%TD*%
D18*
%TO.C,R5*%
X50900000Y-92090000D03*
X50900000Y-93110000D03*
%TD*%
D13*
%TO.C,R4*%
X49900000Y-93110000D03*
X49900000Y-92090000D03*
%TD*%
D19*
%TO.C,R10*%
X61190000Y-107500000D03*
X62210000Y-107500000D03*
%TD*%
D12*
%TO.C,C3*%
X59775000Y-63200000D03*
X58225000Y-63200000D03*
%TD*%
D20*
%TO.C,Q2*%
X205250000Y-49375000D03*
X207150000Y-49375000D03*
X206200000Y-47500000D03*
%TD*%
D21*
%TO.C,U1*%
X68700000Y-92250000D03*
X67600000Y-92250000D03*
X66500000Y-92250000D03*
X65400000Y-92250000D03*
X64300000Y-92250000D03*
X63200000Y-92250000D03*
X62100000Y-92250000D03*
X61000000Y-92250000D03*
X59900000Y-92250000D03*
X58800000Y-92250000D03*
X57700000Y-92250000D03*
X56600000Y-92250000D03*
X55500000Y-92250000D03*
D22*
X54000000Y-93500000D03*
X54000000Y-94600000D03*
X54000000Y-95700000D03*
X54000000Y-96800000D03*
X54000000Y-97900000D03*
X54000000Y-99000000D03*
X54000000Y-100100000D03*
X54000000Y-101200000D03*
X54000000Y-102300000D03*
X54000000Y-103400000D03*
X54000000Y-104500000D03*
D23*
X55500000Y-105750000D03*
X56600000Y-105750000D03*
X57700000Y-105750000D03*
X58800000Y-105750000D03*
X59900000Y-105750000D03*
X61000000Y-105750000D03*
X62100000Y-105750000D03*
X63200000Y-105750000D03*
X64300000Y-105750000D03*
X65400000Y-105750000D03*
X66500000Y-105750000D03*
X67600000Y-105750000D03*
X57700000Y-89500000D03*
X58800000Y-89500000D03*
%TD*%
D14*
%TO.C,D13*%
X105050000Y-88800000D03*
X102950000Y-88800000D03*
%TD*%
%TO.C,D38*%
X144250000Y-105800000D03*
X142150000Y-105800000D03*
%TD*%
D24*
%TO.C,SW20*%
X65400000Y-108150000D03*
X65400000Y-107250000D03*
X68200000Y-108150000D03*
X68200000Y-107250000D03*
%TD*%
D14*
%TO.C,D25*%
X198250000Y-71800000D03*
X196150000Y-71800000D03*
%TD*%
D12*
%TO.C,C11*%
X206975000Y-70300000D03*
X205425000Y-70300000D03*
%TD*%
D14*
%TO.C,D9*%
X87050000Y-88800000D03*
X84950000Y-88800000D03*
%TD*%
D11*
%TO.C,D7*%
X84950000Y-45200000D03*
X87050000Y-45200000D03*
%TD*%
%TO.C,D27*%
X178149998Y-45200000D03*
X180249998Y-45200000D03*
%TD*%
D14*
%TO.C,D6*%
X69050000Y-88800000D03*
X66950000Y-88800000D03*
%TD*%
D12*
%TO.C,C2*%
X59775000Y-54537500D03*
X58225000Y-54537500D03*
%TD*%
D14*
%TO.C,D34*%
X162250000Y-105800000D03*
X160150000Y-105800000D03*
%TD*%
D25*
%TO.C,R7*%
X58175000Y-79600000D03*
X59825000Y-79600000D03*
%TD*%
D12*
%TO.C,C5*%
X59775000Y-70300000D03*
X58225000Y-70300000D03*
%TD*%
D26*
%TO.C,C7*%
X216880000Y-88400000D03*
X215920000Y-88400000D03*
%TD*%
D11*
%TO.C,D4*%
X66950000Y-45200000D03*
X69050000Y-45200000D03*
%TD*%
D14*
%TO.C,D10*%
X87050000Y-105800000D03*
X84950000Y-105800000D03*
%TD*%
%TO.C,D17*%
X123050000Y-88800000D03*
X120950000Y-88800000D03*
%TD*%
D27*
%TO.C,J3*%
X217111450Y-100700100D03*
X217111450Y-99900100D03*
D28*
X217111450Y-98750100D03*
X217111450Y-97750100D03*
X217111450Y-97250100D03*
X217111450Y-96250100D03*
D27*
X217111450Y-95100100D03*
X217111450Y-94300100D03*
X217111450Y-94300100D03*
X217111450Y-95100100D03*
D28*
X217111450Y-95750100D03*
X217111450Y-96750100D03*
X217111450Y-98250100D03*
X217111450Y-99250100D03*
D27*
X217111450Y-99900100D03*
X217111450Y-100700100D03*
%TD*%
D14*
%TO.C,D33*%
X162250000Y-88800000D03*
X160150000Y-88800000D03*
%TD*%
D23*
%TO.C,U4*%
X196500000Y-105750000D03*
X197600000Y-105750000D03*
X198700000Y-105750000D03*
X199800000Y-105750000D03*
X200900000Y-105750000D03*
X202000000Y-105750000D03*
X203100000Y-105750000D03*
X204200000Y-105750000D03*
X205300000Y-105750000D03*
X206400000Y-105750000D03*
X207500000Y-105750000D03*
X208600000Y-105750000D03*
X209700000Y-105750000D03*
D29*
X211200000Y-104500000D03*
X211200000Y-103400000D03*
X211200000Y-102300000D03*
X211200000Y-101200000D03*
X211200000Y-100100000D03*
X211200000Y-99000000D03*
X211200000Y-97900000D03*
X211200000Y-96800000D03*
X211200000Y-95700000D03*
X211200000Y-94600000D03*
X211200000Y-93500000D03*
D21*
X209700000Y-92250000D03*
X208600000Y-92250000D03*
X207500000Y-92250000D03*
X206400000Y-92250000D03*
X205300000Y-92250000D03*
X204200000Y-92250000D03*
X203100000Y-92250000D03*
X202000000Y-92250000D03*
X200900000Y-92250000D03*
X199800000Y-92250000D03*
X198700000Y-92250000D03*
X197600000Y-92250000D03*
X207500000Y-89500000D03*
X206400000Y-89500000D03*
%TD*%
D14*
%TO.C,D5*%
X69050000Y-71800000D03*
X66950000Y-71800000D03*
%TD*%
D30*
%TO.C,D3*%
X50800000Y-87750000D03*
X50800000Y-89850000D03*
%TD*%
D12*
%TO.C,C12*%
X206975000Y-85200000D03*
X205425000Y-85200000D03*
%TD*%
D24*
%TO.C,SW40*%
X197000000Y-108150000D03*
X197000000Y-107250000D03*
X199800000Y-108150000D03*
X199800000Y-107250000D03*
%TD*%
D14*
%TO.C,D18*%
X123050000Y-105800000D03*
X120950000Y-105800000D03*
%TD*%
D31*
%TO.C,R11*%
X216910000Y-89400000D03*
X215890000Y-89400000D03*
%TD*%
D32*
%TO.C,H2*%
X43700000Y-107200000D03*
%TD*%
D11*
%TO.C,D1*%
X48950000Y-45200000D03*
X51050000Y-45200000D03*
%TD*%
D33*
%TO.C,D20*%
X54350000Y-108900000D03*
X58050000Y-108900000D03*
%TD*%
D19*
%TO.C,R1*%
X48290000Y-89400000D03*
X49310000Y-89400000D03*
%TD*%
D14*
%TO.C,D8*%
X87050000Y-71800000D03*
X84950000Y-71800000D03*
%TD*%
D11*
%TO.C,D35*%
X142149998Y-45200000D03*
X144249998Y-45200000D03*
%TD*%
D13*
%TO.C,R2*%
X50100000Y-95610000D03*
X50100000Y-94590000D03*
%TD*%
D18*
%TO.C,R15*%
X215300000Y-92090000D03*
X215300000Y-93110000D03*
%TD*%
D12*
%TO.C,C9*%
X206975000Y-63200000D03*
X205425000Y-63200000D03*
%TD*%
D18*
%TO.C,R12*%
X215100000Y-99390000D03*
X215100000Y-100410000D03*
%TD*%
D33*
%TO.C,D40*%
X207150000Y-108900000D03*
X210850000Y-108900000D03*
%TD*%
D12*
%TO.C,C10*%
X206975000Y-68800000D03*
X205425000Y-68800000D03*
%TD*%
D14*
%TO.C,D12*%
X105050000Y-71800000D03*
X102950000Y-71800000D03*
%TD*%
D34*
%TO.C,H4*%
X221500000Y-107200000D03*
%TD*%
D14*
%TO.C,D28*%
X180250000Y-71800000D03*
X178150000Y-71800000D03*
%TD*%
D11*
%TO.C,D21*%
X214149998Y-45200000D03*
X216249998Y-45200000D03*
%TD*%
D35*
%TO.C,U5*%
X207150000Y-64862500D03*
X206200000Y-64862500D03*
X205250000Y-64862500D03*
X205250000Y-67137500D03*
X207150000Y-67137500D03*
%TD*%
D20*
%TO.C,Q1*%
X58050000Y-49375000D03*
X59950000Y-49375000D03*
X59000000Y-47500000D03*
%TD*%
D14*
%TO.C,D19*%
X60050000Y-51337500D03*
X57950000Y-51337500D03*
%TD*%
%TO.C,D39*%
X207250000Y-51337500D03*
X205150000Y-51337500D03*
%TD*%
D25*
%TO.C,R8*%
X58175000Y-86700000D03*
X59825000Y-86700000D03*
%TD*%
D17*
%TO.C,U2*%
X58050000Y-83537500D03*
X59000000Y-83537500D03*
X59950000Y-83537500D03*
X59950000Y-81262500D03*
X58050000Y-81262500D03*
%TD*%
D10*
%TO.C,R6*%
X59825000Y-53037500D03*
X58175000Y-53037500D03*
%TD*%
D25*
%TO.C,R17*%
X205375000Y-79600000D03*
X207025000Y-79600000D03*
%TD*%
D36*
%TO.C,SW19*%
X46900000Y-106900000D03*
X46900000Y-109100000D03*
X52500000Y-106900000D03*
X52500000Y-109100000D03*
D37*
X48700000Y-106250000D03*
X49700000Y-106250000D03*
X50700000Y-106250000D03*
%TD*%
D11*
%TO.C,D15*%
X120950000Y-45200000D03*
X123050000Y-45200000D03*
%TD*%
D14*
%TO.C,D37*%
X144250000Y-88800000D03*
X142150000Y-88800000D03*
%TD*%
D31*
%TO.C,R20*%
X198710000Y-89400000D03*
X197690000Y-89400000D03*
%TD*%
D34*
%TO.C,H3*%
X221500000Y-105200000D03*
%TD*%
D38*
%TO.C,C1*%
X48320000Y-88400000D03*
X49280000Y-88400000D03*
%TD*%
D14*
%TO.C,D16*%
X123050000Y-71800000D03*
X120950000Y-71800000D03*
%TD*%
D25*
%TO.C,R18*%
X205375000Y-86700000D03*
X207025000Y-86700000D03*
%TD*%
D19*
%TO.C,R19*%
X197690000Y-88400000D03*
X198710000Y-88400000D03*
%TD*%
D39*
%TO.C,D23*%
X214400000Y-89805000D03*
X214400000Y-87705000D03*
%TD*%
D14*
%TO.C,D32*%
X162250000Y-71800000D03*
X160150000Y-71800000D03*
%TD*%
D36*
%TO.C,SW39*%
X212700000Y-106900000D03*
X212700000Y-109100000D03*
X218300000Y-106900000D03*
X218300000Y-109100000D03*
D37*
X214500000Y-106250000D03*
X215500000Y-106250000D03*
X216500000Y-106250000D03*
%TD*%
D14*
%TO.C,D36*%
X144250000Y-71800000D03*
X142150000Y-71800000D03*
%TD*%
%TO.C,D29*%
X180250000Y-88800000D03*
X178150000Y-88800000D03*
%TD*%
D35*
%TO.C,U3*%
X59950000Y-64862500D03*
X59000000Y-64862500D03*
X58050000Y-64862500D03*
X58050000Y-67137500D03*
X59950000Y-67137500D03*
%TD*%
D32*
%TO.C,H1*%
X43700000Y-105200000D03*
%TD*%
D19*
%TO.C,R9*%
X63190000Y-107500000D03*
X64210000Y-107500000D03*
%TD*%
D12*
%TO.C,C8*%
X206975000Y-54537500D03*
X205425000Y-54537500D03*
%TD*%
D39*
%TO.C,D26*%
X196300000Y-89805000D03*
X196300000Y-87705000D03*
%TD*%
M02*
